0
SECTION
2
HEADER
9
$INSUNITS
70
4
9
$ACADVER
1
AC1014
9
$HANDSEED
5
FFFF
0
ENDSEC
0
SECTION
2
TABLES
0
TABLE
2
VPORT
5
8
100
AcDbSymbolTable
0
ENDTAB
0
TABLE
2
LTYPE
5
5
100
AcDbSymbolTable
0
LTYPE
5
14
100
AcDbSymbolTableRecord
100
AcDbLinetypeTableRecord
2
BYBLOCK
70
0
0
LTYPE
5
15
100
AcDbSymbolTableRecord
100
AcDbLinetypeTableRecord
2
BYLAYER
70
0
0
ENDTAB
0
TABLE
2
LAYER
5
2
100
AcDbSymbolTable
70
2
0
LAYER
5
50
100
AcDbSymbolTableRecord
100
AcDbLayerTableRecord
2
0
70
0
6
CONTINUOUS
0
ENDTAB
0
TABLE
2
STYLE
5
3
100
AcDbSymbolTable
70
1
0
STYLE
5
11
100
AcDbSymbolTableRecord
100
AcDbTextStyleTableRecord
2
STANDARD
70
0
0
ENDTAB
0
TABLE
2
VIEW
5
6
100
AcDbSymbolTable
70
0
0
ENDTAB
0
TABLE
2
UCS
5
7
100
AcDbSymbolTable
70
0
0
ENDTAB
0
TABLE
2
APPID
5
9
100
AcDbSymbolTable
70
2
0
APPID
5
12
100
AcDbSymbolTableRecord
100
AcDbRegAppTableRecord
2
ACAD
70
0
0
ENDTAB
0
TABLE
2
DIMSTYLE
5
A
100
AcDbSymbolTable
70
1
0
ENDTAB
0
TABLE
2
BLOCK_RECORD
5
1
100
AcDbSymbolTable
70
1
0
BLOCK_RECORD
5
1F
100
AcDbSymbolTableRecord
100
AcDbBlockTableRecord
2
*MODEL_SPACE
0
BLOCK_RECORD
5
1B
100
AcDbSymbolTableRecord
100
AcDbBlockTableRecord
2
*PAPER_SPACE
0
ENDTAB
0
ENDSEC
0
SECTION
2
BLOCKS
0
BLOCK
5
20
100
AcDbEntity
100
AcDbBlockBegin
2
*MODEL_SPACE
0
ENDBLK
5
21
100
AcDbEntity
100
AcDbBlockEnd
0
BLOCK
5
1C
100
AcDbEntity
100
AcDbBlockBegin
2
*PAPER_SPACE
0
ENDBLK
5
1D
100
AcDbEntity
100
AcDbBlockEnd
0
ENDSEC
0
SECTION
2
ENTITIES
0
CIRCLE
5
100
100
AcDbEntity
8
0
100
AcDbCircle
10
0
20
0
30
0
40
40
210
0
220
0
230
1
0
LWPOLYLINE
5
101
100
AcDbEntity
8
0
100
AcDbPolyline
90
13
70
1
43
0.0
10
-9.444737822776947
20
38.868971268339564
42
-1.7644410771367862
10
9.796313640584863
20
38.781854507685566
42
-1.4925765115728458
10
28.120379016998839
20
28.44721926551577
42
-1.1914564828886554
10
39.246683771021544
20
7.7264359815786863
42
-1.1124154831507962
10
37.457868471947506
20
-14.032394291006838
42
-1.0269423737121999
10
23.911108038392847
20
-32.066476457139885
42
-1.0343065461483809
10
7.0979945491090843
20
-39.365193678944578
42
-1.257565228200697
10
-10.812462108302675
20
-38.510916155767049
42
-1.2525045612626866
10
-26.451494852351214
20
-30.005306531945926
42
-1.8425893002810902
10
-35.284399342342709
20
-18.841739915678833
42
-2.0458200835089126
10
-39.5518844959239
20
-5.9706308562073351
42
-1.2592409622456571
10
-37.758486579201566
20
13.202147221124903
42
-1.0925466326275746
10
-26.451494852351225
20
30.005306531945919
42
-1.5243970717124953
0
LINE
5
102
100
AcDbEntity
8
0
100
AcDbLine
10
-29.997001989202559
20
3.70988664027182
30
0
11
-29.933014199434989
21
4.3067391306278786
31
0
0
SPLINE
5
103
100
AcDbEntity
8
0
100
AcDbSpline
70
0
71
2
72
6
73
3
74
0
42
0.000000001
43
0.0000000001
44
0.0000000001
40
0
40
0
40
0
40
1
40
1
40
1
10
-29.933014199434989
20
4.3067391306278786
30
0
10
-29.849669328797965
20
4.572218679017201
30
0
10
-29.713068222575973
20
4.3106005790491455
30
0
0
LINE
5
104
100
AcDbEntity
8
0
100
AcDbLine
10
-29.713068222575973
20
4.3106005790491455
30
0
11
-28.600751908027021
21
4.191350573996913
31
0
0
SPLINE
5
105
100
AcDbEntity
8
0
100
AcDbSpline
70
0
71
2
72
6
73
3
74
0
42
0.000000001
43
0.0000000001
44
0.0000000001
40
0
40
0
40
0
40
1
40
1
40
1
10
-28.600751908027028
20
4.191350573996913
30
0
10
-25.975944164590373
20
4.1020387247872563
30
0
10
-24.587316900692677
20
6.5601066553988723
30
0
0
LINE
5
106
100
AcDbEntity
8
0
100
AcDbLine
10
-24.587316900692677
20
6.5601066553988723
30
0
11
-23.943977872854493
21
6.1618374094264752
31
0
0
SPLINE
5
107
100
AcDbEntity
8
0
100
AcDbSpline
70
0
71
2
72
6
73
3
74
0
42
0.000000001
43
0.0000000001
44
0.0000000001
40
0
40
0
40
0
40
1
40
1
40
1
10
-23.943977872854493
20
6.1618374094264734
30
0
10
-24.958557097710891
20
4.3771468055975955
30
0
10
-27.186148048041353
20
3.8201607130861999
30
0
0
SPLINE
5
108
100
AcDbEntity
8
0
100
AcDbSpline
70
0
71
2
72
6
73
3
74
0
42
0.000000001
43
0.0000000001
44
0.0000000001
40
0
40
0
40
0
40
1
40
1
40
1
10
-27.186148048041353
20
3.8201607130861999
30
0
10
-25.212502340618759
20
3.0322977240733273
30
0
10
-24.50532540957218
20
0.9258122792853094
30
0
0
LINE
5
109
100
AcDbEntity
8
0
100
AcDbLine
10
-24.50532540957218
20
0.9258122792853094
30
0
11
-25.145806247366536
21
0.58285510317670353
31
0
0
SPLINE
5
110
100
AcDbEntity
8
0
100
AcDbSpline
70
0
71
2
72
6
73
3
74
0
42
0.000000001
43
0.0000000001
44
0.0000000001
40
0
40
0
40
0
40
1
40
1
40
1
10
-25.145806247366536
20
0.58285510317670353
30
0
10
-25.87329258096004
20
3.2677890450690859
30
0
10
-28.586259281313005
20
3.5586427244514822
30
0
0
LINE
5
111
100
AcDbEntity
8
0
100
AcDbLine
10
-28.586259281313005
20
3.5586427244514822
30
0
11
-29.997001989202559
21
3.70988664027182
31
0
0
SPLINE
5
112
100
AcDbEntity
8
0
100
AcDbSpline
70
0
71
2
72
6
73
3
74
0
42
0.000000001
43
0.0000000001
44
0.0000000001
40
0
40
0
40
0
40
1
40
1
40
1
10
-23.245688374343882
20
9.8765369493382185
30
0
10
-23.649884630421333
20
8.6595004136806324
30
0
10
-24.693314372993498
20
8.1147715372059146
30
0
0
LINE
5
113
100
AcDbEntity
8
0
100
AcDbLine
10
-24.693314372993498
20
8.1147715372059146
30
0
11
-25.021719860145097
21
8.5975971858615132
31
0
0
SPLINE
5
114
100
AcDbEntity
8
0
100
AcDbSpline
70
0
71
2
72
6
73
3
74
0
42
0.000000001
43
0.0000000001
44
0.0000000001
40
0
40
0
40
0
40
1
40
1
40
1
10
-25.021719860145101
20
8.5975971858615114
30
0
10
-24.116267825356587
20
9.0731479411296743
30
0
10
-23.81536520706986
20
10.065735248826808
30
0
0
LINE
5
115
100
AcDbEntity
8
0
100
AcDbLine
10
-23.81536520706986
20
10.065735248826808
30
0
11
-23.342369740147596
21
11.489926482143208
31
0
0
LINE
5
116
100
AcDbEntity
8
0
100
AcDbLine
10
-23.342369740147593
20
11.489926482143208
30
0
11
-22.772692907421614
21
11.300728182654616
31
0
0
LINE
5
117
100
AcDbEntity
8
0
100
AcDbLine
10
-22.772692907421614
20
11.300728182654618
30
0
11
-23.245688374343878
21
9.8765369493382202
31
0
0
SPLINE
5
118
100
AcDbEntity
8
0
100
AcDbSpline
70
0
71
2
72
6
73
3
74
0
42
0.000000001
43
0.0000000001
44
0.0000000001
40
0
40
0
40
0
40
1
40
1
40
1
10
-23.983483689332395
20
6.0102397891793053
30
0
10
-25.355791803476503
20
6.3797524459628203
30
0
10
-26.313884684227723
20
6.6979495945511847
30
0
0
SPLINE
5
119
100
AcDbEntity
8
0
100
AcDbSpline
70
0
71
2
72
6
73
3
74
0
42
0.000000001
43
0.0000000001
44
0.0000000001
40
0
40
0
40
0
40
1
40
1
40
1
10
-26.313884684227723
20
6.6979495945511847
30
0
10
-27.479132262637759
20
7.084945953984362
30
0
10
-28.989985720059561
20
7.9029794048163629
30
0
0
LINE
5
120
100
AcDbEntity
8
0
100
AcDbLine
10
-28.989985720059561
20
7.9029794048163629
30
0
11
-28.688515513245328
21
8.3778676558420333
31
0
0
SPLINE
5
121
100
AcDbEntity
8
0
100
AcDbSpline
70
0
71
2
72
6
73
3
74
0
42
0.000000001
43
0.0000000001
44
0.0000000001
40
0
40
0
40
0
40
1
40
1
40
1
10
-28.688515513245328
20
8.3778676558420315
30
0
10
-28.542127406253481
20
8.6455061755607474
30
0
10
-28.446865822974907
20
8.326362787432716
30
0
0
SPLINE
5
122
100
AcDbEntity
8
0
100
AcDbSpline
70
0
71
2
72
6
73
3
74
0
42
0.000000001
43
0.0000000001
44
0.0000000001
40
0
40
0
40
0
40
1
40
1
40
1
10
-28.446865822974907
20
8.326362787432716
30
0
10
-27.03099007237649
20
7.5686234438717568
30
0
10
-26.124686431705669
20
7.2676262858607377
30
0
0
SPLINE
5
123
100
AcDbEntity
8
0
100
AcDbSpline
70
0
71
2
72
6
73
3
74
0
42
0.000000001
43
0.0000000001
44
0.0000000001
40
0
40
0
40
0
40
1
40
1
40
1
10
-26.124686431705669
20
7.2676262858607377
30
0
10
-25.114804876539747
20
6.9322293345611712
30
0
10
-23.837474445735754
20
6.6230108557569078
30
0
0
LINE
5
124
100
AcDbEntity
8
0
100
AcDbLine
10
-23.837474445735754
20
6.6230108557569078
30
0
11
-23.983483689332395
21
6.0102397891793045
31
0
0
SPLINE
5
125
100
AcDbEntity
8
0
100
AcDbSpline
70
0
71
2
72
6
73
3
74
0
42
0.000000001
43
0.0000000001
44
0.0000000001
40
0
40
0
40
0
40
1
40
1
40
1
10
-26.224868854695956
20
12.073490855975917
30
0
10
-26.620559796108637
20
10.968632183135572
30
0
10
-27.032693566973943
20
9.1217193643631909
30
0
0
LINE
5
126
100
AcDbEntity
8
0
100
AcDbLine
10
-27.032693566973943
20
9.1217193643631909
30
0
11
-27.576475921076145
21
9.302317715529643
31
0
0
SPLINE
5
127
100
AcDbEntity
8
0
100
AcDbSpline
70
0
71
2
72
6
73
3
74
0
42
0.000000001
43
0.0000000001
44
0.0000000001
40
0
40
0
40
0
40
1
40
1
40
1
10
-27.576475921076145
20
9.302317715529643
30
0
10
-27.138542493110567
20
11.226913404507656
30
0
10
-26.768651208798158
20
12.254089207142371
30
0
0
LINE
5
128
100
AcDbEntity
8
0
100
AcDbLine
10
-26.768651208798158
20
12.254089207142371
30
0
11
-26.224868854695956
21
12.073490855975917
31
0
0
SPLINE
5
129
100
AcDbEntity
8
0
100
AcDbSpline
70
0
71
2
72
6
73
3
74
0
42
0.000000001
43
0.0000000001
44
0.0000000001
40
0
40
0
40
0
40
1
40
1
40
1
10
-24.658900207232115
20
13.868471131486293
30
0
10
-25.244944633468304
20
14.056863215013848
30
0
10
-26.216239140813258
20
14.505025999321543
30
0
0
LINE
5
130
100
AcDbEntity
8
0
100
AcDbLine
10
-26.216239140813258
20
14.505025999321543
30
0
11
-25.924349607833829
21
14.998093452733372
31
0
0
SPLINE
5
131
100
AcDbEntity
8
0
100
AcDbSpline
70
0
71
2
72
6
73
3
74
0
42
0.000000001
43
0.0000000001
44
0.0000000001
40
0
40
0
40
0
40
1
40
1
40
1
10
-25.924349607833829
20
14.998093452733372
30
0
10
-25.738395662185102
20
15.205088351637118
30
0
10
-25.70871530022859
20
14.93385622019826
30
0
0
SPLINE
5
132
100
AcDbEntity
8
0
100
AcDbSpline
70
0
71
2
72
6
73
3
74
0
42
0.000000001
43
0.0000000001
44
0.0000000001
40
0
40
0
40
0
40
1
40
1
40
1
10
-25.70871530022859
20
14.93385622019826
30
0
10
-25.333044969443122
20
14.711464260135934
30
0
10
-24.545266112912646
20
14.435355491847533
30
0
0
LINE
5
133
100
AcDbEntity
8
0
100
AcDbLine
10
-24.545266112912646
20
14.435355491847533
30
0
11
-24.272920425249612
21
15.859516485792817
31
0
0
LINE
5
134
100
AcDbEntity
8
0
100
AcDbLine
10
-24.272920425249612
20
15.859516485792815
30
0
11
-25.325173888989333
21
16.545852531354274
31
0
0
LINE
5
135
100
AcDbEntity
8
0
100
AcDbLine
10
-25.325173888989333
20
16.545852531354278
30
0
11
-25.061083445903947
21
16.991961033133581
31
0
0
SPLINE
5
136
100
AcDbEntity
8
0
100
AcDbSpline
70
0
71
2
72
6
73
3
74
0
42
0.000000001
43
0.0000000001
44
0.0000000001
40
0
40
0
40
0
40
1
40
1
40
1
10
-25.061083445903943
20
16.991961033133581
30
0
10
-24.861229955308197
20
17.222435407853588
30
0
10
-24.845449214207697
20
16.927723672371002
30
0
0
LINE
5
137
100
AcDbEntity
8
0
100
AcDbLine
10
-24.845449214207697
20
16.927723672371002
30
0
11
-24.088848084027305
21
16.384702491358464
31
0
0
SPLINE
5
138
100
AcDbEntity
8
0
100
AcDbSpline
70
0
71
2
72
6
73
3
74
0
42
0.000000001
43
0.0000000001
44
0.0000000001
40
0
40
0
40
0
40
1
40
1
40
1
10
-24.088848084027305
20
16.384702491358464
30
0
10
-24.010711178317706
20
16.623816198870969
30
0
10
-23.885615729248517
20
16.835130711852493
30
0
0
SPLINE
5
139
100
AcDbEntity
8
0
100
AcDbSpline
70
0
71
2
72
6
73
3
74
0
42
0.000000001
43
0.0000000001
44
0.0000000001
40
0
40
0
40
0
40
1
40
1
40
1
10
-23.885615729248517
20
16.835130711852493
30
0
10
-23.482530140328926
20
17.516033458884525
30
0
10
-22.921847022062416
20
17.659731642283482
30
0
0
SPLINE
5
140
100
AcDbEntity
8
0
100
AcDbSpline
70
0
71
2
72
6
73
3
74
0
42
0.000000001
43
0.0000000001
44
0.0000000001
40
0
40
0
40
0
40
1
40
1
40
1
10
-22.921847022062416
20
17.659731642283482
30
0
10
-22.323784322941684
20
17.813010117643561
30
0
10
-21.736799479174699
20
17.465522708512051
30
0
0
SPLINE
5
141
100
AcDbEntity
8
0
100
AcDbSpline
70
0
71
2
72
6
73
3
74
0
42
0.000000001
43
0.0000000001
44
0.0000000001
40
0
40
0
40
0
40
1
40
1
40
1
10
-21.736799479174699
20
17.465522708512051
30
0
10
-21.173293854769028
20
17.131934692509564
30
0
10
-21.058334846430967
20
16.683387924623958
30
0
0
SPLINE
5
142
100
AcDbEntity
8
0
100
AcDbSpline
70
0
71
2
72
6
73
3
74
0
42
0.000000001
43
0.0000000001
44
0.0000000001
40
0
40
0
40
0
40
1
40
1
40
1
10
-21.058334846430967
20
16.683387924623958
30
0
10
-20.914636558395067
20
16.122704398084501
30
0
10
-21.248224422579561
20
15.559199030133774
30
0
0
SPLINE
5
143
100
AcDbEntity
8
0
100
AcDbSpline
70
0
71
2
72
6
73
3
74
0
42
0.000000001
43
0.0000000001
44
0.0000000001
40
0
40
0
40
0
40
1
40
1
40
1
10
-21.248224422579561
20
15.559199030133774
30
0
10
-21.693008494522211
20
14.807858112107901
30
0
10
-22.356248896027324
20
14.598040858883
30
0
0
LINE
5
144
100
AcDbEntity
8
0
100
AcDbLine
10
-22.356248896027324
20
14.598040858883
30
0
11
-22.677261796919449
21
15.073446071404852
31
0
0
SPLINE
5
145
100
AcDbEntity
8
0
100
AcDbSpline
70
0
71
2
72
6
73
3
74
0
42
0.000000001
43
0.0000000001
44
0.0000000001
40
0
40
0
40
0
40
1
40
1
40
1
10
-22.677261796919446
20
15.073446071404852
30
0
10
-22.019282015841792
20
15.381500329062693
30
0
10
-21.769090965885425
20
15.804129611480679
30
0
0
SPLINE
5
146
100
AcDbEntity
8
0
100
AcDbSpline
70
0
71
2
72
6
73
3
74
0
42
0.000000001
43
0.0000000001
44
0.0000000001
40
0
40
0
40
0
40
1
40
1
40
1
10
-21.769090965885425
20
15.804129611480679
30
0
10
-21.546698854005104
20
16.17980019872109
30
0
10
-21.642498000604679
20
16.553588925080135
30
0
0
SPLINE
5
147
100
AcDbEntity
8
0
100
AcDbSpline
70
0
71
2
72
6
73
3
74
0
42
0.000000001
43
0.0000000001
44
0.0000000001
40
0
40
0
40
0
40
1
40
1
40
1
10
-21.642498000604679
20
16.553588925080135
30
0
10
-21.69997737654624
20
16.777862233113936
30
0
10
-22.028689012154121
20
16.972455255100222
30
0
0
SPLINE
5
148
100
AcDbEntity
8
0
100
AcDbSpline
70
0
71
2
72
6
73
3
74
0
42
0.000000001
43
0.0000000001
44
0.0000000001
40
0
40
0
40
0
40
1
40
1
40
1
10
-22.028689012154121
20
16.972455255100222
30
0
10
-22.404359342939589
20
17.19484721516255
30
0
10
-22.77814817393558
20
17.099048476835911
30
0
0
SPLINE
5
149
100
AcDbEntity
8
0
100
AcDbSpline
70
0
71
2
72
6
73
3
74
0
42
0.000000001
43
0.0000000001
44
0.0000000001
40
0
40
0
40
0
40
1
40
1
40
1
10
-22.77814817393558
20
17.099048476835911
30
0
10
-23.189316025694851
20
16.993669807640035
30
0
10
-23.439507227469214
20
16.571040268767106
30
0
0
SPLINE
5
150
100
AcDbEntity
8
0
100
AcDbSpline
70
0
71
2
72
6
73
3
74
0
42
0.000000001
43
0.0000000001
44
0.0000000001
40
0
40
0
40
0
40
1
40
1
40
1
10
-23.439507227469214
20
16.571040268767106
30
0
10
-23.717497215501623
20
16.10145229117154
30
0
10
-23.807651909913826
20
15.520668257635808
30
0
0
LINE
5
151
100
AcDbEntity
8
0
100
AcDbLine
10
-23.807651909913826
20
15.520668257635808
30
0
11
-24.006180562399976
21
14.274762626441486
31
0
0
SPLINE
5
152
100
AcDbEntity
8
0
100
AcDbSpline
70
0
71
2
72
6
73
3
74
0
42
0.000000001
43
0.0000000001
44
0.0000000001
40
0
40
0
40
0
40
1
40
1
40
1
10
-24.006180562399976
20
14.274762626441486
30
0
10
-22.243728258432508
20
13.770445047846884
30
0
10
-20.637933189371221
20
13.64423591432605
30
0
0
LINE
5
153
100
AcDbEntity
8
0
100
AcDbLine
10
-20.637933189371221
20
13.64423591432605
30
0
11
-20.746306890990226
21
12.979114164849461
31
0
0
SPLINE
5
154
100
AcDbEntity
8
0
100
AcDbSpline
70
0
71
2
72
6
73
3
74
0
42
0.000000001
43
0.0000000001
44
0.0000000001
40
0
40
0
40
0
40
1
40
1
40
1
10
-20.746306890990223
20
12.979114164849461
30
0
10
-22.333882952844711
20
13.189661014311156
30
0
10
-24.096335513267128
20
13.693978744723754
30
0
0
LINE
5
155
100
AcDbEntity
8
0
100
AcDbLine
10
-24.096335513267128
20
13.693978744723754
30
0
11
-24.293923567676536
21
12.288977507880007
31
0
0
LINE
5
156
100
AcDbEntity
8
0
100
AcDbLine
10
-24.293923567676536
20
12.288977507880007
30
0
11
-24.91640602730358
21
12.308694127468975
31
0
0
LINE
5
157
100
AcDbEntity
8
0
100
AcDbLine
10
-24.91640602730358
20
12.308694127468975
30
0
11
-24.658900207232115
21
13.868471131486293
31
0
0
SPLINE
5
158
100
AcDbEntity
8
0
100
AcDbSpline
70
0
71
2
72
6
73
3
74
0
42
0.000000001
43
0.0000000001
44
0.0000000001
40
0
40
0
40
0
40
1
40
1
40
1
10
-20.774041874163718
20
19.475643057617379
30
0
10
-21.475256785915349
20
18.600162754653592
30
0
10
-22.217890074978293
20
17.800374501102795
30
0
0
LINE
5
159
100
AcDbEntity
8
0
100
AcDbLine
10
-22.217890074978293
20
17.800374501102795
30
0
11
-22.729179152896997
21
18.051722870944186
31
0
0
SPLINE
5
160
100
AcDbEntity
8
0
100
AcDbSpline
70
0
71
2
72
6
73
3
74
0
42
0.000000001
43
0.0000000001
44
0.0000000001
40
0
40
0
40
0
40
1
40
1
40
1
10
-22.729179152896997
20
18.051722870944186
30
0
10
-21.819453401044289
20
19.031463452197329
30
0
10
-21.302468132292411
20
19.668436254063401
30
0
0
SPLINE
5
161
100
AcDbEntity
8
0
100
AcDbSpline
70
0
71
2
72
6
73
3
74
0
42
0.000000001
43
0.0000000001
44
0.0000000001
40
0
40
0
40
0
40
1
40
1
40
1
10
-21.302468132292411
20
19.668436254063401
30
0
10
-22.047978141668438
20
19.988332650573824
30
0
10
-22.602114450198147
20
20.353933758097966
30
0
0
LINE
5
162
100
AcDbEntity
8
0
100
AcDbLine
10
-22.602114450198147
20
20.353933758097966
30
0
11
-22.193666162759563
21
20.79381727434663
31
0
0
SPLINE
5
163
100
AcDbEntity
8
0
100
AcDbSpline
70
0
71
2
72
6
73
3
74
0
42
0.000000001
43
0.0000000001
44
0.0000000001
40
0
40
0
40
0
40
1
40
1
40
1
10
-22.193666162759563
20
20.79381727434663
30
0
10
-21.986584008261545
20
20.936637983521216
30
0
10
-21.996576424748831
20
20.685279466281429
30
0
0
SPLINE
5
164
100
AcDbEntity
8
0
100
AcDbSpline
70
0
71
2
72
6
73
3
74
0
42
0.000000001
43
0.0000000001
44
0.0000000001
40
0
40
0
40
0
40
1
40
1
40
1
10
-21.996576424748831
20
20.685279466281429
30
0
10
-21.542413965265578
20
20.412507814563909
30
0
10
-20.934009064686098
20
20.145451459045066
30
0
0
SPLINE
5
165
100
AcDbEntity
8
0
100
AcDbSpline
70
0
71
2
72
6
73
3
74
0
42
0.000000001
43
0.0000000001
44
0.0000000001
40
0
40
0
40
0
40
1
40
1
40
1
10
-20.934009064686098
20
20.145451459045066
30
0
10
-20.344188992936818
20
20.900963689136081
30
0
10
-20.00001173665617
20
21.512226331404541
30
0
0
LINE
5
166
100
AcDbEntity
8
0
100
AcDbLine
10
-20.00001173665617
20
21.512226331404541
30
0
11
-19.467298858190532
21
21.2037515732261
31
0
0
SPLINE
5
167
100
AcDbEntity
8
0
100
AcDbSpline
70
0
71
2
72
6
73
3
74
0
42
0.000000001
43
0.0000000001
44
0.0000000001
40
0
40
0
40
0
40
1
40
1
40
1
10
-19.467298858190535
20
21.2037515732261
30
0
10
-19.925729218735057
20
20.549641634043127
30
0
10
-20.405583024950595
20
19.952658465385284
30
0
0
SPLINE
5
168
100
AcDbEntity
8
0
100
AcDbSpline
70
0
71
2
72
6
73
3
74
0
42
0.000000001
43
0.0000000001
44
0.0000000001
40
0
40
0
40
0
40
1
40
1
40
1
10
-20.405583024950595
20
19.952658465385284
30
0
10
-19.274467568013581
20
19.647050917730265
30
0
10
-17.953416874712712
20
19.946990731751974
30
0
0
LINE
5
169
100
AcDbEntity
8
0
100
AcDbLine
10
-17.953416874712712
20
19.946990731751974
30
0
11
-17.871999666386337
21
19.31288503121273
31
0
0
SPLINE
5
170
100
AcDbEntity
8
0
100
AcDbSpline
70
0
71
2
72
6
73
3
74
0
42
0.000000001
43
0.0000000001
44
0.0000000001
40
0
40
0
40
0
40
1
40
1
40
1
10
-17.871999666386337
20
19.31288503121273
30
0
10
-18.898845403498704
20
18.888700086405379
30
0
10
-19.567215457443993
20
18.168890557202811
30
0
0
SPLINE
5
171
100
AcDbEntity
8
0
100
AcDbSpline
70
0
71
2
72
6
73
3
74
0
42
0.000000001
43
0.0000000001
44
0.0000000001
40
0
40
0
40
0
40
1
40
1
40
1
10
-19.567215457443993
20
18.168890557202811
30
0
10
-20.179887736512185
20
17.509065446624703
30
0
10
-20.161312477909547
20
17.007778429527825
30
0
0
SPLINE
5
172
100
AcDbEntity
8
0
100
AcDbSpline
70
0
71
2
72
6
73
3
74
0
42
0.000000001
43
0.0000000001
44
0.0000000001
40
0
40
0
40
0
40
1
40
1
40
1
10
-20.161312477909547
20
17.007778429527825
30
0
10
-20.15273923723565
20
16.776415306062994
30
0
10
-19.932797206119833
20
16.572190908860904
30
0
0
SPLINE
5
173
100
AcDbEntity
8
0
100
AcDbSpline
70
0
71
2
72
6
73
3
74
0
42
0.000000001
43
0.0000000001
44
0.0000000001
40
0
40
0
40
0
40
1
40
1
40
1
10
-19.932797206119833
20
16.572190908860904
30
0
10
-19.732850381599683
20
16.386532808392616
30
0
10
-19.385805376616126
20
16.399392575813817
30
0
0
SPLINE
5
174
100
AcDbEntity
8
0
100
AcDbSpline
70
0
71
2
72
6
73
3
74
0
42
0.000000001
43
0.0000000001
44
0.0000000001
40
0
40
0
40
0
40
1
40
1
40
1
10
-19.385805376616126
20
16.399392575813817
30
0
10
-18.845957807745229
20
16.419396814457542
30
0
10
-17.880534610543066
20
17.459121459446223
30
0
0
LINE
5
175
100
AcDbEntity
8
0
100
AcDbLine
10
-17.880534610543066
20
17.459121459446223
30
0
11
-17.23073065054534
21
18.158936000446314
31
0
0
LINE
5
176
100
AcDbEntity
8
0
100
AcDbLine
10
-17.23073065054534
20
18.158936000446314
30
0
11
-16.883676075334225
21
17.650514199354536
31
0
0
LINE
5
177
100
AcDbEntity
8
0
100
AcDbLine
10
-16.883676075334225
20
17.650514199354536
30
0
11
-17.589177708815924
21
16.890715348926577
31
0
0
SPLINE
5
178
100
AcDbEntity
8
0
100
AcDbSpline
70
0
71
2
72
6
73
3
74
0
42
0.000000001
43
0.0000000001
44
0.0000000001
40
0
40
0
40
0
40
1
40
1
40
1
10
-17.589177708815924
20
16.890715348926577
30
0
10
-18.554600906018088
20
15.850990703937896
30
0
10
-19.364372157931314
20
15.820984455168901
30
0
0
SPLINE
5
179
100
AcDbEntity
8
0
100
AcDbSpline
70
0
71
2
72
6
73
3
74
0
42
0.000000001
43
0.0000000001
44
0.0000000001
40
0
40
0
40
0
40
1
40
1
40
1
10
-19.364372157931314
20
15.820984455168901
30
0
10
-19.942780337076265
20
15.799551392475504
30
0
10
-20.322679653093655
20
16.152302107823235
30
0
0
SPLINE
5
180
100
AcDbEntity
8
0
100
AcDbSpline
70
0
71
2
72
6
73
3
74
0
42
0.000000001
43
0.0000000001
44
0.0000000001
40
0
40
0
40
0
40
1
40
1
40
1
10
-20.322679653093655
20
16.152302107823235
30
0
10
-20.702579187504227
20
16.505053025957203
30
0
10
-20.718296856507564
20
16.929218978497385
30
0
0
SPLINE
5
181
100
AcDbEntity
8
0
100
AcDbSpline
70
0
71
2
72
6
73
3
74
0
42
0.000000001
43
0.0000000001
44
0.0000000001
40
0
40
0
40
0
40
1
40
1
40
1
10
-20.718296856507564
20
16.929218978497385
30
0
10
-20.744016477136139
20
17.623308458088481
30
0
10
-20.03851484365444
20
18.383107308516443
30
0
0
SPLINE
5
182
100
AcDbEntity
8
0
100
AcDbSpline
70
0
71
2
72
6
73
3
74
0
42
0.000000001
43
0.0000000001
44
0.0000000001
40
0
40
0
40
0
40
1
40
1
40
1
10
-20.03851484365444
20
18.383107308516443
30
0
10
-19.33301331156586
20
19.142906049747811
30
0
10
-19.141639727719607
20
19.188611072744358
30
0
0
SPLINE
5
183
100
AcDbEntity
8
0
100
AcDbSpline
70
0
71
2
72
6
73
3
74
0
42
0.000000001
43
0.0000000001
44
0.0000000001
40
0
40
0
40
0
40
1
40
1
40
1
10
-19.141639727719607
20
19.188611072744358
30
0
10
-20.187060622041496
20
19.265713254230473
30
0
10
-20.774041874163718
20
19.475643057617379
30
0
0
SPLINE
5
184
100
AcDbEntity
8
0
100
AcDbSpline
70
0
71
2
72
6
73
3
74
0
42
0.000000001
43
0.0000000001
44
0.0000000001
40
0
40
0
40
0
40
1
40
1
40
1
10
-12.751620965272128
20
22.595251125349062
30
0
10
-12.981076139454078
20
20.872334298997359
30
0
10
-14.100392343630908
20
20.092380655082593
30
0
0
SPLINE
5
185
100
AcDbEntity
8
0
100
AcDbSpline
70
0
71
2
72
6
73
3
74
0
42
0.000000001
43
0.0000000001
44
0.0000000001
40
0
40
0
40
0
40
1
40
1
40
1
10
-14.100392343630908
20
20.092380655082593
30
0
10
-14.906299785683759
20
19.530814188215064
30
0
10
-15.552051264077898
20
19.646197196396258
30
0
0
SPLINE
5
186
100
AcDbEntity
8
0
100
AcDbSpline
70
0
71
2
72
6
73
3
74
0
42
0.000000001
43
0.0000000001
44
0.0000000001
40
0
40
0
40
0
40
1
40
1
40
1
10
-15.552051264077898
20
19.646197196396258
30
0
10
-16.045861275218662
20
19.734431435376123
30
0
10
-16.623026862671342
20
20.562725269976916
30
0
0
LINE
5
187
100
AcDbEntity
8
0
100
AcDbLine
10
-16.623026862671342
20
20.562725269976916
30
0
11
-18.713302376198097
21
23.562492335287551
31
0
0
LINE
5
188
100
AcDbEntity
8
0
100
AcDbLine
10
-18.713302376198101
20
23.562492335287551
30
0
11
-18.243189599785719
21
23.890072845285957
31
0
0
SPLINE
5
189
100
AcDbEntity
8
0
100
AcDbSpline
70
0
71
2
72
6
73
3
74
0
42
0.000000001
43
0.0000000001
44
0.0000000001
40
0
40
0
40
0
40
1
40
1
40
1
10
-18.243189599785719
20
23.890072845285957
30
0
10
-18.010514559231126
20
23.98569163431155
30
0
10
-18.073624264905966
20
23.742180020206835
30
0
0
LINE
5
190
100
AcDbEntity
8
0
100
AcDbLine
10
-18.073624264905966
20
23.742180020206835
30
0
11
-16.108141545678805
21
20.921503850763994
31
0
0
SPLINE
5
191
100
AcDbEntity
8
0
100
AcDbSpline
70
0
71
2
72
6
73
3
74
0
42
0.000000001
43
0.0000000001
44
0.0000000001
40
0
40
0
40
0
40
1
40
1
40
1
10
-16.108141545678805
20
20.921503850763994
30
0
10
-15.718164723721422
20
20.361845748675577
30
0
10
-15.376296398339445
20
20.300760853119311
30
0
0
SPLINE
5
192
100
AcDbEntity
8
0
100
AcDbSpline
70
0
71
2
72
6
73
3
74
0
42
0.000000001
43
0.0000000001
44
0.0000000001
40
0
40
0
40
0
40
1
40
1
40
1
10
-15.376296398339445
20
20.300760853119311
30
0
10
-14.958456950443725
20
20.226100754224387
30
0
10
-14.46595802599913
20
20.569280214426307
30
0
0
SPLINE
5
193
100
AcDbEntity
8
0
100
AcDbSpline
70
0
71
2
72
6
73
3
74
0
42
0.000000001
43
0.0000000001
44
0.0000000001
40
0
40
0
40
0
40
1
40
1
40
1
10
-14.46595802599913
20
20.569280214426307
30
0
10
-13.59289140630246
20
21.177644043049298
30
0
10
-13.383797899740697
20
22.786605159796444
30
0
0
LINE
5
194
100
AcDbEntity
8
0
100
AcDbLine
10
-13.383797899740697
20
22.786605159796444
30
0
11
-12.751620965272128
21
22.595251125349058
31
0
0
SPLINE
5
195
100
AcDbEntity
8
0
100
AcDbSpline
70
0
71
2
72
6
73
3
74
0
42
0.000000001
43
0.0000000001
44
0.0000000001
40
0
40
0
40
0
40
1
40
1
40
1
10
-12.51001126081859
20
24.423967212045152
30
0
10
-12.625431605416997
20
24.701023283303847
30
0
10
-12.453303157676539
20
25.068312679911347
30
0
0
SPLINE
5
196
100
AcDbEntity
8
0
100
AcDbSpline
70
0
71
2
72
6
73
3
74
0
42
0.000000001
43
0.0000000001
44
0.0000000001
40
0
40
0
40
0
40
1
40
1
40
1
10
-12.453303157676539
20
25.068312679911347
30
0
10
-11.456212320464303
20
27.286743231645612
30
0
10
-11.302936099501594
20
28.266899348250725
30
0
0
LINE
5
197
100
AcDbEntity
8
0
100
AcDbLine
10
-11.302936099501594
20
28.266899348250725
30
0
11
-10.702673319814746
21
28.103152110075108
31
0
0
SPLINE
5
198
100
AcDbEntity
8
0
100
AcDbSpline
70
0
71
2
72
6
73
3
74
0
42
0.000000001
43
0.0000000001
44
0.0000000001
40
0
40
0
40
0
40
1
40
1
40
1
10
-10.702673319814746
20
28.103152110075108
30
0
10
-10.37106362911954
20
27.945718459117785
30
0
10
-10.744665747563664
20
27.849193290542352
30
0
0
SPLINE
5
199
100
AcDbEntity
8
0
100
AcDbSpline
70
0
71
2
72
6
73
3
74
0
42
0.000000001
43
0.0000000001
44
0.0000000001
40
0
40
0
40
0
40
1
40
1
40
1
10
-10.744665747563664
20
27.849193290542352
30
0
10
-10.891628931518675
20
27.137690033713554
30
0
10
-11.874025636766037
20
24.954939233781555
30
0
0
SPLINE
5
200
100
AcDbEntity
8
0
100
AcDbSpline
70
0
71
2
72
6
73
3
74
0
42
0.000000001
43
0.0000000001
44
0.0000000001
40
0
40
0
40
0
40
1
40
1
40
1
10
-11.874025636766037
20
24.954939233781555
30
0
10
-11.932802279233201
20
24.812220501677793
30
0
10
-11.901324024271391
20
24.736659804990019
30
0
0
SPLINE
5
201
100
AcDbEntity
8
0
100
AcDbSpline
70
0
71
2
72
6
73
3
74
0
42
0.000000001
43
0.0000000001
44
0.0000000001
40
0
40
0
40
0
40
1
40
1
40
1
10
-11.901324024271391
20
24.736659804990019
30
0
10
-11.838367514347773
20
24.585538411614479
30
0
10
-11.706141572100503
20
24.551948759745002
30
0
0
SPLINE
5
202
100
AcDbEntity
8
0
100
AcDbSpline
70
0
71
2
72
6
73
3
74
0
42
0.000000001
43
0.0000000001
44
0.0000000001
40
0
40
0
40
0
40
1
40
1
40
1
10
-11.706141572100503
20
24.551948759745002
30
0
10
-9.8339933740813166
20
24.03131909075254
30
0
10
-8.5684210157016611
20
23.405783467750247
30
0
0
LINE
5
203
100
AcDbEntity
8
0
100
AcDbLine
10
-8.5684210157016611
20
23.405783467750247
30
0
11
-8.83291571194742
21
22.763549093034502
31
0
0
SPLINE
5
204
100
AcDbEntity
8
0
100
AcDbSpline
70
0
71
2
72
6
73
3
74
0
42
0.000000001
43
0.0000000001
44
0.0000000001
40
0
40
0
40
0
40
1
40
1
40
1
10
-8.83291571194742
20
22.763549093034502
30
0
10
-10.144660503085095
20
23.428965964679517
30
0
10
-11.890874275381442
20
24.002059686148236
30
0
0
SPLINE
5
205
100
AcDbEntity
8
0
100
AcDbSpline
70
0
71
2
72
6
73
3
74
0
42
0.000000001
43
0.0000000001
44
0.0000000001
40
0
40
0
40
0
40
1
40
1
40
1
10
-11.890874275381442
20
24.002059686148236
30
0
10
-12.405083706076676
20
24.172098131384146
30
0
10
-12.51001126081859
20
24.423967212045152
30
0
0
SPLINE
5
206
100
AcDbEntity
8
0
100
AcDbSpline
70
0
71
2
72
6
73
3
74
0
42
0.000000001
43
0.0000000001
44
0.0000000001
40
0
40
0
40
0
40
1
40
1
40
1
10
-4.9883052481982197
20
28.035304511419625
30
0
10
-6.0740201841245787
20
27.753540086328684
30
0
10
-7.1476204822845038
20
27.557204016455596
30
0
0
LINE
5
207
100
AcDbEntity
8
0
100
AcDbLine
10
-7.1476204822845038
20
27.557204016455596
30
0
11
-7.4068285500604771
21
28.064553700421921
31
0
0
SPLINE
5
208
100
AcDbEntity
8
0
100
AcDbSpline
70
0
71
2
72
6
73
3
74
0
42
0.000000001
43
0.0000000001
44
0.0000000001
40
0
40
0
40
0
40
1
40
1
40
1
10
-7.4068285500604771
20
28.064553700421921
30
0
10
-6.0916682242081235
20
28.305065378812305
30
0
10
-5.2962850642762538
20
28.50599757464056
30
0
0
SPLINE
5
209
100
AcDbEntity
8
0
100
AcDbSpline
70
0
71
2
72
6
73
3
74
0
42
0.000000001
43
0.0000000001
44
0.0000000001
40
0
40
0
40
0
40
1
40
1
40
1
10
-5.2962850642762538
20
28.50599757464056
30
0
10
-5.7021202210345399
20
29.208433838026199
30
0
10
-5.9272819390727935
20
29.832960393893817
30
0
0
LINE
5
210
100
AcDbEntity
8
0
100
AcDbLine
10
-5.9272819390727935
20
29.832960393893817
30
0
11
-5.3368018062332272
21
29.940945226627708
31
0
0
SPLINE
5
211
100
AcDbEntity
8
0
100
AcDbSpline
70
0
71
2
72
6
73
3
74
0
42
0.000000001
43
0.0000000001
44
0.0000000001
40
0
40
0
40
0
40
1
40
1
40
1
10
-5.3368018062332272
20
29.940945226627711
30
0
10
-5.0854247240140138
20
29.931440690046184
30
0
10
-5.2438545754634047
20
29.736041266439148
30
0
0
SPLINE
5
212
100
AcDbEntity
8
0
100
AcDbSpline
70
0
71
2
72
6
73
3
74
0
42
0.000000001
43
0.0000000001
44
0.0000000001
40
0
40
0
40
0
40
1
40
1
40
1
10
-5.2438545754634047
20
29.736041266439148
30
0
10
-5.0432349440646096
20
29.245715173841582
30
0
10
-4.7156215658995393
20
28.667662326327271
30
0
0
SPLINE
5
213
100
AcDbEntity
8
0
100
AcDbSpline
70
0
71
2
72
6
73
3
74
0
42
0.000000001
43
0.0000000001
44
0.0000000001
40
0
40
0
40
0
40
1
40
1
40
1
10
-4.7156215658995393
20
28.667662326327271
30
0
10
-3.7909464529939108
20
28.919976381481529
30
0
10
-3.1493969322893967
20
29.203726648543427
30
0
0
LINE
5
214
100
AcDbEntity
8
0
100
AcDbLine
10
-3.1493969322893967
20
29.203726648543427
30
0
11
-2.9072119026406513
21
28.637788402150388
31
0
0
SPLINE
5
215
100
AcDbEntity
8
0
100
AcDbSpline
70
0
71
2
72
6
73
3
74
0
42
0.000000001
43
0.0000000001
44
0.0000000001
40
0
40
0
40
0
40
1
40
1
40
1
10
-2.9072119026406504
20
28.637788402150388
30
0
10
-3.6659386286169902
20
28.388084651084942
30
0
10
-4.4076418034337701
20
28.196969556267671
30
0
0
SPLINE
5
216
100
AcDbEntity
8
0
100
AcDbSpline
70
0
71
2
72
6
73
3
74
0
42
0.000000001
43
0.0000000001
44
0.0000000001
40
0
40
0
40
0
40
1
40
1
40
1
10
-4.4076418034337701
20
28.196969556267671
30
0
10
-3.6843224405965902
20
27.275217285074177
30
0
10
-2.4464469570475744
20
26.724941796310262
30
0
0
LINE
5
217
100
AcDbEntity
8
0
100
AcDbLine
10
-2.4464469570475744
20
26.724941796310262
30
0
11
-2.7606959303716754
21
26.168195548875421
31
0
0
SPLINE
5
218
100
AcDbEntity
8
0
100
AcDbSpline
70
0
71
2
72
6
73
3
74
0
42
0.000000001
43
0.0000000001
44
0.0000000001
40
0
40
0
40
0
40
1
40
1
40
1
10
-2.7606959303716749
20
26.168195548875417
30
0
10
-3.8372189603082347
20
26.442864806789856
30
0
10
-4.8034593642392833
20
26.266162319108407
30
0
0
SPLINE
5
219
100
AcDbEntity
8
0
100
AcDbSpline
70
0
71
2
72
6
73
3
74
0
42
0.000000001
43
0.0000000001
44
0.0000000001
40
0
40
0
40
0
40
1
40
1
40
1
10
-4.8034593642392833
20
26.266162319108407
30
0
10
-5.6891793436276341
20
26.104185110216768
30
0
10
-5.9742903112515737
20
25.691455840740296
30
0
0
SPLINE
5
220
100
AcDbEntity
8
0
100
AcDbSpline
70
0
71
2
72
6
73
3
74
0
42
0.000000001
43
0.0000000001
44
0.0000000001
40
0
40
0
40
0
40
1
40
1
40
1
10
-5.9742903112515737
20
25.691455840740296
30
0
10
-6.1058798841101511
20
25.500965474396082
30
0
10
-6.0518874007278729
20
25.205725041524634
30
0
0
SPLINE
5
221
100
AcDbEntity
8
0
100
AcDbSpline
70
0
71
2
72
6
73
3
74
0
42
0.000000001
43
0.0000000001
44
0.0000000001
40
0
40
0
40
0
40
1
40
1
40
1
10
-6.0518874007278729
20
25.205725041524634
30
0
10
-6.002803441898017
20
24.937325287629861
30
0
10
-5.7170676921887598
20
24.739940661986793
30
0
0
SPLINE
5
222
100
AcDbEntity
8
0
100
AcDbSpline
70
0
71
2
72
6
73
3
74
0
42
0.000000001
43
0.0000000001
44
0.0000000001
40
0
40
0
40
0
40
1
40
1
40
1
10
-5.7170676921887598
20
24.739940661986793
30
0
10
-5.2725899395365214
20
24.432898165617402
30
0
10
-3.8769096655286361
20
24.688135035677657
30
0
0
LINE
5
223
100
AcDbEntity
8
0
100
AcDbLine
10
-3.8769096655286361
20
24.688135035677657
30
0
11
-2.9375096474129307
21
24.859929052418948
31
0
0
LINE
5
224
100
AcDbEntity
8
0
100
AcDbLine
10
-2.9375096474129303
20
24.859929052418952
30
0
11
-2.9637246648202908
21
24.244906793583787
31
0
0
LINE
5
225
100
AcDbEntity
8
0
100
AcDbLine
10
-2.9637246648202908
20
24.244906793583787
30
0
11
-3.9836449608980273
21
24.058387524858823
31
0
0
SPLINE
5
226
100
AcDbEntity
8
0
100
AcDbSpline
70
0
71
2
72
6
73
3
74
0
42
0.000000001
43
0.0000000001
44
0.0000000001
40
0
40
0
40
0
40
1
40
1
40
1
10
-3.9836449608980278
20
24.058387524858823
30
0
10
-5.379325234905914
20
23.803150654798561
30
0
10
-6.0460417173036056
20
24.263714426158785
30
0
0
SPLINE
5
227
100
AcDbEntity
8
0
100
AcDbSpline
70
0
71
2
72
6
73
3
74
0
42
0.000000001
43
0.0000000001
44
0.0000000001
40
0
40
0
40
0
40
1
40
1
40
1
10
-6.0460417173036056
20
24.263714426158785
30
0
10
-6.5222679066474125
20
24.592688611257362
30
0
10
-6.6155275142037624
20
25.102648612715566
30
0
0
SPLINE
5
228
100
AcDbEntity
8
0
100
AcDbSpline
70
0
71
2
72
6
73
3
74
0
42
0.000000001
43
0.0000000001
44
0.0000000001
40
0
40
0
40
0
40
1
40
1
40
1
10
-6.6155275142037624
20
25.102648612715566
30
0
10
-6.7087871753723789
20
25.612608907335101
30
0
10
-6.4675395387226082
20
25.96184146341216
30
0
0
SPLINE
5
229
100
AcDbEntity
8
0
100
AcDbSpline
70
0
71
2
72
6
73
3
74
0
42
0.000000001
43
0.0000000001
44
0.0000000001
40
0
40
0
40
0
40
1
40
1
40
1
10
-6.4675395387226082
20
25.96184146341216
30
0
10
-6.0727706735662101
20
26.533312589250944
30
0
10
-5.0528503774884737
20
26.719831857975912
30
0
0
SPLINE
5
230
100
AcDbEntity
8
0
100
AcDbSpline
70
0
71
2
72
6
73
3
74
0
42
0.000000001
43
0.0000000001
44
0.0000000001
40
0
40
0
40
0
40
1
40
1
40
1
10
-5.0528503774884737
20
26.719831857975912
30
0
10
-4.032930227991403
20
26.906351099894749
30
0
10
-3.8522566963029692
20
26.828441712344187
30
0
0
SPLINE
5
231
100
AcDbEntity
8
0
100
AcDbSpline
70
0
71
2
72
6
73
3
74
0
42
0.000000001
43
0.0000000001
44
0.0000000001
40
0
40
0
40
0
40
1
40
1
40
1
10
-3.8522566963029692
20
26.828441712344187
30
0
10
-4.6436686120349222
20
27.515840266541232
30
0
10
-4.9883052481982197
20
28.035304511419625
30
0
0
SPLINE
5
232
100
AcDbEntity
8
0
100
AcDbSpline
70
0
71
2
72
6
73
3
74
0
42
0.000000001
43
0.0000000001
44
0.0000000001
40
0
40
0
40
0
40
1
40
1
40
1
10
2.8579134202304406
20
27.877817261396508
30
0
10
2.9022757409413513
20
28.395053507347242
30
0
10
2.575032313390007
20
28.405848405890627
30
0
0
SPLINE
5
233
100
AcDbEntity
8
0
100
AcDbSpline
70
0
71
2
72
6
73
3
74
0
42
0.000000001
43
0.0000000001
44
0.0000000001
40
0
40
0
40
0
40
1
40
1
40
1
10
2.575032313390007
20
28.405848405890627
30
0
10
2.1114372591181318
20
28.421141185377522
30
0
10
0.73111337629532147
20
27.128975686512057
30
0
0
LINE
5
234
100
AcDbEntity
8
0
100
AcDbLine
10
0.73111337629532147
20
27.128975686512057
30
0
11
0.64115584585596386
21
24.401945832852295
31
0
0
LINE
5
235
100
AcDbEntity
8
0
100
AcDbLine
10
0.64115584585596352
20
24.401945832852295
30
0
11
0.095749934696252245
21
24.419937336975032
31
0
0
LINE
5
236
100
AcDbEntity
8
0
100
AcDbLine
10
0.095749934696252592
20
24.419937336975032
30
0
11
0.16951510749488147
21
26.656101751446574
31
0
0
LINE
5
237
100
AcDbEntity
8
0
100
AcDbLine
10
0.16951510749488141
20
26.656101751446574
30
0
11
-1.0798545234137871
21
25.195816655405512
31
0
0
LINE
5
238
100
AcDbEntity
8
0
100
AcDbLine
10
-1.0798545234137873
20
25.195816655405512
30
0
11
-1.5017860560758995
21
25.646534826411724
31
0
0
LINE
5
239
100
AcDbEntity
8
0
100
AcDbLine
10
-1.5017860560758991
20
25.646534826411724
30
0
11
-0.36869419808547133
21
26.892255739177685
31
0
0
SPLINE
5
240
100
AcDbEntity
8
0
100
AcDbSpline
70
0
71
2
72
6
73
3
74
0
42
0.000000001
43
0.0000000001
44
0.0000000001
40
0
40
0
40
0
40
1
40
1
40
1
10
-0.36869419808547144
20
26.892255739177678
30
0
10
-0.056126802738218629
20
27.26414460634652
30
0
10
0.20279940093017285
20
27.665103014739366
30
0
0
LINE
5
241
100
AcDbEntity
8
0
100
AcDbLine
10
0.20279940093017285
20
27.665103014739366
30
0
11
0.22438920784259242
21
28.319590167703264
31
0
0
LINE
5
242
100
AcDbEntity
8
0
100
AcDbLine
10
0.22438920784259242
20
28.319590167703264
30
0
11
-0.98899741482059556
21
27.950116893981622
31
0
0
LINE
5
243
100
AcDbEntity
8
0
100
AcDbLine
10
-0.98899741482059556
20
27.950116893981622
30
0
11
-1.133728120784995
21
28.528190641785788
31
0
0
LINE
5
244
100
AcDbEntity
8
0
100
AcDbLine
10
-1.133728120784995
20
28.528190641785788
30
0
11
0.24148113381149861
21
28.837725693946631
31
0
0
LINE
5
245
100
AcDbEntity
8
0
100
AcDbLine
10
0.24148113381149888
20
28.837725693946624
30
0
11
0.29455605820022918
21
30.446672744648207
31
0
0
LINE
5
246
100
AcDbEntity
8
0
100
AcDbLine
10
0.29455605820022907
20
30.446672744648207
30
0
11
0.78542149738845191
21
30.430480387007478
31
0
0
SPLINE
5
247
100
AcDbEntity
8
0
100
AcDbSpline
70
0
71
2
72
6
73
3
74
0
42
0.000000001
43
0.0000000001
44
0.0000000001
40
0
40
0
40
0
40
1
40
1
40
1
10
0.78542149738845191
20
30.430480387007478
30
0
10
1.029054911744292
20
30.367843443267244
30
0
10
0.83276536378058152
20
30.210518756917097
30
0
0
LINE
5
248
100
AcDbEntity
8
0
100
AcDbLine
10
0.83276536378058152
20
30.210518756917097
30
0
11
0.79228449424290071
21
28.983355903599559
31
0
0
LINE
5
249
100
AcDbEntity
8
0
100
AcDbLine
10
0.79228449424290082
20
28.983355903599559
30
0
11
1.0868603854674133
21
28.809838859608682
31
0
0
SPLINE
5
250
100
AcDbEntity
8
0
100
AcDbSpline
70
0
71
2
72
6
73
3
74
0
42
0.000000001
43
0.0000000001
44
0.0000000001
40
0
40
0
40
0
40
1
40
1
40
1
10
1.0868603854674137
20
28.809838859608682
30
0
10
1.328694653341242
20
28.692661443896963
30
0
10
1.0242234417271816
20
28.566205445252844
30
0
0
LINE
5
251
100
AcDbEntity
8
0
100
AcDbLine
10
1.0242234417271816
20
28.566205445252844
30
0
11
0.76169893526911081
21
28.056165795055811
31
0
0
LINE
5
252
100
AcDbEntity
8
0
100
AcDbLine
10
0.76169893526911114
20
28.056165795055811
30
0
11
0.75540190784358641
21
27.865273696363786
31
0
0
SPLINE
5
253
100
AcDbEntity
8
0
100
AcDbSpline
70
0
71
2
72
6
73
3
74
0
42
0.000000001
43
0.0000000001
44
0.0000000001
40
0
40
0
40
0
40
1
40
1
40
1
10
0.75540190784358641
20
27.865273696363786
30
0
10
2.0766871398901889
20
29.022886724816388
30
0
10
2.7311742928540839
20
29.001296917903971
30
0
0
SPLINE
5
254
100
AcDbEntity
8
0
100
AcDbSpline
70
0
71
2
72
6
73
3
74
0
42
0.000000001
43
0.0000000001
44
0.0000000001
40
0
40
0
40
0
40
1
40
1
40
1
10
2.7311742928540839
20
29.001296917903971
30
0
10
3.5492828617324435
20
28.974309671545516
30
0
10
3.4314892944603335
20
27.886196564036283
30
0
0
LINE
5
255
100
AcDbEntity
8
0
100
AcDbLine
10
3.4314892944603335
20
27.886196564036283
30
0
11
3.2258706737458938
21
25.790881647403129
31
0
0
SPLINE
5
256
100
AcDbEntity
8
0
100
AcDbSpline
70
0
71
2
72
6
73
3
74
0
42
0.000000001
43
0.0000000001
44
0.0000000001
40
0
40
0
40
0
40
1
40
1
40
1
10
3.2258706737458942
20
25.790881647403129
30
0
10
3.184207087496485
20
25.355456556201435
30
0
10
3.5387208999641762
20
25.343762079504224
30
0
0
SPLINE
5
257
100
AcDbEntity
8
0
100
AcDbSpline
70
0
71
2
72
6
73
3
74
0
42
0.000000001
43
0.0000000001
44
0.0000000001
40
0
40
0
40
0
40
1
40
1
40
1
10
3.5387208999641762
20
25.343762079504224
30
0
10
3.8932353081542814
20
25.332067583155691
30
0
10
4.0631534536330651
20
25.517562252227336
30
0
0
SPLINE
5
258
100
AcDbEntity
8
0
100
AcDbSpline
70
0
71
2
72
6
73
3
74
0
42
0.000000001
43
0.0000000001
44
0.0000000001
40
0
40
0
40
0
40
1
40
1
40
1
10
4.0631534536330651
20
25.517562252227336
30
0
10
4.3184816425473276
20
25.809439111129137
30
0
10
4.4955963936054699
20
26.213096263809149
30
0
0
LINE
5
259
100
AcDbEntity
8
0
100
AcDbLine
10
4.4955963936054699
20
26.213096263809149
30
0
11
4.9465982866099161
21
25.816019257461242
31
0
0
SPLINE
5
260
100
AcDbEntity
8
0
100
AcDbSpline
70
0
71
2
72
6
73
3
74
0
42
0.000000001
43
0.0000000001
44
0.0000000001
40
0
40
0
40
0
40
1
40
1
40
1
10
4.946598286609917
20
25.816019257461242
30
0
10
4.6568025114775331
20
25.306879512756218
30
0
10
4.4032746506644536
20
25.069542788662069
30
0
0
SPLINE
5
261
100
AcDbEntity
8
0
100
AcDbSpline
70
0
71
2
72
6
73
3
74
0
42
0.000000001
43
0.0000000001
44
0.0000000001
40
0
40
0
40
0
40
1
40
1
40
1
10
4.4032746506644536
20
25.069542788662069
30
0
10
4.0370657657771325
20
24.726723472542908
30
0
10
3.5734710093664637
20
24.742016242204148
30
0
0
SPLINE
5
262
100
AcDbEntity
8
0
100
AcDbSpline
70
0
71
2
72
6
73
3
74
0
42
0.000000001
43
0.0000000001
44
0.0000000001
40
0
40
0
40
0
40
1
40
1
40
1
10
3.5734710093664637
20
24.742016242204148
30
0
10
2.5644697460736703
20
24.775300535639438
30
0
10
2.653194377669835
20
25.809772729679704
30
0
0
LINE
5
263
100
AcDbEntity
8
0
100
AcDbLine
10
2.653194377669835
20
25.809772729679704
30
0
11
2.8579134202304415
21
27.877817261396508
31
0
0
LINE
5
264
100
AcDbEntity
8
0
100
AcDbLine
10
9.4117300502717853
20
23.617310514908418
30
0
11
9.2650655140536085
21
23.035230448173621
31
0
0
LINE
5
265
100
AcDbEntity
8
0
100
AcDbLine
10
9.2650655140536067
20
23.035230448173625
30
0
11
8.1009056695748178
21
23.328559447794049
31
0
0
SPLINE
5
266
100
AcDbEntity
8
0
100
AcDbSpline
70
0
71
2
72
6
73
3
74
0
42
0.000000001
43
0.0000000001
44
0.0000000001
40
0
40
0
40
0
40
1
40
1
40
1
10
8.1009056695748178
20
23.328559447794042
30
0
10
7.0954948291179543
20
23.581889054924396
30
0
10
6.315915366432189
20
24.284799893354165
30
0
0
LINE
5
267
100
AcDbEntity
8
0
100
AcDbLine
10
6.315915366432189
20
24.284799893354165
30
0
11
6.6740370499352988
21
24.701047816684834
31
0
0
SPLINE
5
268
100
AcDbEntity
8
0
100
AcDbSpline
70
0
71
2
72
6
73
3
74
0
42
0.000000001
43
0.0000000001
44
0.0000000001
40
0
40
0
40
0
40
1
40
1
40
1
10
6.674037049935297
20
24.701047816684834
30
0
10
7.2686176290033853
20
24.157302531972199
30
0
10
8.2475702057929965
20
23.910639514528839
30
0
0
LINE
5
269
100
AcDbEntity
8
0
100
AcDbLine
10
8.2475702057929965
20
23.910639514528839
30
0
11
9.4117300502717853
21
23.617310514908418
31
0
0
SPLINE
5
270
100
AcDbEntity
8
0
100
AcDbSpline
70
0
71
2
72
6
73
3
74
0
42
0.000000001
43
0.0000000001
44
0.0000000001
40
0
40
0
40
0
40
1
40
1
40
1
10
6.5404901021290431
20
27.63290360424255
30
0
10
5.5502929314669238
20
25.378124458241661
30
0
10
4.6215515105589846
20
24.148963871207449
30
0
0
LINE
5
271
100
AcDbEntity
8
0
100
AcDbLine
10
4.6215515105589846
20
24.148963871207449
30
0
11
4.0861376788682024
21
24.48083561140087
31
0
0
SPLINE
5
272
100
AcDbEntity
8
0
100
AcDbSpline
70
0
71
2
72
6
73
3
74
0
42
0.000000001
43
0.0000000001
44
0.0000000001
40
0
40
0
40
0
40
1
40
1
40
1
10
4.0861376788682024
20
24.48083561140087
30
0
10
5.2205020715478216
20
25.967703130906603
30
0
10
5.9715351925034543
20
27.71998531243003
30
0
0
SPLINE
5
273
100
AcDbEntity
8
0
100
AcDbSpline
70
0
71
2
72
6
73
3
74
0
42
0.000000001
43
0.0000000001
44
0.0000000001
40
0
40
0
40
0
40
1
40
1
40
1
10
5.9715351925034543
20
27.71998531243003
30
0
10
5.3232058525463719
20
27.827066391463777
30
0
10
4.8205005406894905
20
27.953731167722982
30
0
0
LINE
5
274
100
AcDbEntity
8
0
100
AcDbLine
10
4.8205005406894905
20
27.953731167722982
30
0
11
4.8479992041031714
21
28.509560974851311
31
0
0
SPLINE
5
275
100
AcDbEntity
8
0
100
AcDbSpline
70
0
71
2
72
6
73
3
74
0
42
0.000000001
43
0.0000000001
44
0.0000000001
40
0
40
0
40
0
40
1
40
1
40
1
10
4.8479992041031714
20
28.509560974851311
30
0
10
5.5888280942406423
20
28.322897091653015
30
0
10
6.1842411958540158
20
28.229149119177315
30
0
0
SPLINE
5
276
100
AcDbEntity
8
0
100
AcDbSpline
70
0
71
2
72
6
73
3
74
0
42
0.000000001
43
0.0000000001
44
0.0000000001
40
0
40
0
40
0
40
1
40
1
40
1
10
6.1842411958540158
20
28.229149119177315
30
0
10
6.4967374419901187
20
29.022686442420937
30
0
10
6.7294429970903185
20
29.611224787587147
30
0
0
LINE
5
277
100
AcDbEntity
8
0
100
AcDbLine
10
6.7294429970903185
20
29.611224787587147
30
0
11
7.2319403233745092
21
29.372060954055534
31
0
0
SPLINE
5
278
100
AcDbEntity
8
0
100
AcDbSpline
70
0
71
2
72
6
73
3
74
0
42
0.000000001
43
0.0000000001
44
0.0000000001
40
0
40
0
40
0
40
1
40
1
40
1
10
7.2319403233745083
20
29.372060954055534
30
0
10
7.5029804431855398
20
29.219353931352646
30
0
10
7.2315241343495664
20
29.147062279733085
30
0
0
SPLINE
5
279
100
AcDbEntity
8
0
100
AcDbSpline
70
0
71
2
72
6
73
3
74
0
42
0.000000001
43
0.0000000001
44
0.0000000001
40
0
40
0
40
0
40
1
40
1
40
1
10
7.2315241343495664
20
29.147062279733085
30
0
10
7.0721507745425258
20
28.849563678943468
30
0
10
6.753195960984204
20
28.1420674473978
30
0
0
SPLINE
5
280
100
AcDbEntity
8
0
100
AcDbSpline
70
0
71
2
72
6
73
3
74
0
42
0.000000001
43
0.0000000001
44
0.0000000001
40
0
40
0
40
0
40
1
40
1
40
1
10
6.753195960984204
20
28.1420674473978
30
0
10
7.3817335541450904
20
28.068110932727492
30
0
10
7.9177719944879366
20
28.073737122099821
30
0
0
LINE
5
281
100
AcDbEntity
8
0
100
AcDbLine
10
7.9177719944879366
20
28.073737122099821
30
0
11
7.8902731143311557
21
27.51790736958344
31
0
0
SPLINE
5
282
100
AcDbEntity
8
0
100
AcDbSpline
70
0
71
2
72
6
73
3
74
0
42
0.000000001
43
0.0000000001
44
0.0000000001
40
0
40
0
40
0
40
1
40
1
40
1
10
7.8902731143311566
20
27.517907369583444
30
0
10
7.1690279842807278
20
27.55894701675631
30
0
10
6.5404901021290431
20
27.63290360424255
30
0
0
SPLINE
5
283
100
AcDbEntity
8
0
100
AcDbSpline
70
0
71
2
72
6
73
3
74
0
42
0.000000001
43
0.0000000001
44
0.0000000001
40
0
40
0
40
0
40
1
40
1
40
1
10
9.8327638555573458
20
25.846672122955468
30
0
10
8.2848566581329468
20
26.180416775770379
30
0
10
7.3184048826674282
20
26.029998971903353
30
0
0
LINE
5
284
100
AcDbEntity
8
0
100
AcDbLine
10
7.3184048826674282
20
26.029998971903353
30
0
11
7.2929872354897007
21
26.599161903793714
31
0
0
SPLINE
5
285
100
AcDbEntity
8
0
100
AcDbSpline
70
0
71
2
72
6
73
3
74
0
42
0.000000001
43
0.0000000001
44
0.0000000001
40
0
40
0
40
0
40
1
40
1
40
1
10
7.2929872354897007
20
26.599161903793714
30
0
10
8.544020476900398
20
26.762288531249606
30
0
10
9.8669293254011148
20
26.428960139139107
30
0
0
LINE
5
286
100
AcDbEntity
8
0
100
AcDbLine
10
9.8669293254011148
20
26.428960139139107
30
0
11
9.8327638555573458
21
25.846672122955475
31
0
0
SPLINE
5
287
100
AcDbEntity
8
0
100
AcDbSpline
70
0
71
2
72
6
73
3
74
0
42
0.000000001
43
0.0000000001
44
0.0000000001
40
0
40
0
40
0
40
1
40
1
40
1
10
12.339939451118397
20
21.979325846553131
30
0
10
12.301378411981156
20
22.638137541992542
30
0
10
12.215022018715322
20
22.955142186699597
30
0
0
LINE
5
288
100
AcDbEntity
8
0
100
AcDbLine
10
12.215022018715322
20
22.955142186699597
30
0
11
12.77607080055625
21
23.042222736079484
31
0
0
SPLINE
5
289
100
AcDbEntity
8
0
100
AcDbSpline
70
0
71
2
72
6
73
3
74
0
42
0.000000001
43
0.0000000001
44
0.0000000001
40
0
40
0
40
0
40
1
40
1
40
1
10
12.77607080055625
20
23.042222736079488
30
0
10
12.862427593265103
20
22.725218225837889
30
0
10
12.937559105873845
20
22.078717114283201
30
0
0
LINE
5
290
100
AcDbEntity
8
0
100
AcDbLine
10
12.937559105873845
20
22.078717114283201
30
0
11
12.339939451118397
21
21.979325846553131
31
0
0
SPLINE
5
291
100
AcDbEntity
8
0
100
AcDbSpline
70
0
71
2
72
6
73
3
74
0
42
0.000000001
43
0.0000000001
44
0.0000000001
40
0
40
0
40
0
40
1
40
1
40
1
10
13.123307166312767
20
21.164092949286157
30
0
10
13.221069812957005
20
21.115573571532288
30
0
10
13.269589323199654
20
21.213336485130764
30
0
0
LINE
5
292
100
AcDbEntity
8
0
100
AcDbLine
10
13.269589323199654
20
21.213336485130764
30
0
11
13.985249714480712
21
22.655334655532005
31
0
0
LINE
5
293
100
AcDbEntity
8
0
100
AcDbLine
10
13.985249714480712
20
22.655334655532005
30
0
11
11.932235202768663
21
23.674241058408168
31
0
0
LINE
5
294
100
AcDbEntity
8
0
100
AcDbLine
10
11.932235202768663
20
23.674241058408168
30
0
11
12.162702081488572
21
24.138613296275501
31
0
0
LINE
5
295
100
AcDbEntity
8
0
100
AcDbLine
10
12.162702081488572
20
24.138613296275501
30
0
11
14.215716593200622
21
23.119706893399336
31
0
0
LINE
5
296
100
AcDbEntity
8
0
100
AcDbLine
10
14.215716593200622
20
23.119706893399336
30
0
11
14.531092349867611
21
23.755163696155527
31
0
0
LINE
5
297
100
AcDbEntity
8
0
100
AcDbLine
10
14.531092349867613
20
23.755163696155531
30
0
11
12.209230893576706
21
24.907498222243866
31
0
0
LINE
5
298
100
AcDbEntity
8
0
100
AcDbLine
10
12.209230893576706
20
24.907498222243866
30
0
11
11.056896234999593
21
22.585636498998717
31
0
0
LINE
5
299
100
AcDbEntity
8
0
100
AcDbLine
10
11.056896234999593
20
22.585636498998717
30
0
11
10.641405186977259
21
22.791843755086084
31
0
0
LINE
5
300
100
AcDbEntity
8
0
100
AcDbLine
10
10.641405186977257
20
22.791843755086081
30
0
11
10.738443942484999
21
22.987369048374561
31
0
0
LINE
5
301
100
AcDbEntity
8
0
100
AcDbLine
10
10.738443942484999
20
22.987369048374561
30
0
11
9.9074618464403308
21
23.399783560549288
31
0
0
LINE
5
302
100
AcDbEntity
8
0
100
AcDbLine
10
9.9074618464403308
20
23.399783560549288
30
0
11
9.6891248452810821
21
22.959852051081576
31
0
0
LINE
5
303
100
AcDbEntity
8
0
100
AcDbLine
10
9.6891248452810821
20
22.959852051081576
30
0
11
9.2736338639973077
21
23.166059274046745
31
0
0
LINE
5
304
100
AcDbEntity
8
0
100
AcDbLine
10
9.2736338639973077
20
23.166059274046745
30
0
11
11.505523915787562
21
27.66313835013932
31
0
0
LINE
5
305
100
AcDbEntity
8
0
100
AcDbLine
10
11.505523915787562
20
27.663138350139324
30
0
11
13.167488041138338
21
26.838309358912056
31
0
0
LINE
5
306
100
AcDbEntity
8
0
100
AcDbLine
10
13.167488041138338
20
26.838309358912056
30
0
11
12.439697904785396
21
25.371870727065438
31
0
0
LINE
5
307
100
AcDbEntity
8
0
100
AcDbLine
10
12.439697904785394
20
25.371870727065438
30
0
11
13.930577265031634
21
24.631950713151834
31
0
0
LINE
5
308
100
AcDbEntity
8
0
100
AcDbLine
10
13.930577265031634
20
24.631950713151834
30
0
11
14.282342521891833
21
25.340729434152642
31
0
0
LINE
5
309
100
AcDbEntity
8
0
100
AcDbLine
10
14.282342521891833
20
25.340729434152642
30
0
11
13.231394671113307
21
25.862312446906998
31
0
0
LINE
5
310
100
AcDbEntity
8
0
100
AcDbLine
10
13.231394671113307
20
25.862312446906998
30
0
11
13.461861549833218
21
26.326684684774332
31
0
0
LINE
5
311
100
AcDbEntity
8
0
100
AcDbLine
10
13.461861549833218
20
26.326684684774332
30
0
11
14.512809400611744
21
25.805101672019973
31
0
0
LINE
5
312
100
AcDbEntity
8
0
100
AcDbLine
10
14.512809400611744
20
25.805101672019973
30
0
11
14.925223912786475
21
26.636083768064644
31
0
0
LINE
5
313
100
AcDbEntity
8
0
100
AcDbLine
10
14.925223912786475
20
26.636083768064644
30
0
11
15.389596150653809
21
26.405616889344728
31
0
0
SPLINE
5
314
100
AcDbEntity
8
0
100
AcDbSpline
70
0
71
2
72
6
73
3
74
0
42
0.000000001
43
0.0000000001
44
0.0000000001
40
0
40
0
40
0
40
1
40
1
40
1
10
15.389596150653809
20
26.405616889344735
30
0
10
15.572991299427382
20
26.284137537926149
30
0
10
15.341257878667012
20
26.246843175294835
30
0
0
LINE
5
315
100
AcDbEntity
8
0
100
AcDbLine
10
15.341257878667012
20
26.246843175294835
30
0
11
15.001622366878697
21
25.562504915739407
31
0
0
LINE
5
316
100
AcDbEntity
8
0
100
AcDbLine
10
15.001622366878697
20
25.562504915739403
30
0
11
16.248095777899938
21
24.943883014988529
31
0
0
LINE
5
317
100
AcDbEntity
8
0
100
AcDbLine
10
16.248095777899938
20
24.943883014988529
30
0
11
16.017628899180028
21
24.479510777121195
31
0
0
LINE
5
318
100
AcDbEntity
8
0
100
AcDbLine
10
16.017628899180028
20
24.479510777121195
30
0
11
14.771155488158787
21
25.098132677872069
31
0
0
LINE
5
319
100
AcDbEntity
8
0
100
AcDbLine
10
14.771155488158785
20
25.098132677872069
30
0
11
14.419390231298586
21
24.389353956871261
31
0
0
LINE
5
320
100
AcDbEntity
8
0
100
AcDbLine
10
14.419390231298587
20
24.389353956871261
30
0
11
16.130235880187161
21
23.540265177400475
31
0
0
LINE
5
321
100
AcDbEntity
8
0
100
AcDbLine
10
16.130235880187161
20
23.540265177400475
30
0
11
15.899768868978475
21
23.075892672578902
31
0
0
LINE
5
322
100
AcDbEntity
8
0
100
AcDbLine
10
15.899768868978475
20
23.075892672578902
30
0
11
15.019905316134567
21
23.512566939874958
31
0
0
LINE
5
323
100
AcDbEntity
8
0
100
AcDbLine
10
15.019905316134567
20
23.512566939874951
30
0
11
14.704529559467579
21
22.877110137118759
31
0
0
LINE
5
324
100
AcDbEntity
8
0
100
AcDbLine
10
14.704529559467577
20
22.877110137118763
30
0
11
15.437749275822245
21
22.513214870209126
31
0
0
LINE
5
325
100
AcDbEntity
8
0
100
AcDbLine
10
15.437749275822245
20
22.513214870209126
30
0
11
15.207282397102336
21
22.048842632341792
31
0
0
LINE
5
326
100
AcDbEntity
8
0
100
AcDbLine
10
15.207282397102336
20
22.048842632341792
30
0
11
14.474062680747666
21
22.412737899251432
31
0
0
LINE
5
327
100
AcDbEntity
8
0
100
AcDbLine
10
14.474062680747666
20
22.412737899251432
30
0
11
13.673493411519528
21
20.799655163961333
31
0
0
SPLINE
5
328
100
AcDbEntity
8
0
100
AcDbSpline
70
0
71
2
72
6
73
3
74
0
42
0.000000001
43
0.0000000001
44
0.0000000001
40
0
40
0
40
0
40
1
40
1
40
1
10
13.673493411519528
20
20.799655163961333
30
0
10
13.479415900504048
20
20.408604577384377
30
0
10
13.088365313927092
20
20.60268208839986
30
0
0
LINE
5
329
100
AcDbEntity
8
0
100
AcDbLine
10
13.088365313927092
20
20.60268208839986
30
0
11
12.575111886214758
21
20.857408589752318
31
0
0
LINE
5
330
100
AcDbEntity
8
0
100
AcDbLine
10
12.57511188621476
20
20.857408589752318
30
0
11
12.707816118290435
21
21.370300205373521
31
0
0
LINE
5
331
100
AcDbEntity
8
0
100
AcDbLine
10
12.707816118290435
20
21.370300205373525
30
0
11
13.123307166312767
21
21.164092949286157
31
0
0
LINE
5
332
100
AcDbEntity
8
0
100
AcDbLine
10
11.071926382578106
20
25.746086012194056
30
0
11
11.902908478622773
21
25.333671500019324
31
0
0
LINE
5
333
100
AcDbEntity
8
0
100
AcDbLine
10
11.902908478622773
20
25.333671500019328
30
0
11
12.521530114396091
21
26.580144377132093
31
0
0
LINE
5
334
100
AcDbEntity
8
0
100
AcDbLine
10
12.521530114396091
20
26.58014437713209
30
0
11
11.690548018351423
21
26.992558889306821
31
0
0
LINE
5
335
100
AcDbEntity
8
0
100
AcDbLine
10
11.690548018351423
20
26.992558889306821
30
0
11
11.071926382578106
21
25.746086012194056
31
0
0
LINE
5
336
100
AcDbEntity
8
0
100
AcDbLine
10
10.137928857649019
20
23.864156065370864
30
0
11
10.968910953693687
21
23.451741553196133
31
0
0
LINE
5
337
100
AcDbEntity
8
0
100
AcDbLine
10
10.968910953693689
20
23.451741553196133
30
0
11
11.672441467414085
21
24.869298995197756
31
0
0
LINE
5
338
100
AcDbEntity
8
0
100
AcDbLine
10
11.672441467414085
20
24.869298995197752
30
0
11
10.841459371369417
21
25.28171350737248
31
0
0
LINE
5
339
100
AcDbEntity
8
0
100
AcDbLine
10
10.841459371369417
20
25.281713507372487
30
0
11
10.137928857649021
21
23.864156065370864
31
0
0
LINE
5
340
100
AcDbEntity
8
0
100
AcDbLine
10
19.646335287024353
20
20.330507539837033
30
0
11
20.208671413180689
21
21.033725418119545
31
0
0
LINE
5
341
100
AcDbEntity
8
0
100
AcDbLine
10
20.208671413180689
20
21.033725418119541
30
0
11
17.523658542485606
21
23.18082631389624
31
0
0
LINE
5
342
100
AcDbEntity
8
0
100
AcDbLine
10
17.523658542485606
20
23.18082631389624
30
0
11
16.961322416329271
21
22.477608435613728
31
0
0
LINE
5
343
100
AcDbEntity
8
0
100
AcDbLine
10
16.961322416329271
20
22.477608435613732
30
0
11
19.646335287024353
21
20.330507539837033
31
0
0
LINE
5
344
100
AcDbEntity
8
0
100
AcDbLine
10
19.322566154552224
20
19.925624709444016
30
0
11
16.637553283857144
21
22.072725605220715
31
0
0
LINE
5
345
100
AcDbEntity
8
0
100
AcDbLine
10
16.637553283857141
20
22.072725605220715
30
0
11
16.058176804393444
21
21.348198263539693
31
0
0
LINE
5
346
100
AcDbEntity
8
0
100
AcDbLine
10
16.058176804393444
20
21.348198263539693
30
0
11
18.743189675088527
21
19.201097367762998
31
0
0
LINE
5
347
100
AcDbEntity
8
0
100
AcDbLine
10
18.743189675088527
20
19.201097367762998
30
0
11
19.322566154552224
21
19.925624709444016
31
0
0
LINE
5
348
100
AcDbEntity
8
0
100
AcDbLine
10
17.788922444853942
20
18.007758107226969
30
0
11
18.419420542616397
21
18.79621453736998
31
0
0
LINE
5
349
100
AcDbEntity
8
0
100
AcDbLine
10
18.419420542616397
20
18.79621453736998
30
0
11
15.734407671921318
21
20.943315433146683
31
0
0
LINE
5
350
100
AcDbEntity
8
0
100
AcDbLine
10
15.734407671921316
20
20.943315433146683
30
0
11
15.103909574158861
21
20.154859003003672
31
0
0
LINE
5
351
100
AcDbEntity
8
0
100
AcDbLine
10
15.103909574158861
20
20.154859003003665
30
0
11
17.788922444853942
21
18.007758107226969
31
0
0
LINE
5
352
100
AcDbEntity
8
0
100
AcDbLine
10
18.742432306485316
20
22.87000895436881
30
0
11
19.530635520250321
21
23.462481230173246
31
0
0
LINE
5
353
100
AcDbEntity
8
0
100
AcDbLine
10
19.530635520250321
20
23.462481230173239
30
0
11
19.956864273744351
21
22.946961571403062
31
0
0
SPLINE
5
354
100
AcDbEntity
8
0
100
AcDbSpline
70
0
71
2
72
6
73
3
74
0
42
0.000000001
43
0.0000000001
44
0.0000000001
40
0
40
0
40
0
40
1
40
1
40
1
10
19.956864273744351
20
22.946961571403062
30
0
10
19.973941040124288
20
22.793561280691929
30
0
10
19.807733093124366
20
22.891534988317254
30
0
0
LINE
5
355
100
AcDbEntity
8
0
100
AcDbLine
10
19.807733093124366
20
22.891534988317254
30
0
11
19.14731513687833
21
22.546239821896677
31
0
0
LINE
5
356
100
AcDbEntity
8
0
100
AcDbLine
10
19.14731513687833
20
22.546239821896677
30
0
11
20.958633723836368
21
21.09779843711188
31
0
0
LINE
5
357
100
AcDbEntity
8
0
100
AcDbLine
10
20.958633723836368
20
21.09779843711188
30
0
11
17.737981821794641
21
17.070278432802787
31
0
0
LINE
5
358
100
AcDbEntity
8
0
100
AcDbLine
10
17.737981821794641
20
17.070278432802787
30
0
11
17.311788829736649
21
17.411088476958955
31
0
0
LINE
5
359
100
AcDbEntity
8
0
100
AcDbLine
10
17.311788829736649
20
17.411088476958955
30
0
11
17.465153312381815
21
17.602875276833952
31
0
0
LINE
5
360
100
AcDbEntity
8
0
100
AcDbLine
10
17.465153312381815
20
17.602875276833956
30
0
11
14.780140441686731
21
19.749976172610655
31
0
0
LINE
5
361
100
AcDbEntity
8
0
100
AcDbLine
10
14.780140441686731
20
19.749976172610655
30
0
11
14.575654712993924
21
19.494260749784644
31
0
0
LINE
5
362
100
AcDbEntity
8
0
100
AcDbLine
10
14.575654712993927
20
19.494260749784644
30
0
11
14.149462186446913
21
19.835070421689693
31
0
0
LINE
5
363
100
AcDbEntity
8
0
100
AcDbLine
10
14.149462186446913
20
19.835070421689693
30
0
11
17.421235334536281
21
23.926519048949796
31
0
0
LINE
5
364
100
AcDbEntity
8
0
100
AcDbLine
10
17.421235334536281
20
23.926519048949796
30
0
11
18.742432306485313
21
22.87000895436881
31
0
0
LINE
5
365
100
AcDbEntity
8
0
100
AcDbLine
10
23.24747877855371
20
15.376270279268489
30
0
11
21.463490592396084
21
14.067140805006566
31
0
0
SPLINE
5
366
100
AcDbEntity
8
0
100
AcDbSpline
70
0
71
2
72
6
73
3
74
0
42
0.000000001
43
0.0000000001
44
0.0000000001
40
0
40
0
40
0
40
1
40
1
40
1
10
21.463490592396084
20
14.067140805006566
30
0
10
20.539734036227753
20
13.386764578363337
30
0
10
20.07512437758789
20
13.958483911849234
30
0
0
LINE
5
367
100
AcDbEntity
8
0
100
AcDbLine
10
20.07512437758789
20
13.958483911849234
30
0
11
19.558891653263462
21
14.593727333043677
31
0
0
LINE
5
368
100
AcDbEntity
8
0
100
AcDbLine
10
19.558891653263458
20
14.593727333043677
30
0
11
19.973113713938449
21
15.035822429311009
31
0
0
LINE
5
369
100
AcDbEntity
8
0
100
AcDbLine
10
19.973113713938449
20
15.035822429311009
30
0
11
20.40330774485178
21
14.506452796007656
31
0
0
SPLINE
5
370
100
AcDbEntity
8
0
100
AcDbSpline
70
0
71
2
72
6
73
3
74
0
42
0.000000001
43
0.0000000001
44
0.0000000001
40
0
40
0
40
0
40
1
40
1
40
1
10
20.40330774485178
20
14.506452796007657
30
0
10
20.627008573263772
20
14.231180669951659
30
0
10
21.004187913548122
20
14.502537903725443
30
0
0
LINE
5
371
100
AcDbEntity
8
0
100
AcDbLine
10
21.004187913548122
20
14.502537903725443
30
0
11
22.449379423375934
21
15.536343107985576
31
0
0
LINE
5
372
100
AcDbEntity
8
0
100
AcDbLine
10
22.449379423375934
20
15.536343107985576
30
0
11
21.50295285609079
21
16.700955931200745
31
0
0
LINE
5
373
100
AcDbEntity
8
0
100
AcDbLine
10
21.50295285609079
20
16.700955931200745
30
0
11
21.316346704062617
21
16.584468646291121
31
0
0
SPLINE
5
374
100
AcDbEntity
8
0
100
AcDbSpline
70
0
71
2
72
6
73
3
74
0
42
0.000000001
43
0.0000000001
44
0.0000000001
40
0
40
0
40
0
40
1
40
1
40
1
10
21.316346704062617
20
16.584468646291121
30
0
10
20.031279790992453
20
15.786265755032227
30
0
10
17.818280905011676
20
16.519292806748325
30
0
0
LINE
5
375
100
AcDbEntity
8
0
100
AcDbLine
10
17.818280905011676
20
16.519292806748325
30
0
11
17.962485306887821
21
17.1638618530319
31
0
0
SPLINE
5
376
100
AcDbEntity
8
0
100
AcDbSpline
70
0
71
2
72
6
73
3
74
0
42
0.000000001
43
0.0000000001
44
0.0000000001
40
0
40
0
40
0
40
1
40
1
40
1
10
17.962485306887821
20
17.1638618530319
30
0
10
19.864456683474792
20
16.424188340525276
30
0
10
20.853077176939262
20
16.981482849772831
30
0
0
LINE
5
377
100
AcDbEntity
8
0
100
AcDbLine
10
20.853077176939262
20
16.981482849772831
30
0
11
21.141589892677906
21
17.145626395421647
31
0
0
LINE
5
378
100
AcDbEntity
8
0
100
AcDbLine
10
21.141589892677899
20
17.145626395421647
30
0
11
20.487695127328887
21
17.950268039139679
31
0
0
LINE
5
379
100
AcDbEntity
8
0
100
AcDbLine
10
20.487695127328887
20
17.950268039139679
30
0
11
20.890015891367245
21
18.277215374826035
31
0
0
LINE
5
380
100
AcDbEntity
8
0
100
AcDbLine
10
20.890015891367248
20
18.277215374826035
30
0
11
23.24747877855371
21
15.376270279268489
31
0
0
SPLINE
5
381
100
AcDbEntity
8
0
100
AcDbSpline
70
0
71
2
72
6
73
3
74
0
42
0.000000001
43
0.0000000001
44
0.0000000001
40
0
40
0
40
0
40
1
40
1
40
1
10
23.371588024055058
20
18.641413558469669
30
0
10
21.857513396757312
20
18.254804912392469
30
0
10
20.034986953278274
20
18.637134901923925
30
0
0
LINE
5
382
100
AcDbEntity
8
0
100
AcDbLine
10
20.034986953278274
20
18.637134901923925
30
0
11
20.161983564785228
21
19.302878769388442
31
0
0
SPLINE
5
383
100
AcDbEntity
8
0
100
AcDbSpline
70
0
71
2
72
6
73
3
74
0
42
0.000000001
43
0.0000000001
44
0.0000000001
40
0
40
0
40
0
40
1
40
1
40
1
10
20.161983564785228
20
19.302878769388442
30
0
10
21.819078776809597
20
18.821269222079643
30
0
10
23.43902774854001
20
19.293916821831857
30
0
0
LINE
5
384
100
AcDbEntity
8
0
100
AcDbLine
10
23.43902774854001
20
19.293916821831857
30
0
11
23.511877902237941
21
18.685102927603456
31
0
0
SPLINE
5
385
100
AcDbEntity
8
0
100
AcDbSpline
70
0
71
2
72
6
73
3
74
0
42
0.000000001
43
0.0000000001
44
0.0000000001
40
0
40
0
40
0
40
1
40
1
40
1
10
23.511877902237941
20
18.685102927603452
30
0
10
23.530425009147219
20
18.489223034168027
30
0
10
23.371588024055058
20
18.641413558469669
30
0
0
SPLINE
5
386
100
AcDbEntity
8
0
100
AcDbSpline
70
0
71
2
72
6
73
3
74
0
42
0.000000001
43
0.0000000001
44
0.0000000001
40
0
40
0
40
0
40
1
40
1
40
1
10
23.493746356614039
20
14.381003794895035
30
0
10
23.224912491470633
20
16.096265013491177
30
0
10
24.323269803091542
20
17.90297554266402
30
0
0
LINE
5
387
100
AcDbEntity
8
0
100
AcDbLine
10
24.323269803091542
20
17.90297554266402
30
0
11
24.819615476942797
21
17.638316913626557
31
0
0
SPLINE
5
388
100
AcDbEntity
8
0
100
AcDbSpline
70
0
71
2
72
6
73
3
74
0
42
0.000000001
43
0.0000000001
44
0.0000000001
40
0
40
0
40
0
40
1
40
1
40
1
10
24.819615476942797
20
17.638316913626557
30
0
10
23.877415639191504
20
16.028825195029917
30
0
10
24.196533276973465
20
14.424744932069382
30
0
0
LINE
5
389
100
AcDbEntity
8
0
100
AcDbLine
10
24.196533276973465
20
14.424744932069382
30
0
11
23.493746356614039
21
14.381003794895035
31
0
0
SPLINE
5
390
100
AcDbEntity
8
0
100
AcDbSpline
70
0
71
2
72
6
73
3
74
0
42
0.000000001
43
0.0000000001
44
0.0000000001
40
0
40
0
40
0
40
1
40
1
40
1
10
26.118548773929167
20
11.935511555153784
30
0
10
23.474638695968736
20
11.11717403504189
30
0
10
22.594647837536801
20
11.405713122643522
30
0
0
SPLINE
5
391
100
AcDbEntity
8
0
100
AcDbSpline
70
0
71
2
72
6
73
3
74
0
42
0.000000001
43
0.0000000001
44
0.0000000001
40
0
40
0
40
0
40
1
40
1
40
1
10
22.594647837536801
20
11.405713122643522
30
0
10
22.117985530152161
20
11.56200475899549
30
0
10
21.945478635634995
20
11.902826053714307
30
0
0
SPLINE
5
392
100
AcDbEntity
8
0
100
AcDbSpline
70
0
71
2
72
6
73
3
74
0
42
0.000000001
43
0.0000000001
44
0.0000000001
40
0
40
0
40
0
40
1
40
1
40
1
10
21.945478635634995
20
11.902826053714307
30
0
10
21.748327956723998
20
12.292335990863227
30
0
10
21.856530247117085
20
12.622332713367621
30
0
0
SPLINE
5
393
100
AcDbEntity
8
0
100
AcDbSpline
70
0
71
2
72
6
73
3
74
0
42
0.000000001
43
0.0000000001
44
0.0000000001
40
0
40
0
40
0
40
1
40
1
40
1
10
21.856530247117085
20
12.622332713367621
30
0
10
22.145069200131925
20
13.502323837702237
30
0
10
23.021466625192669
20
13.945912898898673
30
0
0
SPLINE
5
394
100
AcDbEntity
8
0
100
AcDbSpline
70
0
71
2
72
6
73
3
74
0
42
0.000000001
43
0.0000000001
44
0.0000000001
40
0
40
0
40
0
40
1
40
1
40
1
10
23.021466625192669
20
13.945912898898673
30
0
10
24.092619417681902
20
14.488077501430803
30
0
10
25.229274337085133
20
14.115381280204019
30
0
0
SPLINE
5
395
100
AcDbEntity
8
0
100
AcDbSpline
70
0
71
2
72
6
73
3
74
0
42
0.000000001
43
0.0000000001
44
0.0000000001
40
0
40
0
40
0
40
1
40
1
40
1
10
25.229274337085133
20
14.115381280204019
30
0
10
26.475928595127666
20
13.70661804191413
30
0
10
27.079702725937761
20
12.513743510398282
30
0
0
SPLINE
5
396
100
AcDbEntity
8
0
100
AcDbSpline
70
0
71
2
72
6
73
3
74
0
42
0.000000001
43
0.0000000001
44
0.0000000001
40
0
40
0
40
0
40
1
40
1
40
1
10
27.079702725937761
20
12.513743510398282
30
0
10
27.621867193883091
20
11.44259098381173
30
0
10
27.321305746192166
20
10.525933445820407
30
0
0
SPLINE
5
397
100
AcDbEntity
8
0
100
AcDbSpline
70
0
71
2
72
6
73
3
74
0
42
0.000000001
43
0.0000000001
44
0.0000000001
40
0
40
0
40
0
40
1
40
1
40
1
10
27.321305746192166
20
10.525933445820407
30
0
10
26.984676945788877
20
9.499277067348439
30
0
10
26.059590346492655
20
9.0310439525845858
30
0
0
SPLINE
5
398
100
AcDbEntity
8
0
100
AcDbSpline
70
0
71
2
72
6
73
3
74
0
42
0.000000001
43
0.0000000001
44
0.0000000001
40
0
40
0
40
0
40
1
40
1
40
1
10
26.059590346492655
20
9.0310439525845858
30
0
10
25.061471182405292
20
8.5258453631101858
30
0
10
24.108147897149422
20
8.8384293087481005
30
0
0
SPLINE
5
399
100
AcDbEntity
8
0
100
AcDbSpline
70
0
71
2
72
6
73
3
74
0
42
0.000000001
43
0.0000000001
44
0.0000000001
40
0
40
0
40
0
40
1
40
1
40
1
10
24.108147897149422
20
8.8384293087481005
30
0
10
23.484820466943319
20
9.0428111929780002
30
0
10
22.664043162185585
20
9.6977133503745634
30
0
0
LINE
5
400
100
AcDbEntity
8
0
100
AcDbLine
10
22.664043162185585
20
9.6977133503745634
30
0
11
22.916514762488053
21
10.467705634228537
31
0
0
SPLINE
5
401
100
AcDbEntity
8
0
100
AcDbSpline
70
0
71
2
72
6
73
3
74
0
42
0.000000001
43
0.0000000001
44
0.0000000001
40
0
40
0
40
0
40
1
40
1
40
1
10
22.916514762488056
20
10.467705634228537
30
0
10
23.615570328219171
20
9.7511939485540111
30
0
10
24.348895932513756
20
9.5107447083408339
30
0
0
SPLINE
5
402
100
AcDbEntity
8
0
100
AcDbSpline
70
0
71
2
72
6
73
3
74
0
42
0.000000001
43
0.0000000001
44
0.0000000001
40
0
40
0
40
0
40
1
40
1
40
1
10
24.348895932513756
20
9.5107447083408339
30
0
10
25.045555654956999
20
9.2823182319773316
30
0
10
25.702853790228232
20
9.6150100615213585
30
0
0
SPLINE
5
403
100
AcDbEntity
8
0
100
AcDbSpline
70
0
71
2
72
6
73
3
74
0
42
0.000000001
43
0.0000000001
44
0.0000000001
40
0
40
0
40
0
40
1
40
1
40
1
10
25.702853790228232
20
9.6150100615213585
30
0
10
26.481873664526077
20
10.00931141934335
30
0
10
26.734345264828544
20
10.779303703197323
30
0
0
SPLINE
5
404
100
AcDbEntity
8
0
100
AcDbSpline
70
0
71
2
72
6
73
3
74
0
42
0.000000001
43
0.0000000001
44
0.0000000001
40
0
40
0
40
0
40
1
40
1
40
1
10
26.734345264828544
20
10.779303703197323
30
0
10
26.98681699971781
20
11.549295721148615
30
0
10
26.383642064438853
20
12.620148651605055
30
0
0
LINE
5
405
100
AcDbEntity
8
0
100
AcDbLine
10
26.383642064438853
20
12.620148651605055
30
0
11
26.386336972051474
21
12.071052705786816
31
0
0
SPLINE
5
406
100
AcDbEntity
8
0
100
AcDbSpline
70
0
71
2
72
6
73
3
74
0
42
0.000000001
43
0.0000000001
44
0.0000000001
40
0
40
0
40
0
40
1
40
1
40
1
10
26.386336972051474
20
12.071052705786816
30
0
10
26.412478343148202
20
11.717310525220148
30
0
10
26.118548773929167
20
11.935511555153784
30
0
0
SPLINE
5
407
100
AcDbEntity
8
0
100
AcDbSpline
70
0
71
2
72
6
73
3
74
0
42
0.000000001
43
0.0000000001
44
0.0000000001
40
0
40
0
40
0
40
1
40
1
40
1
10
26.297687947407699
20
12.72954869704404
30
0
10
25.831251884160974
20
13.288570890380601
30
0
10
25.134592027130935
20
13.516997632646788
30
0
0
SPLINE
5
408
100
AcDbEntity
8
0
100
AcDbSpline
70
0
71
2
72
6
73
3
74
0
42
0.000000001
43
0.0000000001
44
0.0000000001
40
0
40
0
40
0
40
1
40
1
40
1
10
25.134592027130935
20
13.516997632646788
30
0
10
24.181268475972381
20
13.829581443697908
30
0
10
23.256181876676155
20
13.361348328934053
30
0
0
SPLINE
5
409
100
AcDbEntity
8
0
100
AcDbSpline
70
0
71
2
72
6
73
3
74
0
42
0.000000001
43
0.0000000001
44
0.0000000001
40
0
40
0
40
0
40
1
40
1
40
1
10
23.256181876676155
20
13.361348328934053
30
0
10
22.69626155807051
20
13.077944337351269
30
0
10
22.515924595899381
20
12.527949867409919
30
0
0
SPLINE
5
410
100
AcDbEntity
8
0
100
AcDbSpline
70
0
71
2
72
6
73
3
74
0
42
0.000000001
43
0.0000000001
44
0.0000000001
40
0
40
0
40
0
40
1
40
1
40
1
10
22.515924595899381
20
12.527949867409919
30
0
10
22.479857509089697
20
12.417951161516074
30
0
10
22.553789064151367
20
12.27188483537172
30
0
0
SPLINE
5
411
100
AcDbEntity
8
0
100
AcDbSpline
70
0
71
2
72
6
73
3
74
0
42
0.000000001
43
0.0000000001
44
0.0000000001
40
0
40
0
40
0
40
1
40
1
40
1
10
22.553789064151367
20
12.27188483537172
30
0
10
22.627720551919637
20
12.125818642178711
30
0
10
22.884384380634948
20
12.041661307491092
30
0
0
SPLINE
5
412
100
AcDbEntity
8
0
100
AcDbSpline
70
0
71
2
72
6
73
3
74
0
42
0.000000001
43
0.0000000001
44
0.0000000001
40
0
40
0
40
0
40
1
40
1
40
1
10
22.884384380634948
20
12.041661307491092
30
0
10
23.72770909131286
20
11.765144849152341
30
0
10
26.297687947407699
20
12.72954869704404
30
0
0
SPLINE
5
413
100
AcDbEntity
8
0
100
AcDbSpline
70
0
71
2
72
6
73
3
74
0
42
0.000000001
43
0.0000000001
44
0.0000000001
40
0
40
0
40
0
40
1
40
1
40
1
10
24.577414225967232
20
8.6544955659332192
30
0
10
26.191081840346175
20
8.0878102381121213
30
0
10
27.863650518371653
20
8.2695234160742981
30
0
0
LINE
5
414
100
AcDbEntity
8
0
100
AcDbLine
10
27.863650518371653
20
8.2695234160742981
30
0
11
27.870214357973701
21
7.5945584785816109
31
0
0
SPLINE
5
415
100
AcDbEntity
8
0
100
AcDbSpline
70
0
71
2
72
6
73
3
74
0
42
0.000000001
43
0.0000000001
44
0.0000000001
40
0
40
0
40
0
40
1
40
1
40
1
10
27.870214357973701
20
7.59455847858161
30
0
10
27.845997403155774
20
7.3626956553452221
30
0
10
27.70491052217843
20
7.5797152079433836
30
0
0
SPLINE
5
416
100
AcDbEntity
8
0
100
AcDbSpline
70
0
71
2
72
6
73
3
74
0
42
0.000000001
43
0.0000000001
44
0.0000000001
40
0
40
0
40
0
40
1
40
1
40
1
10
27.70491052217843
20
7.5797152079433836
30
0
10
26.038122356595
20
7.4840913810141956
30
0
10
24.358989625648348
20
7.9773427770469301
30
0
0
LINE
5
417
100
AcDbEntity
8
0
100
AcDbLine
10
24.358989625648348
20
7.9773427770469301
30
0
11
24.577414225967232
21
8.6544955659332192
31
0
0
SPLINE
5
418
100
AcDbEntity
8
0
100
AcDbSpline
70
0
71
2
72
6
73
3
74
0
42
0.000000001
43
0.0000000001
44
0.0000000001
40
0
40
0
40
0
40
1
40
1
40
1
10
28.736738126172074
20
4.9161060521702638
30
0
10
27.716794284129328
20
3.6355455860205668
30
0
10
26.421550981534551
20
2.7626185506430967
30
0
0
LINE
5
419
100
AcDbEntity
8
0
100
AcDbLine
10
26.421550981534551
20
2.7626185506430967
30
0
11
25.959229962967719
21
3.3471187978133674
31
0
0
SPLINE
5
420
100
AcDbEntity
8
0
100
AcDbSpline
70
0
71
2
72
6
73
3
74
0
42
0.000000001
43
0.0000000001
44
0.0000000001
40
0
40
0
40
0
40
1
40
1
40
1
10
25.959229962967719
20
3.3471187978133674
30
0
10
27.314157461822237
20
4.2073896148485463
30
0
10
28.342070059781435
20
5.3490515561292966
30
0
0
LINE
5
421
100
AcDbEntity
8
0
100
AcDbLine
10
28.342070059781435
20
5.3490515561292966
30
0
11
28.736738126172074
21
4.9161060521702638
31
0
0
SPLINE
5
422
100
AcDbEntity
8
0
100
AcDbSpline
70
0
71
2
72
6
73
3
74
0
42
0.000000001
43
0.0000000001
44
0.0000000001
40
0
40
0
40
0
40
1
40
1
40
1
10
24.399305140853894
20
5.8732338433043632
30
0
10
24.426803977928184
20
5.7676143419986348
30
0
10
24.532423190825455
20
5.7951131039835992
30
0
0
LINE
5
423
100
AcDbEntity
8
0
100
AcDbLine
10
24.532423190825455
20
5.7951131039835992
30
0
11
29.33810804876423
21
7.046309552604523
31
0
0
LINE
5
424
100
AcDbEntity
8
0
100
AcDbLine
10
29.338108048764234
20
7.0463095526045239
30
0
11
29.489351615128164
21
6.4654024396272467
31
0
0
SPLINE
5
425
100
AcDbEntity
8
0
100
AcDbSpline
70
0
71
2
72
6
73
3
74
0
42
0.000000001
43
0.0000000001
44
0.0000000001
40
0
40
0
40
0
40
1
40
1
40
1
10
29.489351615128164
20
6.4654024396272458
30
0
10
29.505288700322811
20
6.1876046628937971
30
0
10
29.284987265468288
20
6.3840001064585739
30
0
0
LINE
5
426
100
AcDbEntity
8
0
100
AcDbLine
10
29.284987265468288
20
6.3840001064585739
30
0
11
24.34727824720369
21
5.0984301678117818
31
0
0
SPLINE
5
427
100
AcDbEntity
8
0
100
AcDbSpline
70
0
71
2
72
6
73
3
74
0
42
0.000000001
43
0.0000000001
44
0.0000000001
40
0
40
0
40
0
40
1
40
1
40
1
10
24.347278247203693
20
5.0984301678117818
30
0
10
24.004015084266417
20
5.0090590036373328
30
0
10
23.914643920091969
20
5.3523221665746101
30
0
0
LINE
5
428
100
AcDbEntity
8
0
100
AcDbLine
10
23.914643920091969
20
5.3523221665746101
30
0
11
23.72215221075059
21
6.0916580988978009
31
0
0
LINE
5
429
100
AcDbEntity
8
0
100
AcDbLine
10
23.72215221075059
20
6.0916580988978009
30
0
11
24.248061649579284
21
6.4541406678731885
31
0
0
LINE
5
430
100
AcDbEntity
8
0
100
AcDbLine
10
24.248061649579284
20
6.4541406678731867
30
0
11
24.399305140853894
21
5.8732338433043623
31
0
0
SPLINE
5
431
100
AcDbEntity
8
0
100
AcDbSpline
70
0
71
2
72
6
73
3
74
0
42
0.000000001
43
0.0000000001
44
0.0000000001
40
0
40
0
40
0
40
1
40
1
40
1
10
28.457118998187138
20
1.0265800603189446
30
0
10
28.329646176978667
20
2.1409941634213596
30
0
10
28.285074704819245
20
3.2314889302184451
30
0
0
LINE
5
432
100
AcDbEntity
8
0
100
AcDbLine
10
28.285074704819245
20
3.2314889302184451
30
0
11
28.823636311637205
21
3.4173488771745921
31
0
0
SPLINE
5
433
100
AcDbEntity
8
0
100
AcDbSpline
70
0
71
2
72
6
73
3
74
0
42
0.000000001
43
0.0000000001
44
0.0000000001
40
0
40
0
40
0
40
1
40
1
40
1
10
28.823636311637205
20
3.4173488771745921
30
0
10
28.878236363397036
20
2.0814928278616245
30
0
10
28.966189869429463
20
1.2658505660824959
30
0
0
SPLINE
5
434
100
AcDbEntity
8
0
100
AcDbSpline
70
0
71
2
72
6
73
3
74
0
42
0.000000001
43
0.0000000001
44
0.0000000001
40
0
40
0
40
0
40
1
40
1
40
1
10
28.966189869429463
20
1.2658505660824959
30
0
10
29.71839338631802
20
1.5696741131631853
30
0
10
30.368233089758199
20
1.7054665212226476
30
0
0
LINE
5
435
100
AcDbEntity
8
0
100
AcDbLine
10
30.368233089758199
20
1.7054665212226476
30
0
11
30.392747398152729
21
1.1056944311228019
31
0
0
SPLINE
5
436
100
AcDbEntity
8
0
100
AcDbSpline
70
0
71
2
72
6
73
3
74
0
42
0.000000001
43
0.0000000001
44
0.0000000001
40
0
40
0
40
0
40
1
40
1
40
1
10
30.392747398152729
20
1.1056944311228016
30
0
10
30.348251075459942
20
0.85810434459368978
30
0
10
30.176876320978792
20
1.0422554947469425
30
0
0
SPLINE
5
437
100
AcDbEntity
8
0
100
AcDbSpline
70
0
71
2
72
6
73
3
74
0
42
0.000000001
43
0.0000000001
44
0.0000000001
40
0
40
0
40
0
40
1
40
1
40
1
10
30.176876320978792
20
1.0422554947469425
30
0
10
29.663348896091964
20
0.91203453839317938
30
0
10
29.04522879755616
20
0.6683068956067767
30
0
0
SPLINE
5
438
100
AcDbEntity
8
0
100
AcDbSpline
70
0
71
2
72
6
73
3
74
0
42
0.000000001
43
0.0000000001
44
0.0000000001
40
0
40
0
40
0
40
1
40
1
40
1
10
29.04522879755616
20
0.6683068956067767
30
0
10
29.166015907144928
20
-0.28253321766811723
30
0
10
29.357447504796017
20
-0.95740649836208835
30
0
0
LINE
5
439
100
AcDbEntity
8
0
100
AcDbLine
10
29.357447504796017
20
-0.95740649836208835
30
0
11
28.763246705343718
21
-1.1182327936207945
31
0
0
SPLINE
5
440
100
AcDbEntity
8
0
100
AcDbSpline
70
0
71
2
72
6
73
3
74
0
42
0.000000001
43
0.0000000001
44
0.0000000001
40
0
40
0
40
0
40
1
40
1
40
1
10
28.763246705343715
20
-1.1182327936207943
30
0
10
28.621882857749409
20
-0.33208110940186275
30
0
10
28.536158224088439
20
0.42903640201407856
30
0
0
SPLINE
5
441
100
AcDbEntity
8
0
100
AcDbSpline
70
0
71
2
72
6
73
3
74
0
42
0.000000001
43
0.0000000001
44
0.0000000001
40
0
40
0
40
0
40
1
40
1
40
1
10
28.536158224088439
20
0.42903640201407856
30
0
10
27.522473916401239
20
-0.15855382463565104
30
0
10
26.804813594410362
20
-1.3075109554921656
30
0
0
LINE
5
442
100
AcDbEntity
8
0
100
AcDbLine
10
26.804813594410362
20
-1.3075109554921656
30
0
11
26.297376574057616
21
-0.91863247621676081
31
0
0
SPLINE
5
443
100
AcDbEntity
8
0
100
AcDbSpline
70
0
71
2
72
6
73
3
74
0
42
0.000000001
43
0.0000000001
44
0.0000000001
40
0
40
0
40
0
40
1
40
1
40
1
10
26.297376574057616
20
-0.91863247621676025
30
0
10
26.719608223523224
20
0.10901798450254907
30
0
10
26.679493892950727
20
1.0904634123406782
30
0
0
SPLINE
5
444
100
AcDbEntity
8
0
100
AcDbSpline
70
0
71
2
72
6
73
3
74
0
42
0.000000001
43
0.0000000001
44
0.0000000001
40
0
40
0
40
0
40
1
40
1
40
1
10
26.679493892950727
20
1.0904634123406782
30
0
10
26.642722439487073
20
1.9901213241594973
30
0
10
26.273825974509929
20
2.3300464804357071
30
0
0
SPLINE
5
445
100
AcDbEntity
8
0
100
AcDbSpline
70
0
71
2
72
6
73
3
74
0
42
0.000000001
43
0.0000000001
44
0.0000000001
40
0
40
0
40
0
40
1
40
1
40
1
10
26.273825974509929
20
2.3300464804357071
30
0
10
26.103566118089976
20
2.4869349014453968
30
0
10
25.803679700821807
20
2.4746777320345656
30
0
0
SPLINE
5
446
100
AcDbEntity
8
0
100
AcDbSpline
70
0
71
2
72
6
73
3
74
0
42
0.000000001
43
0.0000000001
44
0.0000000001
40
0
40
0
40
0
40
1
40
1
40
1
10
25.803679700821807
20
2.4746777320345656
30
0
10
25.531056334813499
20
2.4635348773065817
30
0
10
25.295723411609792
20
2.2081449316184978
30
0
0
SPLINE
5
447
100
AcDbEntity
8
0
100
AcDbSpline
70
0
71
2
72
6
73
3
74
0
42
0.000000001
43
0.0000000001
44
0.0000000001
40
0
40
0
40
0
40
1
40
1
40
1
10
25.295723411609792
20
2.2081449316184978
30
0
10
24.929650238851355
20
1.8108717266749708
30
0
10
24.987593147942391
20
0.39322864522641721
30
0
0
LINE
5
448
100
AcDbEntity
8
0
100
AcDbLine
10
24.987593147942391
20
0.39322864522641721
30
0
11
25.026593176002898
21
-0.56095402912644232
31
0
0
LINE
5
449
100
AcDbEntity
8
0
100
AcDbLine
10
25.026593176002901
20
-0.56095402912644254
30
0
11
24.421249509651762
21
-0.44915666060224613
31
0
0
LINE
5
450
100
AcDbEntity
8
0
100
AcDbLine
10
24.421249509651762
20
-0.44915666060224624
30
0
11
24.378906610567839
21
0.5868133808826238
31
0
0
SPLINE
5
451
100
AcDbEntity
8
0
100
AcDbSpline
70
0
71
2
72
6
73
3
74
0
42
0.000000001
43
0.0000000001
44
0.0000000001
40
0
40
0
40
0
40
1
40
1
40
1
10
24.378906610567839
20
0.58681338088262369
30
0
10
24.320963701476796
20
2.0044564623311776
30
0
10
24.870073466699886
20
2.6003661208591691
30
0
0
SPLINE
5
452
100
AcDbEntity
8
0
100
AcDbSpline
70
0
71
2
72
6
73
3
74
0
42
0.000000001
43
0.0000000001
44
0.0000000001
40
0
40
0
40
0
40
1
40
1
40
1
10
24.870073466699886
20
2.6003661208591691
30
0
10
25.262294807870568
20
3.0260159974108558
30
0
10
25.780279679725702
20
3.0471874408673911
30
0
0
SPLINE
5
453
100
AcDbEntity
8
0
100
AcDbSpline
70
0
71
2
72
6
73
3
74
0
42
0.000000001
43
0.0000000001
44
0.0000000001
40
0
40
0
40
0
40
1
40
1
40
1
10
25.780279679725702
20
3.0471874408673911
30
0
10
26.298264849355437
20
3.0683588964947801
30
0
10
26.610408123046273
20
2.7807300086848348
30
0
0
SPLINE
5
454
100
AcDbEntity
8
0
100
AcDbSpline
70
0
71
2
72
6
73
3
74
0
42
0.000000001
43
0.0000000001
44
0.0000000001
40
0
40
0
40
0
40
1
40
1
40
1
10
26.610408123046273
20
2.7807300086848348
30
0
10
27.121187698391562
20
2.3100645967684654
30
0
10
27.163530597475486
20
1.2740945552835958
30
0
0
SPLINE
5
455
100
AcDbEntity
8
0
100
AcDbSpline
70
0
71
2
72
6
73
3
74
0
42
0.000000001
43
0.0000000001
44
0.0000000001
40
0
40
0
40
0
40
1
40
1
40
1
10
27.163530597475486
20
1.2740945552835958
30
0
10
27.205873490473984
20
0.23812466268602506
30
0
10
27.103509980885633
20
0.070093386948351655
30
0
0
SPLINE
5
456
100
AcDbEntity
8
0
100
AcDbSpline
70
0
71
2
72
6
73
3
74
0
42
0.000000001
43
0.0000000001
44
0.0000000001
40
0
40
0
40
0
40
1
40
1
40
1
10
27.103509980885633
20
0.070093386948351655
30
0
10
27.894638101413815
20
0.75781854250415115
30
0
10
28.457118998187138
20
1.0265800603189446
30
0
0
SPLINE
5
457
100
AcDbEntity
8
0
100
AcDbSpline
70
0
71
2
72
6
73
3
74
0
42
0.000000001
43
0.0000000001
44
0.0000000001
40
0
40
0
40
0
40
1
40
1
40
1
10
28.026746676487093
20
-5.0361651113965236
30
0
10
28.138686042828532
20
-3.9200837113169928
30
0
10
28.326561982274999
20
-2.8449706549738951
30
0
0
LINE
5
458
100
AcDbEntity
8
0
100
AcDbLine
10
28.326561982274999
20
-2.8449706549738951
30
0
11
28.892299845997677
21
-2.7776416584613561
31
0
0
SPLINE
5
459
100
AcDbEntity
8
0
100
AcDbSpline
70
0
71
2
72
6
73
3
74
0
42
0.000000001
43
0.0000000001
44
0.0000000001
40
0
40
0
40
0
40
1
40
1
40
1
10
28.892299845997673
20
-2.7776416584613557
30
0
10
28.662151827069483
20
-4.094655113032589
30
0
10
28.575000736021686
20
-4.9103835027265781
30
0
0
SPLINE
5
460
100
AcDbEntity
8
0
100
AcDbSpline
70
0
71
2
72
6
73
3
74
0
42
0.000000001
43
0.0000000001
44
0.0000000001
40
0
40
0
40
0
40
1
40
1
40
1
10
28.575000736021686
20
-4.9103835027265781
30
0
10
29.374548870229326
20
-4.7731185776171738
30
0
10
30.038404298977067
20
-4.7783327866623466
30
0
0
LINE
5
461
100
AcDbEntity
8
0
100
AcDbLine
10
30.038404298977067
20
-4.7783327866623466
30
0
11
29.93507253773236
21
-5.3696449364587693
31
0
0
SPLINE
5
462
100
AcDbEntity
8
0
100
AcDbSpline
70
0
71
2
72
6
73
3
74
0
42
0.000000001
43
0.0000000001
44
0.0000000001
40
0
40
0
40
0
40
1
40
1
40
1
10
29.93507253773236
20
-5.3696449364587693
30
0
10
29.839044596316761
20
-5.6021517280760396
30
0
10
29.710655468413666
20
-5.3858251591749404
30
0
0
SPLINE
5
463
100
AcDbEntity
8
0
100
AcDbSpline
70
0
71
2
72
6
73
3
74
0
42
0.000000001
43
0.0000000001
44
0.0000000001
40
0
40
0
40
0
40
1
40
1
40
1
10
29.710655468413666
20
-5.3858251591749404
30
0
10
29.181189598309135
20
-5.4040955171089555
30
0
10
28.525424479008802
20
-5.5110895747997715
30
0
0
SPLINE
5
464
100
AcDbEntity
8
0
100
AcDbSpline
70
0
71
2
72
6
73
3
74
0
42
0.000000001
43
0.0000000001
44
0.0000000001
40
0
40
0
40
0
40
1
40
1
40
1
10
28.525424479008802
20
-5.5110895747997715
30
0
10
28.441666464787104
20
-6.4659042384434855
30
0
10
28.48551121710549
20
-7.1660311121371265
30
0
0
LINE
5
465
100
AcDbEntity
8
0
100
AcDbLine
10
28.48551121710549
20
-7.1660311121371265
30
0
11
27.870714404844783
21
-7.1970885903101589
31
0
0
SPLINE
5
466
100
AcDbEntity
8
0
100
AcDbSpline
70
0
71
2
72
6
73
3
74
0
42
0.000000001
43
0.0000000001
44
0.0000000001
40
0
40
0
40
0
40
1
40
1
40
1
10
27.870714404844783
20
-7.1970885903101589
30
0
10
27.89941312956703
20
-6.3988438964936289
30
0
10
27.977170713048615
20
-5.6368712347718262
30
0
0
SPLINE
5
467
100
AcDbEntity
8
0
100
AcDbSpline
70
0
71
2
72
6
73
3
74
0
42
0.000000001
43
0.0000000001
44
0.0000000001
40
0
40
0
40
0
40
1
40
1
40
1
10
27.977170713048615
20
-5.6368712347718262
30
0
10
26.861875336574705
20
-5.9959455631795677
30
0
10
25.916723616738459
20
-6.9664233077964477
30
0
0
LINE
5
468
100
AcDbEntity
8
0
100
AcDbLine
10
25.916723616738459
20
-6.9664233077964477
30
0
11
25.503376169224104
21
-6.4787116215499605
31
0
0
SPLINE
5
469
100
AcDbEntity
8
0
100
AcDbSpline
70
0
71
2
72
6
73
3
74
0
42
0.000000001
43
0.0000000001
44
0.0000000001
40
0
40
0
40
0
40
1
40
1
40
1
10
25.503376169224104
20
-6.4787116215499605
30
0
10
26.134084432061705
20
-5.5640793881274622
30
0
10
26.303172801290749
20
-4.5964775016405079
30
0
0
SPLINE
5
470
100
AcDbEntity
8
0
100
AcDbSpline
70
0
71
2
72
6
73
3
74
0
42
0.000000001
43
0.0000000001
44
0.0000000001
40
0
40
0
40
0
40
1
40
1
40
1
10
26.303172801290749
20
-4.5964775016405079
30
0
10
26.458170404681223
20
-3.7095094971266835
30
0
10
26.169818421095037
20
-3.2990380032273481
30
0
0
SPLINE
5
471
100
AcDbEntity
8
0
100
AcDbSpline
70
0
71
2
72
6
73
3
74
0
42
0.000000001
43
0.0000000001
44
0.0000000001
40
0
40
0
40
0
40
1
40
1
40
1
10
26.169818421095037
20
-3.2990380032273481
30
0
10
26.036732915642823
20
-3.1095897422335232
30
0
10
25.741076473776594
20
-3.0579237974835327
30
0
0
SPLINE
5
472
100
AcDbEntity
8
0
100
AcDbSpline
70
0
71
2
72
6
73
3
74
0
42
0.000000001
43
0.0000000001
44
0.0000000001
40
0
40
0
40
0
40
1
40
1
40
1
10
25.741076473776594
20
-3.0579237974835327
30
0
10
25.472298530787832
20
-3.0109548687336005
30
0
10
25.18812582007163
20
-3.2105832223970232
30
0
0
SPLINE
5
473
100
AcDbEntity
8
0
100
AcDbSpline
70
0
71
2
72
6
73
3
74
0
42
0.000000001
43
0.0000000001
44
0.0000000001
40
0
40
0
40
0
40
1
40
1
40
1
10
25.18812582007163
20
-3.2105832223970232
30
0
10
24.746079647835021
20
-3.5211162299670669
30
0
10
24.501840946434186
20
-4.9187630894530097
30
0
0
LINE
5
474
100
AcDbEntity
8
0
100
AcDbLine
10
24.501840946434186
20
-4.9187630894530097
30
0
11
24.337449541903094
21
-5.8594867706369103
31
0
0
LINE
5
475
100
AcDbEntity
8
0
100
AcDbLine
10
24.337449541903094
20
-5.8594867706369103
30
0
11
23.769621709694434
21
-5.6217660122467699
31
0
0
LINE
5
476
100
AcDbEntity
8
0
100
AcDbLine
10
23.769621709694434
20
-5.6217660122467699
30
0
11
23.948103854413038
21
-4.6004085958769458
31
0
0
SPLINE
5
477
100
AcDbEntity
8
0
100
AcDbSpline
70
0
71
2
72
6
73
3
74
0
42
0.000000001
43
0.0000000001
44
0.0000000001
40
0
40
0
40
0
40
1
40
1
40
1
10
23.948103854413038
20
-4.6004085958769458
30
0
10
24.19234255581387
20
-3.202761736391003
30
0
10
24.855411788517724
20
-2.7369623718231439
30
0
0
SPLINE
5
478
100
AcDbEntity
8
0
100
AcDbSpline
70
0
71
2
72
6
73
3
74
0
42
0.000000001
43
0.0000000001
44
0.0000000001
40
0
40
0
40
0
40
1
40
1
40
1
10
24.855411788517724
20
-2.7369623718231439
30
0
10
25.329032773053282
20
-2.4042484393139003
30
0
10
25.839711334450989
20
-2.4934894860221481
30
0
0
SPLINE
5
479
100
AcDbEntity
8
0
100
AcDbSpline
70
0
71
2
72
6
73
3
74
0
42
0.000000001
43
0.0000000001
44
0.0000000001
40
0
40
0
40
0
40
1
40
1
40
1
10
25.839711334450989
20
-2.4934894860221481
30
0
10
26.350390189423109
20
-2.5827305840325065
30
0
10
26.594380457092569
20
-2.9300525523785979
30
0
0
SPLINE
5
480
100
AcDbEntity
8
0
100
AcDbSpline
70
0
71
2
72
6
73
3
74
0
42
0.000000001
43
0.0000000001
44
0.0000000001
40
0
40
0
40
0
40
1
40
1
40
1
10
26.594380457092569
20
-2.9300525523785979
30
0
10
26.993636947798166
20
-3.4983974821472796
30
0
10
26.815154803079562
20
-4.5197548985171032
30
0
0
SPLINE
5
481
100
AcDbEntity
8
0
100
AcDbSpline
70
0
71
2
72
6
73
3
74
0
42
0.000000001
43
0.0000000001
44
0.0000000001
40
0
40
0
40
0
40
1
40
1
40
1
10
26.815154803079562
20
-4.5197548985171032
30
0
10
26.636672684012012
20
-5.5411121680997208
30
0
10
26.500980246475471
20
-5.6835915003436144
30
0
0
SPLINE
5
482
100
AcDbEntity
8
0
100
AcDbSpline
70
0
71
2
72
6
73
3
74
0
42
0.000000001
43
0.0000000001
44
0.0000000001
40
0
40
0
40
0
40
1
40
1
40
1
10
26.500980246475471
20
-5.6835915003436144
30
0
10
27.420040467248199
20
-5.1794309076076548
30
0
10
28.026746676487093
20
-5.0361651113965236
30
0
0
SPLINE
5
483
100
AcDbEntity
8
0
100
AcDbSpline
70
0
71
2
72
6
73
3
74
0
42
0.000000001
43
0.0000000001
44
0.0000000001
40
0
40
0
40
0
40
1
40
1
40
1
10
26.11640296224828
20
-10.138555172653
30
0
10
26.093948914564251
20
-10.482956496037835
30
0
10
25.980713820742572
20
-10.760912852496388
30
0
0
SPLINE
5
484
100
AcDbEntity
8
0
100
AcDbSpline
70
0
71
2
72
6
73
3
74
0
42
0.000000001
43
0.0000000001
44
0.0000000001
40
0
40
0
40
0
40
1
40
1
40
1
10
25.980713820742572
20
-10.760912852496388
30
0
10
25.846890579152308
20
-11.089406602856837
30
0
10
25.562387911595561
20
-11.209204026950804
30
0
0
SPLINE
5
485
100
AcDbEntity
8
0
100
AcDbSpline
70
0
71
2
72
6
73
3
74
0
42
0.000000001
43
0.0000000001
44
0.0000000001
40
0
40
0
40
0
40
1
40
1
40
1
10
25.562387911595561
20
-11.209204026950804
30
0
10
25.349010622147841
20
-11.29905181647441
30
0
10
24.934416512831731
20
-11.159615131962951
30
0
0
SPLINE
5
486
100
AcDbEntity
8
0
100
AcDbSpline
70
0
71
2
72
6
73
3
74
0
42
0.000000001
43
0.0000000001
44
0.0000000001
40
0
40
0
40
0
40
1
40
1
40
1
10
24.934416512831731
20
-11.159615131962951
30
0
10
24.903549978134802
20
-12.030912790308577
30
0
10
24.815599411314885
20
-13.114654041927183
30
0
0
LINE
5
487
100
AcDbEntity
8
0
100
AcDbLine
10
24.815599411314885
20
-13.114654041927183
30
0
11
24.137090618649157
21
-13.044476999170751
31
0
0
SPLINE
5
488
100
AcDbEntity
8
0
100
AcDbSpline
70
0
71
2
72
6
73
3
74
0
42
0.000000001
43
0.0000000001
44
0.0000000001
40
0
40
0
40
0
40
1
40
1
40
1
10
24.137090618649157
20
-13.044476999170751
30
0
10
24.386947773277203
20
-11.99723146834511
30
0
10
24.408453322047187
20
-11.004270598427865
30
0
0
LINE
5
489
100
AcDbEntity
8
0
100
AcDbLine
10
24.408453322047187
20
-11.004270598427865
30
0
11
23.296628172212223
21
-10.551330335578937
31
0
0
LINE
5
490
100
AcDbEntity
8
0
100
AcDbLine
10
23.296628172212223
20
-10.551330335578937
30
0
11
23.502510099649207
21
-10.045955292562976
31
0
0
LINE
5
491
100
AcDbEntity
8
0
100
AcDbLine
10
23.502510099649211
20
-10.045955292562974
30
0
11
24.412185397877337
21
-10.416542851899786
31
0
0
SPLINE
5
492
100
AcDbEntity
8
0
100
AcDbSpline
70
0
71
2
72
6
73
3
74
0
42
0.000000001
43
0.0000000001
44
0.0000000001
40
0
40
0
40
0
40
1
40
1
40
1
10
24.412185397877337
20
-10.416542851899786
30
0
10
24.367245703721796
20
-9.5143629156823941
30
0
10
24.232473687218242
20
-9.1942970070726382
30
0
0
SPLINE
5
493
100
AcDbEntity
8
0
100
AcDbSpline
70
0
71
2
72
6
73
3
74
0
42
0.000000001
43
0.0000000001
44
0.0000000001
40
0
40
0
40
0
40
1
40
1
40
1
10
24.232473687218242
20
-9.1942970070726382
30
0
10
24.067752588142817
20
-8.8031059452294471
30
0
10
23.789796507683509
20
-8.6898709638455625
30
0
0
SPLINE
5
494
100
AcDbEntity
8
0
100
AcDbSpline
70
0
71
2
72
6
73
3
74
0
42
0.000000001
43
0.0000000001
44
0.0000000001
40
0
40
0
40
0
40
1
40
1
40
1
10
23.789796507683509
20
-8.6898709638455625
30
0
10
23.63818349798008
20
-8.6281061832264321
30
0
10
23.424806484531608
20
-8.7179540851878343
30
0
0
SPLINE
5
495
100
AcDbEntity
8
0
100
AcDbSpline
70
0
71
2
72
6
73
3
74
0
42
0.000000001
43
0.0000000001
44
0.0000000001
40
0
40
0
40
0
40
1
40
1
40
1
10
23.424806484531608
20
-8.7179540851878343
30
0
10
23.175866506029369
20
-8.8227766919966211
30
0
10
22.969984578592381
20
-9.3281517350125824
30
0
0
LINE
5
496
100
AcDbEntity
8
0
100
AcDbLine
10
22.969984578592381
20
-9.3281517350125824
30
0
11
22.10528046086948
21
-11.450726970879472
31
0
0
LINE
5
497
100
AcDbEntity
8
0
100
AcDbLine
10
22.10528046086948
20
-11.450726970879472
30
0
11
21.62517425280409
21
-11.255139173545674
31
0
0
LINE
5
498
100
AcDbEntity
8
0
100
AcDbLine
10
21.625174252804094
20
-11.255139173545674
30
0
11
22.500172500630178
21
-9.1072951027282141
31
0
0
SPLINE
5
499
100
AcDbEntity
8
0
100
AcDbSpline
70
0
71
2
72
6
73
3
74
0
42
0.000000001
43
0.0000000001
44
0.0000000001
40
0
40
0
40
0
40
1
40
1
40
1
10
22.500172500630178
20
-9.1072951027282141
30
0
10
22.829583539554239
20
-8.2986951443023731
30
0
10
23.291900587723848
20
-8.1040244975325599
30
0
0
SPLINE
5
500
100
AcDbEntity
8
0
100
AcDbSpline
70
0
71
2
72
6
73
3
74
0
42
0.000000001
43
0.0000000001
44
0.0000000001
40
0
40
0
40
0
40
1
40
1
40
1
10
23.291900587723848
20
-8.1040244975325599
30
0
10
23.647529348949572
20
-7.9542780521808698
30
0
10
24.026560769211166
20
-8.1086895539775092
30
0
0
SPLINE
5
501
100
AcDbEntity
8
0
100
AcDbSpline
70
0
71
2
72
6
73
3
74
0
42
0.000000001
43
0.0000000001
44
0.0000000001
40
0
40
0
40
0
40
1
40
1
40
1
10
24.026560769211166
20
-8.1086895539775092
30
0
10
24.43086047242484
20
-8.2733949610017401
30
0
10
24.625530981195027
20
-8.7357119529524514
30
0
0
SPLINE
5
502
100
AcDbEntity
8
0
100
AcDbSpline
70
0
71
2
72
6
73
3
74
0
42
0.000000001
43
0.0000000001
44
0.0000000001
40
0
40
0
40
0
40
1
40
1
40
1
10
24.625530981195027
20
-8.7357119529524514
30
0
10
24.925024040555105
20
-9.4469690614050226
30
0
10
24.927854294997243
20
-10.597155831948404
30
0
0
SPLINE
5
503
100
AcDbEntity
8
0
100
AcDbSpline
70
0
71
2
72
6
73
3
74
0
42
0.000000001
43
0.0000000001
44
0.0000000001
40
0
40
0
40
0
40
1
40
1
40
1
10
24.927854294997243
20
-10.597155831948404
30
0
10
25.24137350407176
20
-10.695416496921947
30
0
10
25.383624975849756
20
-10.635517841093861
30
0
0
SPLINE
5
504
100
AcDbEntity
8
0
100
AcDbSpline
70
0
71
2
72
6
73
3
74
0
42
0.000000001
43
0.0000000001
44
0.0000000001
40
0
40
0
40
0
40
1
40
1
40
1
10
25.383624975849756
20
-10.635517841093861
30
0
10
25.525876171628504
20
-10.57561907282798
30
0
10
25.659699413218767
20
-10.247125322467529
30
0
0
SPLINE
5
505
100
AcDbEntity
8
0
100
AcDbSpline
70
0
71
2
72
6
73
3
74
0
42
0.000000001
43
0.0000000001
44
0.0000000001
40
0
40
0
40
0
40
1
40
1
40
1
10
25.659699413218767
20
-10.247125322467529
30
0
10
25.865581340655758
20
-9.7417502794515674
30
0
10
25.377964331513482
20
-8.3351438425702469
30
0
0
LINE
5
506
100
AcDbEntity
8
0
100
AcDbLine
10
25.377964331513482
20
-8.3351438425702469
30
0
11
25.982532795242193
21
-8.0805746779719723
31
0
0
SPLINE
5
507
100
AcDbEntity
8
0
100
AcDbSpline
70
0
71
2
72
6
73
3
74
0
42
0.000000001
43
0.0000000001
44
0.0000000001
40
0
40
0
40
0
40
1
40
1
40
1
10
25.982532795242189
20
-8.0805746779719723
30
0
10
26.231504231984665
20
-9.5667349991493058
30
0
10
26.940910769697759
20
-10.356597130108625
30
0
0
SPLINE
5
508
100
AcDbEntity
8
0
100
AcDbSpline
70
0
71
2
72
6
73
3
74
0
42
0.000000001
43
0.0000000001
44
0.0000000001
40
0
40
0
40
0
40
1
40
1
40
1
10
26.940910769697759
20
-10.356597130108625
30
0
10
27.178608119182755
20
-9.6284838117179987
30
0
10
27.416305150504336
20
-8.9003704843892955
30
0
0
LINE
5
509
100
AcDbEntity
8
0
100
AcDbLine
10
27.416305150504336
20
-8.9003704843892955
30
0
11
27.962856863439779
21
-9.0051774949609413
31
0
0
SPLINE
5
510
100
AcDbEntity
8
0
100
AcDbSpline
70
0
71
2
72
6
73
3
74
0
42
0.000000001
43
0.0000000001
44
0.0000000001
40
0
40
0
40
0
40
1
40
1
40
1
10
27.962856863439779
20
-9.0051774949609431
30
0
10
27.617538195272434
20
-9.9251467852926361
30
0
10
27.338664274251027
20
-10.754334779049259
30
0
0
SPLINE
5
511
100
AcDbEntity
8
0
100
AcDbSpline
70
0
71
2
72
6
73
3
74
0
42
0.000000001
43
0.0000000001
44
0.0000000001
40
0
40
0
40
0
40
1
40
1
40
1
10
27.338664274251027
20
-10.754334779049259
30
0
10
27.590418651582766
20
-11.004207789289943
30
0
10
28.22588513635808
20
-11.469323825332353
30
0
0
LINE
5
512
100
AcDbEntity
8
0
100
AcDbLine
10
28.22588513635808
20
-11.469323825332353
30
0
11
27.903953716269918
21
-11.897959607757397
31
0
0
SPLINE
5
513
100
AcDbEntity
8
0
100
AcDbSpline
70
0
71
2
72
6
73
3
74
0
42
0.000000001
43
0.0000000001
44
0.0000000001
40
0
40
0
40
0
40
1
40
1
40
1
10
27.903953716269918
20
-11.897959607757397
30
0
10
27.69993796474763
20
-12.109470833728221
30
0
10
27.701803588663836
20
-11.815606791807483
30
0
0
SPLINE
5
514
100
AcDbEntity
8
0
100
AcDbSpline
70
0
71
2
72
6
73
3
74
0
42
0.000000001
43
0.0000000001
44
0.0000000001
40
0
40
0
40
0
40
1
40
1
40
1
10
27.701803588663836
20
-11.815606791807483
30
0
10
27.414486133840544
20
-11.580708762413428
30
0
10
27.137462921558239
20
-11.320541622069554
30
0
0
SPLINE
5
515
100
AcDbEntity
8
0
100
AcDbSpline
70
0
71
2
72
6
73
3
74
0
42
0.000000001
43
0.0000000001
44
0.0000000001
40
0
40
0
40
0
40
1
40
1
40
1
10
27.137462921558239
20
-11.320541622069554
30
0
10
26.842681979510942
20
-12.261099034608002
30
0
10
26.629320320800261
20
-13.146438529624005
30
0
0
LINE
5
516
100
AcDbEntity
8
0
100
AcDbLine
10
26.629320320800261
20
-13.146438529624005
30
0
11
26.06779416496196
21
-13.0060687009363
31
0
0
SPLINE
5
517
100
AcDbEntity
8
0
100
AcDbSpline
70
0
71
2
72
6
73
3
74
0
42
0.000000001
43
0.0000000001
44
0.0000000001
40
0
40
0
40
0
40
1
40
1
40
1
10
26.06779416496196
20
-13.006068700936302
30
0
10
26.393457773318069
20
-11.989704895983934
30
0
10
26.719121269236386
20
-10.973341367030816
30
0
0
SPLINE
5
518
100
AcDbEntity
8
0
100
AcDbSpline
70
0
71
2
72
6
73
3
74
0
42
0.000000001
43
0.0000000001
44
0.0000000001
40
0
40
0
40
0
40
1
40
1
40
1
10
26.719121269236386
20
-10.973341367030816
30
0
10
26.316687189938914
20
-10.514771918085849
30
0
10
26.11640296224828
20
-10.138555172653
30
0
0
LINE
5
519
100
AcDbEntity
8
0
100
AcDbLine
10
23.695757684929568
20
-13.622852220242009
30
0
11
24.123418344925863
21
-13.915875969075351
31
0
0
LINE
5
520
100
AcDbEntity
8
0
100
AcDbLine
10
24.123418344925867
20
-13.915875969075351
30
0
11
23.321458371899094
21
-15.08631601948337
31
0
0
LINE
5
521
100
AcDbEntity
8
0
100
AcDbLine
10
23.321458371899094
20
-15.086316019483368
30
0
11
24.244305292169873
21
-15.718630584445661
31
0
0
LINE
5
522
100
AcDbEntity
8
0
100
AcDbLine
10
24.244305292169877
20
-15.718630584445661
30
0
11
24.444795411764758
21
-15.426020387456298
31
0
0
SPLINE
5
523
100
AcDbEntity
8
0
100
AcDbSpline
70
0
71
2
72
6
73
3
74
0
42
0.000000001
43
0.0000000001
44
0.0000000001
40
0
40
0
40
0
40
1
40
1
40
1
10
24.444795411764758
20
-15.426020387456301
30
0
10
24.178443981728588
20
-14.945842931103044
30
0
10
24.110082389264356
20
-14.369795257163503
30
0
0
LINE
5
524
100
AcDbEntity
8
0
100
AcDbLine
10
24.110082389264356
20
-14.369795257163503
30
0
11
24.679043739855132
21
-14.26350285632018
31
0
0
SPLINE
5
525
100
AcDbEntity
8
0
100
AcDbSpline
70
0
71
2
72
6
73
3
74
0
42
0.000000001
43
0.0000000001
44
0.0000000001
40
0
40
0
40
0
40
1
40
1
40
1
10
24.679043739855132
20
-14.263502856320178
30
0
10
24.779086239772901
20
-15.324314299964907
30
0
10
25.696932680223249
20
-16.350108700808445
30
0
0
LINE
5
526
100
AcDbEntity
8
0
100
AcDbLine
10
25.696932680223249
20
-16.350108700808445
30
0
11
25.253435866767958
21
-16.707744096541425
31
0
0
SPLINE
5
527
100
AcDbEntity
8
0
100
AcDbSpline
70
0
71
2
72
6
73
3
74
0
42
0.000000001
43
0.0000000001
44
0.0000000001
40
0
40
0
40
0
40
1
40
1
40
1
10
25.253435866767955
20
-16.707744096541425
30
0
10
25.093376960500009
20
-16.796528075004403
30
0
10
25.164652056755902
20
-16.547684944423672
30
0
0
SPLINE
5
528
100
AcDbEntity
8
0
100
AcDbSpline
70
0
71
2
72
6
73
3
74
0
42
0.000000001
43
0.0000000001
44
0.0000000001
40
0
40
0
40
0
40
1
40
1
40
1
10
25.164652056755902
20
-16.547684944423672
30
0
10
24.956240139502111
20
-16.272583629641403
30
0
10
24.749077808391078
20
-15.899112080449429
30
0
0
LINE
5
529
100
AcDbEntity
8
0
100
AcDbLine
10
24.749077808391078
20
-15.899112080449429
30
0
11
23.777472595750755
21
-17.317145015144881
31
0
0
LINE
5
530
100
AcDbEntity
8
0
100
AcDbLine
10
23.777472595750755
20
-17.317145015144881
30
0
11
23.349811689904648
21
-17.024121097860615
31
0
0
LINE
5
531
100
AcDbEntity
8
0
100
AcDbLine
10
23.349811689904652
20
-17.024121097860615
30
0
11
23.935859187571332
21
-16.168799777868021
31
0
0
LINE
5
532
100
AcDbEntity
8
0
100
AcDbLine
10
23.935859187571332
20
-16.168799777868021
30
0
11
23.013012267300557
21
-15.536485212905728
31
0
0
LINE
5
533
100
AcDbEntity
8
0
100
AcDbLine
10
23.013012267300553
20
-15.536485212905728
30
0
11
22.241897174255115
21
-16.661907950611816
31
0
0
LINE
5
534
100
AcDbEntity
8
0
100
AcDbLine
10
22.241897174255115
20
-16.661907950611816
30
0
11
21.814236514258816
21
-16.368884201778474
31
0
0
LINE
5
535
100
AcDbEntity
8
0
100
AcDbLine
10
21.814236514258816
20
-16.368884201778474
30
0
11
22.585351607304254
21
-15.243461464072388
31
0
0
SPLINE
5
536
100
AcDbEntity
8
0
100
AcDbSpline
70
0
71
2
72
6
73
3
74
0
42
0.000000001
43
0.0000000001
44
0.0000000001
40
0
40
0
40
0
40
1
40
1
40
1
10
22.585351607304254
20
-15.243461464072388
30
0
10
22.292741656164701
20
-15.042971512928425
30
0
10
22.030976416555561
20
-14.797464494932342
30
0
0
SPLINE
5
537
100
AcDbEntity
8
0
100
AcDbSpline
70
0
71
2
72
6
73
3
74
0
42
0.000000001
43
0.0000000001
44
0.0000000001
40
0
40
0
40
0
40
1
40
1
40
1
10
22.030976416555561
20
-14.797464494932342
30
0
10
21.369480938200134
20
-15.038807559106392
30
0
10
20.201963525931674
20
-15.198039115836565
30
0
0
LINE
5
538
100
AcDbEntity
8
0
100
AcDbLine
10
20.201963525931674
20
-15.198039115836565
30
0
11
19.99021517284454
21
-14.589896882437612
31
0
0
SPLINE
5
539
100
AcDbEntity
8
0
100
AcDbSpline
70
0
71
2
72
6
73
3
74
0
42
0.000000001
43
0.0000000001
44
0.0000000001
40
0
40
0
40
0
40
1
40
1
40
1
10
19.99021517284454
20
-14.589896882437614
30
0
10
21.209835337926361
20
-14.499440589527266
30
0
10
21.725444019485746
20
-14.422743113747803
30
0
0
SPLINE
5
540
100
AcDbEntity
8
0
100
AcDbSpline
70
0
71
2
72
6
73
3
74
0
42
0.000000001
43
0.0000000001
44
0.0000000001
40
0
40
0
40
0
40
1
40
1
40
1
10
21.725444019485746
20
-14.422743113747803
30
0
10
21.107293461986
20
-13.63536938478857
30
0
10
21.138965319317098
20
-12.334050697291632
30
0
0
LINE
5
541
100
AcDbEntity
8
0
100
AcDbLine
10
21.138965319317098
20
-12.334050697291632
30
0
11
21.760030202383387
21
-12.296534004158453
31
0
0
SPLINE
5
542
100
AcDbEntity
8
0
100
AcDbSpline
70
0
71
2
72
6
73
3
74
0
42
0.000000001
43
0.0000000001
44
0.0000000001
40
0
40
0
40
0
40
1
40
1
40
1
10
21.760030202383387
20
-12.296534004158453
30
0
10
21.520781598209663
20
-13.85253160108919
30
0
10
22.893797711902799
20
-14.793292270650028
30
0
0
LINE
5
543
100
AcDbEntity
8
0
100
AcDbLine
10
22.893797711902799
20
-14.793292270650028
30
0
11
23.695757684929571
21
-13.622852220242008
31
0
0
LINE
5
544
100
AcDbEntity
8
0
100
AcDbLine
10
22.346534247745229
20
-19.743472735989439
30
0
11
18.295011261094189
21
-16.967457626151614
31
0
0
LINE
5
545
100
AcDbEntity
8
0
100
AcDbLine
10
18.295011261094189
20
-16.967457626151617
30
0
11
18.603457365692734
21
-16.517288432729259
31
0
0
LINE
5
546
100
AcDbEntity
8
0
100
AcDbLine
10
18.603457365692734
20
-16.517288432729256
30
0
11
18.963592917110471
21
-16.76404545116883
31
0
0
LINE
5
547
100
AcDbEntity
8
0
100
AcDbLine
10
18.963592917110468
20
-16.76404545116883
30
0
11
19.611329837837964
21
-15.81868999747199
31
0
0
LINE
5
548
100
AcDbEntity
8
0
100
AcDbLine
10
19.611329837837967
20
-15.81868999747199
30
0
11
19.183668686142049
21
-15.525665911736805
31
0
0
LINE
5
549
100
AcDbEntity
8
0
100
AcDbLine
10
19.183668686142049
20
-15.525665911736805
30
0
11
19.492114790740594
21
-15.075496718314447
31
0
0
LINE
5
550
100
AcDbEntity
8
0
100
AcDbLine
10
19.492114790740594
20
-15.075496718314447
30
0
11
23.611163377669815
21
-17.897778895447882
31
0
0
LINE
5
551
100
AcDbEntity
8
0
100
AcDbLine
10
23.611163377669815
20
-17.897778895447882
30
0
11
22.346534247745229
21
-19.743472735989439
31
0
0
LINE
5
552
100
AcDbEntity
8
0
100
AcDbLine
10
22.227319446497663
20
-19.000279625282815
30
0
11
22.875056367225159
21
-18.054924171585977
31
0
0
LINE
5
553
100
AcDbEntity
8
0
100
AcDbLine
10
22.875056367225163
20
-18.054924171585977
30
0
11
20.038990497834263
21
-16.11171374630533
31
0
0
LINE
5
554
100
AcDbEntity
8
0
100
AcDbLine
10
20.038990497834263
20
-16.11171374630533
30
0
11
19.391253577106767
21
-17.057069200002172
31
0
0
LINE
5
555
100
AcDbEntity
8
0
100
AcDbLine
10
19.391253577106767
20
-17.057069200002172
30
0
11
22.227319446497663
21
-19.000279625282815
31
0
0
SPLINE
5
556
100
AcDbEntity
8
0
100
AcDbSpline
70
0
71
2
72
6
73
3
74
0
42
0.000000001
43
0.0000000001
44
0.0000000001
40
0
40
0
40
0
40
1
40
1
40
1
10
17.956865136118282
20
-20.706088341954263
30
0
10
19.2300089939943
20
-22.055744821340415
30
0
10
20.002140606118338
20
-22.715225852479687
30
0
0
LINE
5
557
100
AcDbEntity
8
0
100
AcDbLine
10
20.002140606118338
20
-22.715225852479687
30
0
11
19.605182843568244
21
-23.089679904266788
31
0
0
SPLINE
5
558
100
AcDbEntity
8
0
100
AcDbSpline
70
0
71
2
72
6
73
3
74
0
42
0.000000001
43
0.0000000001
44
0.0000000001
40
0
40
0
40
0
40
1
40
1
40
1
10
19.605182843568244
20
-23.089679904266788
30
0
10
19.368133245189561
20
-23.275781740935216
30
0
10
19.415705234724776
20
-22.968342240409434
30
0
0
SPLINE
5
559
100
AcDbEntity
8
0
100
AcDbSpline
70
0
71
2
72
6
73
3
74
0
42
0.000000001
43
0.0000000001
44
0.0000000001
40
0
40
0
40
0
40
1
40
1
40
1
10
19.415705234724776
20
-22.968342240409434
30
0
10
18.757034986462045
20
-22.389377777573639
30
0
10
17.521336860964233
20
-21.079417421305827
30
0
0
SPLINE
5
560
100
AcDbEntity
8
0
100
AcDbSpline
70
0
71
2
72
6
73
3
74
0
42
0.000000001
43
0.0000000001
44
0.0000000001
40
0
40
0
40
0
40
1
40
1
40
1
10
17.521336860964233
20
-21.079417421305827
30
0
10
16.117134064512761
20
-19.590825703348184
30
0
10
16.814871610906785
20
-17.507294139382644
30
0
0
LINE
5
561
100
AcDbEntity
8
0
100
AcDbLine
10
16.814871610906785
20
-17.507294139382644
30
0
11
17.470571899722007
21
-17.526422511549754
31
0
0
SPLINE
5
562
100
AcDbEntity
8
0
100
AcDbSpline
70
0
71
2
72
6
73
3
74
0
42
0.000000001
43
0.0000000001
44
0.0000000001
40
0
40
0
40
0
40
1
40
1
40
1
10
17.470571899722007
20
-17.526422511549754
30
0
10
16.739889774559728
20
-19.415975938850828
30
0
10
17.956865136118282
20
-20.706088341954263
30
0
0
SPLINE
5
563
100
AcDbEntity
8
0
100
AcDbSpline
70
0
71
2
72
6
73
3
74
0
42
0.000000001
43
0.0000000001
44
0.0000000001
40
0
40
0
40
0
40
1
40
1
40
1
10
18.688672655005366
20
-18.777964414339131
30
0
10
18.736244644540577
20
-18.47052491381335
30
0
10
18.954571478980004
20
-18.264575123980539
30
0
0
SPLINE
5
564
100
AcDbEntity
8
0
100
AcDbSpline
70
0
71
2
72
6
73
3
74
0
42
0.000000001
43
0.0000000001
44
0.0000000001
40
0
40
0
40
0
40
1
40
1
40
1
10
18.954571478980004
20
-18.264575123980539
30
0
10
19.093506717551495
20
-18.133516185405085
30
0
10
19.324930177594801
20
-18.140267296176003
30
0
0
SPLINE
5
565
100
AcDbEntity
8
0
100
AcDbSpline
70
0
71
2
72
6
73
3
74
0
42
0.000000001
43
0.0000000001
44
0.0000000001
40
0
40
0
40
0
40
1
40
1
40
1
10
19.324930177594801
20
-18.140267296176003
30
0
10
19.594924354741746
20
-18.148143596172041
30
0
10
20.587227367027911
20
-19.20008142846125
30
0
0
SPLINE
5
566
100
AcDbEntity
8
0
100
AcDbSpline
70
0
71
2
72
6
73
3
74
0
42
0.000000001
43
0.0000000001
44
0.0000000001
40
0
40
0
40
0
40
1
40
1
40
1
10
20.587227367027911
20
-19.20008142846125
30
0
10
21.336135470602112
20
-19.993996953561435
30
0
10
21.874593298430007
20
-20.72386825701215
30
0
0
LINE
5
567
100
AcDbEntity
8
0
100
AcDbLine
10
21.874593298430007
20
-20.72386825701215
30
0
11
21.437939792143339
21
-21.135767683303008
31
0
0
SPLINE
5
568
100
AcDbEntity
8
0
100
AcDbSpline
70
0
71
2
72
6
73
3
74
0
42
0.000000001
43
0.0000000001
44
0.0000000001
40
0
40
0
40
0
40
1
40
1
40
1
10
21.437939792143339
20
-21.135767683303008
30
0
10
21.222988308589692
20
-21.226005526324585
30
0
10
21.306880853567883
20
-20.996832444731517
30
0
0
SPLINE
5
569
100
AcDbEntity
8
0
100
AcDbSpline
70
0
71
2
72
6
73
3
74
0
42
0.000000001
43
0.0000000001
44
0.0000000001
40
0
40
0
40
0
40
1
40
1
40
1
10
21.306880853567883
20
-20.996832444731517
30
0
10
20.956775282766166
20
-20.426869675616555
30
0
10
20.17042165131344
20
-19.593258244187609
30
0
0
SPLINE
5
570
100
AcDbEntity
8
0
100
AcDbSpline
70
0
71
2
72
6
73
3
74
0
42
0.000000001
43
0.0000000001
44
0.0000000001
40
0
40
0
40
0
40
1
40
1
40
1
10
20.17042165131344
20
-19.593258244187609
30
0
10
19.365345460421143
20
-18.739799076383868
30
0
10
19.285953972947997
20
-18.814689825391383
30
0
0
SPLINE
5
571
100
AcDbEntity
8
0
100
AcDbSpline
70
0
71
2
72
6
73
3
74
0
42
0.000000001
43
0.0000000001
44
0.0000000001
40
0
40
0
40
0
40
1
40
1
40
1
10
19.285953972947997
20
-18.814689825391383
30
0
10
19.226410221849651
20
-18.870858014959321
30
0
10
19.202061740864274
20
-19.043863021524189
30
0
0
SPLINE
5
572
100
AcDbEntity
8
0
100
AcDbSpline
70
0
71
2
72
6
73
3
74
0
42
0.000000001
43
0.0000000001
44
0.0000000001
40
0
40
0
40
0
40
1
40
1
40
1
10
19.202061740864274
20
-19.043863021524189
30
0
10
19.175462676928976
20
-19.294009245506757
30
0
10
19.251073217578391
20
-20.010378264000813
30
0
0
LINE
5
573
100
AcDbEntity
8
0
100
AcDbLine
10
19.251073217578391
20
-20.010378264000813
30
0
11
18.672514459075337
21
-19.993500589323361
31
0
0
SPLINE
5
574
100
AcDbEntity
8
0
100
AcDbSpline
70
0
71
2
72
6
73
3
74
0
42
0.000000001
43
0.0000000001
44
0.0000000001
40
0
40
0
40
0
40
1
40
1
40
1
10
18.672514459075337
20
-19.993500589323357
30
0
10
18.616751763195509
20
-19.258408909139884
30
0
10
18.688672655005366
20
-18.777964414339131
30
0
0
SPLINE
5
575
100
AcDbEntity
8
0
100
AcDbSpline
70
0
71
2
72
6
73
3
74
0
42
0.000000001
43
0.0000000001
44
0.0000000001
40
0
40
0
40
0
40
1
40
1
40
1
10
12.814480118379532
20
-23.007184214498039
30
0
10
11.729586475826856
20
-23.37430357715812
30
0
10
10.550591860665088
20
-23.479562738511234
30
0
0
LINE
5
576
100
AcDbEntity
8
0
100
AcDbLine
10
10.550591860665088
20
-23.479562738511234
30
0
11
10.497805962387122
21
-22.810516340351604
31
0
0
SPLINE
5
577
100
AcDbEntity
8
0
100
AcDbSpline
70
0
71
2
72
6
73
3
74
0
42
0.000000001
43
0.0000000001
44
0.0000000001
40
0
40
0
40
0
40
1
40
1
40
1
10
10.497805962387122
20
-22.810516340351601
30
0
10
11.686398506282515
20
-22.826902061332937
30
0
10
12.546885144932503
20
-22.563169373897004
30
0
0
SPLINE
5
578
100
AcDbEntity
8
0
100
AcDbSpline
70
0
71
2
72
6
73
3
74
0
42
0.000000001
43
0.0000000001
44
0.0000000001
40
0
40
0
40
0
40
1
40
1
40
1
10
12.546885144932503
20
-22.563169373897004
30
0
10
12.180702306795402
20
-21.955569715309004
30
0
10
12.301410717020849
20
-21.468678466946454
30
0
0
SPLINE
5
579
100
AcDbEntity
8
0
100
AcDbSpline
70
0
71
2
72
6
73
3
74
0
42
0.000000001
43
0.0000000001
44
0.0000000001
40
0
40
0
40
0
40
1
40
1
40
1
10
12.301410717020849
20
-21.468678466946454
30
0
10
12.412833781301515
20
-21.019239853071198
30
0
10
13.043802736066441
20
-20.638973012287977
30
0
0
SPLINE
5
580
100
AcDbEntity
8
0
100
AcDbSpline
70
0
71
2
72
6
73
3
74
0
42
0.000000001
43
0.0000000001
44
0.0000000001
40
0
40
0
40
0
40
1
40
1
40
1
10
13.043802736066441
20
-20.638973012287977
30
0
10
13.534556424272825
20
-20.343209879715975
30
0
10
14.021447608822502
20
-20.463918328399615
30
0
0
SPLINE
5
581
100
AcDbEntity
8
0
100
AcDbSpline
70
0
71
2
72
6
73
3
74
0
42
0.000000001
43
0.0000000001
44
0.0000000001
40
0
40
0
40
0
40
1
40
1
40
1
10
14.021447608822502
20
-20.463918328399615
30
0
10
14.35852628862275
20
-20.547485882713907
30
0
10
14.58386971562965
20
-20.921393600538678
30
0
0
SPLINE
5
582
100
AcDbEntity
8
0
100
AcDbSpline
70
0
71
2
72
6
73
3
74
0
42
0.000000001
43
0.0000000001
44
0.0000000001
40
0
40
0
40
0
40
1
40
1
40
1
10
14.58386971562965
20
-20.921393600538678
30
0
10
14.781044829678837
20
-21.248562215506599
30
0
10
14.688192352459788
20
-21.623094231735777
30
0
0
SPLINE
5
583
100
AcDbEntity
8
0
100
AcDbSpline
70
0
71
2
72
6
73
3
74
0
42
0.000000001
43
0.0000000001
44
0.0000000001
40
0
40
0
40
0
40
1
40
1
40
1
10
14.688192352459788
20
-21.623094231735777
30
0
10
14.56748394223434
20
-22.109985480098327
30
0
10
13.936514987469415
20
-22.490252320881545
30
0
0
SPLINE
5
584
100
AcDbEntity
8
0
100
AcDbSpline
70
0
71
2
72
6
73
3
74
0
42
0.000000001
43
0.0000000001
44
0.0000000001
40
0
40
0
40
0
40
1
40
1
40
1
10
13.936514987469415
20
-22.490252320881545
30
0
10
13.74956138380853
20
-22.602923880552254
30
0
10
13.33820036716072
20
-22.81898201402835
30
0
0
LINE
5
585
100
AcDbEntity
8
0
100
AcDbLine
10
13.33820036716072
20
-22.81898201402835
30
0
11
13.774803064695663
21
-23.543427898249469
31
0
0
LINE
5
586
100
AcDbEntity
8
0
100
AcDbLine
10
13.774803064695663
20
-23.543427898249469
30
0
11
15.522696107149329
21
-22.426308744362569
31
0
0
LINE
5
587
100
AcDbEntity
8
0
100
AcDbLine
10
15.522696107149329
20
-22.426308744362569
30
0
11
15.804375237075215
21
-22.893693136392031
31
0
0
LINE
5
588
100
AcDbEntity
8
0
100
AcDbLine
10
15.804375237075215
20
-22.893693136392027
30
0
11
14.056482194621546
21
-24.010812290278928
31
0
0
LINE
5
589
100
AcDbEntity
8
0
100
AcDbLine
10
14.056482194621546
20
-24.010812290278928
30
0
11
14.549420595075475
21
-24.828734848704734
31
0
0
LINE
5
590
100
AcDbEntity
8
0
100
AcDbLine
10
14.549420595075475
20
-24.828734848704734
30
0
11
16.703875562184393
21
-23.434735197090887
31
0
0
LINE
5
591
100
AcDbEntity
8
0
100
AcDbLine
10
16.703875562184393
20
-23.434735197090891
30
0
11
16.985554692110277
21
-23.902119589120353
31
0
0
LINE
5
592
100
AcDbEntity
8
0
100
AcDbLine
10
16.985554692110277
20
-23.90211958912035
30
0
11
14.83109972500136
21
-25.296119240734196
31
0
0
LINE
5
593
100
AcDbEntity
8
0
100
AcDbLine
10
14.83109972500136
20
-25.296119240734196
30
0
11
15.380373982207015
21
-26.207518728616197
31
0
0
LINE
5
594
100
AcDbEntity
8
0
100
AcDbLine
10
15.380373982207015
20
-26.207518728616197
30
0
11
14.9597281825314
21
-26.461029853249851
31
0
0
SPLINE
5
595
100
AcDbEntity
8
0
100
AcDbSpline
70
0
71
2
72
6
73
3
74
0
42
0.000000001
43
0.0000000001
44
0.0000000001
40
0
40
0
40
0
40
1
40
1
40
1
10
14.9597281825314
20
-26.461029853249851
30
0
10
14.674498940299014
20
-26.56921467467232
30
0
10
14.800317876674104
20
-26.302243999629695
30
0
0
LINE
5
596
100
AcDbEntity
8
0
100
AcDbLine
10
14.800317876674104
20
-26.302243999629695
30
0
11
14.391883338264131
21
-25.624536963013931
31
0
0
LINE
5
597
100
AcDbEntity
8
0
100
AcDbLine
10
14.391883338264131
20
-25.624536963013931
30
0
11
12.517859031898041
21
-26.849529121288974
31
0
0
LINE
5
598
100
AcDbEntity
8
0
100
AcDbLine
10
12.517859031898041
20
-26.849529121288967
30
0
11
12.236179901972157
21
-26.382144729259505
31
0
0
LINE
5
599
100
AcDbEntity
8
0
100
AcDbLine
10
12.236179901972157
20
-26.382144729259508
30
0
11
14.110204208338246
21
-25.157152570984465
31
0
0
LINE
5
600
100
AcDbEntity
8
0
100
AcDbLine
10
14.110204208338246
20
-25.157152570984465
30
0
11
13.603181805238203
21
-24.315860716381735
31
0
0
LINE
5
601
100
AcDbEntity
8
0
100
AcDbLine
10
13.603181805238201
20
-24.315860716381739
30
0
11
12.112350510227692
21
-25.278056148826838
31
0
0
LINE
5
602
100
AcDbEntity
8
0
100
AcDbLine
10
12.112350510227694
20
-25.278056148826838
30
0
11
11.830671380301808
21
-24.810671756797372
31
0
0
LINE
5
603
100
AcDbEntity
8
0
100
AcDbLine
10
11.830671380301808
20
-24.810671756797372
30
0
11
13.321502675312317
21
-23.848476324352276
31
0
0
LINE
5
604
100
AcDbEntity
8
0
100
AcDbLine
10
13.321502675312315
20
-23.848476324352276
30
0
11
12.814480118379532
21
-23.007184214498039
31
0
0
SPLINE
5
605
100
AcDbEntity
8
0
100
AcDbSpline
70
0
71
2
72
6
73
3
74
0
42
0.000000001
43
0.0000000001
44
0.0000000001
40
0
40
0
40
0
40
1
40
1
40
1
10
13.093974536057875
20
-22.360882915529693
30
0
10
13.379203879709022
20
-22.25269768502298
30
0
10
13.636265244274925
20
-22.097774194330292
30
0
0
SPLINE
5
606
100
AcDbEntity
8
0
100
AcDbSpline
70
0
71
2
72
6
73
3
74
0
42
0.000000001
43
0.0000000001
44
0.0000000001
40
0
40
0
40
0
40
1
40
1
40
1
10
13.636265244274925
20
-22.097774194330292
30
0
10
14.10364963630439
20
-21.816095064404408
30
0
10
14.177931807920313
20
-21.516469824156445
30
0
0
SPLINE
5
607
100
AcDbEntity
8
0
100
AcDbSpline
70
0
71
2
72
6
73
3
74
0
42
0.000000001
43
0.0000000001
44
0.0000000001
40
0
40
0
40
0
40
1
40
1
40
1
10
14.177931807920313
20
-21.516469824156445
30
0
10
14.224358327988329
20
-21.329203994376989
30
0
10
14.11168661448488
20
-21.1422501354646
30
0
0
SPLINE
5
608
100
AcDbEntity
8
0
100
AcDbSpline
70
0
71
2
72
6
73
3
74
0
42
0.000000001
43
0.0000000001
44
0.0000000001
40
0
40
0
40
0
40
1
40
1
40
1
10
14.11168661448488
20
-21.1422501354646
30
0
10
14.02718290627366
20
-21.002034868906065
30
0
10
13.839916975075441
20
-20.955608757922292
30
0
0
SPLINE
5
609
100
AcDbEntity
8
0
100
AcDbSpline
70
0
71
2
72
6
73
3
74
0
42
0.000000001
43
0.0000000001
44
0.0000000001
40
0
40
0
40
0
40
1
40
1
40
1
10
13.839916975075441
20
-20.955608757922292
30
0
10
13.577744829108397
20
-20.890611829127792
30
0
10
13.227206535086303
20
-21.101871176572207
30
0
0
SPLINE
5
610
100
AcDbEntity
8
0
100
AcDbSpline
70
0
71
2
72
6
73
3
74
0
42
0.000000001
43
0.0000000001
44
0.0000000001
40
0
40
0
40
0
40
1
40
1
40
1
10
13.227206535086303
20
-21.101871176572207
30
0
10
12.946776001969226
20
-21.270878592994645
30
0
10
12.872493548894809
20
-21.570503654907469
30
0
0
SPLINE
5
611
100
AcDbEntity
8
0
100
AcDbSpline
70
0
71
2
72
6
73
3
74
0
42
0.000000001
43
0.0000000001
44
0.0000000001
40
0
40
0
40
0
40
1
40
1
40
1
10
12.872493548894809
20
-21.570503654907469
30
0
10
12.788926109955066
20
-21.907582526146349
30
0
10
13.093974536057875
20
-22.360882915529693
30
0
0
SPLINE
5
612
100
AcDbEntity
8
0
100
AcDbSpline
70
0
71
2
72
6
73
3
74
0
42
0.000000001
43
0.0000000001
44
0.0000000001
40
0
40
0
40
0
40
1
40
1
40
1
10
6.0092953588099229
20
-25.239603403186457
30
0
10
6.7060402503950245
20
-23.647234531494114
30
0
10
7.9973340848365666
20
-23.207056516684183
30
0
0
SPLINE
5
613
100
AcDbEntity
8
0
100
AcDbSpline
70
0
71
2
72
6
73
3
74
0
42
0.000000001
43
0.0000000001
44
0.0000000001
40
0
40
0
40
0
40
1
40
1
40
1
10
7.9973340848365666
20
-23.207056516684183
30
0
10
8.9270653861168228
20
-22.890128434485764
30
0
10
9.5157656279269922
20
-23.179507486453605
30
0
0
SPLINE
5
614
100
AcDbEntity
8
0
100
AcDbSpline
70
0
71
2
72
6
73
3
74
0
42
0.000000001
43
0.0000000001
44
0.0000000001
40
0
40
0
40
0
40
1
40
1
40
1
10
9.5157656279269922
20
-23.179507486453605
30
0
10
9.9659481725653549
20
-23.400797532624075
30
0
10
10.291679841984021
20
-24.356354789576791
30
0
0
LINE
5
615
100
AcDbEntity
8
0
100
AcDbLine
10
10.291679841984021
20
-24.356354789576791
30
0
11
11.471356779361807
21
-27.817021848395207
31
0
0
LINE
5
616
100
AcDbEntity
8
0
100
AcDbLine
10
11.471356779361807
20
-27.817021848395207
30
0
11
10.929013402746488
21
-28.001896603076499
31
0
0
SPLINE
5
617
100
AcDbEntity
8
0
100
AcDbSpline
70
0
71
2
72
6
73
3
74
0
42
0.000000001
43
0.0000000001
44
0.0000000001
40
0
40
0
40
0
40
1
40
1
40
1
10
10.92901340274649
20
-28.001896603076499
30
0
10
10.67897347350703
20
-28.029476688241846
30
0
10
10.806933171881301
20
-27.812896318064368
30
0
0
LINE
5
618
100
AcDbEntity
8
0
100
AcDbLine
10
10.806933171881301
20
-27.812896318064368
30
0
11
9.6976848361081771
21
-24.558836622541264
31
0
0
SPLINE
5
619
100
AcDbEntity
8
0
100
AcDbSpline
70
0
71
2
72
6
73
3
74
0
42
0.000000001
43
0.0000000001
44
0.0000000001
40
0
40
0
40
0
40
1
40
1
40
1
10
9.6976848361081771
20
-24.558836622541264
30
0
10
9.4775958287032118
20
-23.913189705320494
30
0
10
9.165931032509091
20
-23.759989277194869
30
0
0
SPLINE
5
620
100
AcDbEntity
8
0
100
AcDbSpline
70
0
71
2
72
6
73
3
74
0
42
0.000000001
43
0.0000000001
44
0.0000000001
40
0
40
0
40
0
40
1
40
1
40
1
10
9.165931032509091
20
-23.759989277194869
30
0
10
8.7850072402993113
20
-23.572743451838683
30
0
10
8.2168381900959346
20
-23.766421697582906
30
0
0
SPLINE
5
621
100
AcDbEntity
8
0
100
AcDbSpline
70
0
71
2
72
6
73
3
74
0
42
0.000000001
43
0.0000000001
44
0.0000000001
40
0
40
0
40
0
40
1
40
1
40
1
10
8.2168381900959346
20
-23.766421697582906
30
0
10
7.2096290217982837
20
-24.109760541442071
30
0
10
6.5639508637156574
20
-25.598241540939725
30
0
0
LINE
5
622
100
AcDbEntity
8
0
100
AcDbLine
10
6.5639508637156574
20
-25.598241540939725
30
0
11
6.009295358809922
21
-25.239603403186457
31
0
0
LINE
5
623
100
AcDbEntity
8
0
100
AcDbLine
10
-0.45041423167783146
20
-25.419581930407404
30
0
11
-0.51909997416002118
21
-24.82325151943229
31
0
0
LINE
5
624
100
AcDbEntity
8
0
100
AcDbLine
10
-0.51909997416002107
20
-24.823251519432294
30
0
11
0.67356055172440055
21
-24.685880068568977
31
0
0
SPLINE
5
625
100
AcDbEntity
8
0
100
AcDbSpline
70
0
71
2
72
6
73
3
74
0
42
0.000000001
43
0.0000000001
44
0.0000000001
40
0
40
0
40
0
40
1
40
1
40
1
10
0.67356055172440144
20
-24.685880068568974
30
0
10
1.7035856186395386
20
-24.567241080527683
30
0
10
2.6813841081556267
20
-24.948997415541957
30
0
0
LINE
5
626
100
AcDbEntity
8
0
100
AcDbLine
10
2.6813841081556267
20
-24.948997415541957
30
0
11
2.4936283081677897
21
-25.465002486682849
31
0
0
SPLINE
5
627
100
AcDbEntity
8
0
100
AcDbSpline
70
0
71
2
72
6
73
3
74
0
42
0.000000001
43
0.0000000001
44
0.0000000001
40
0
40
0
40
0
40
1
40
1
40
1
10
2.4936283081677901
20
-25.465002486682849
30
0
10
1.7451653526049138
20
-25.166693580006822
30
0
10
0.74224629420659105
20
-25.282210479544087
30
0
0
LINE
5
628
100
AcDbEntity
8
0
100
AcDbLine
10
0.74224629420659105
20
-25.282210479544087
30
0
11
-0.45041423167783062
21
-25.419581930407404
31
0
0
SPLINE
5
629
100
AcDbEntity
8
0
100
AcDbSpline
70
0
71
2
72
6
73
3
74
0
42
0.000000001
43
0.0000000001
44
0.0000000001
40
0
40
0
40
0
40
1
40
1
40
1
10
3.6554858183456389
20
-28.160127766210202
30
0
10
3.7842096576721485
20
-25.700869827884741
30
0
10
4.2181918640220211
20
-24.222676396631549
30
0
0
LINE
5
630
100
AcDbEntity
8
0
100
AcDbLine
10
4.2181918640220211
20
-24.222676396631549
30
0
11
4.83637656726561
21
-24.343732151473887
31
0
0
SPLINE
5
631
100
AcDbEntity
8
0
100
AcDbSpline
70
0
71
2
72
6
73
3
74
0
42
0.000000001
43
0.0000000001
44
0.0000000001
40
0
40
0
40
0
40
1
40
1
40
1
10
4.8363765672656109
20
-24.343732151473887
30
0
10
4.3012077105950777
20
-26.135700870729469
30
0
10
4.2184660778969461
20
-28.040352391264211
30
0
0
SPLINE
5
632
100
AcDbEntity
8
0
100
AcDbSpline
70
0
71
2
72
6
73
3
74
0
42
0.000000001
43
0.0000000001
44
0.0000000001
40
0
40
0
40
0
40
1
40
1
40
1
10
4.2184660778969461
20
-28.040352391264211
30
0
10
4.8627638847989338
20
-27.911210505891933
30
0
10
5.3777763072318274
20
-27.851891024659182
30
0
0
LINE
5
633
100
AcDbEntity
8
0
100
AcDbLine
10
5.3777763072318274
20
-27.851891024659182
30
0
11
5.5486415366909734
21
-28.381521107210894
31
0
0
SPLINE
5
634
100
AcDbEntity
8
0
100
AcDbSpline
70
0
71
2
72
6
73
3
74
0
42
0.000000001
43
0.0000000001
44
0.0000000001
40
0
40
0
40
0
40
1
40
1
40
1
10
5.5486415366909725
20
-28.381521107210894
30
0
10
4.7896758517877034
20
-28.468939291201949
30
0
10
4.1995897658535428
20
-28.59183703366724
30
0
0
SPLINE
5
635
100
AcDbEntity
8
0
100
AcDbSpline
70
0
71
2
72
6
73
3
74
0
42
0.000000001
43
0.0000000001
44
0.0000000001
40
0
40
0
40
0
40
1
40
1
40
1
10
4.1995897658535428
20
-28.59183703366724
30
0
10
4.1879506126002211
20
-29.444608935960783
30
0
10
4.1784406800007332
20
-30.077411290797926
30
0
0
LINE
5
636
100
AcDbEntity
8
0
100
AcDbLine
10
4.1784406800007332
20
-30.077411290797926
30
0
11
3.6238340002452718
21
-30.031429414336408
31
0
0
SPLINE
5
637
100
AcDbEntity
8
0
100
AcDbSpline
70
0
71
2
72
6
73
3
74
0
42
0.000000001
43
0.0000000001
44
0.0000000001
40
0
40
0
40
0
40
1
40
1
40
1
10
3.6238340002452718
20
-30.031429414336408
30
0
10
3.3163026772785416
20
-29.984454242976529
30
0
10
3.5446454914144629
20
-29.820826098291015
30
0
0
SPLINE
5
638
100
AcDbEntity
8
0
100
AcDbSpline
70
0
71
2
72
6
73
3
74
0
42
0.000000001
43
0.0000000001
44
0.0000000001
40
0
40
0
40
0
40
1
40
1
40
1
10
3.5446454914144629
20
-29.820826098291015
30
0
10
3.5884982611539851
20
-29.486188652875633
30
0
10
3.6366096543351363
20
-28.711612391562696
30
0
0
SPLINE
5
639
100
AcDbEntity
8
0
100
AcDbSpline
70
0
71
2
72
6
73
3
74
0
42
0.000000001
43
0.0000000001
44
0.0000000001
40
0
40
0
40
0
40
1
40
1
40
1
10
3.6366096543351363
20
-28.711612391562696
30
0
10
3.0225399103529282
20
-28.864737900881963
30
0
10
2.5231376372815228
20
-29.059587158471412
30
0
0
LINE
5
640
100
AcDbEntity
8
0
100
AcDbLine
10
2.5231376372815228
20
-29.059587158471412
30
0
11
2.3522726298717291
21
-28.52995705034391
31
0
0
SPLINE
5
641
100
AcDbEntity
8
0
100
AcDbSpline
70
0
71
2
72
6
73
3
74
0
42
0.000000001
43
0.0000000001
44
0.0000000001
40
0
40
0
40
0
40
1
40
1
40
1
10
2.3522726298717296
20
-28.52995705034391
30
0
10
3.0414157782976279
20
-28.313253309630525
30
0
10
3.6554858183456389
20
-28.160127766210202
30
0
0
SPLINE
5
642
100
AcDbEntity
8
0
100
AcDbSpline
70
0
71
2
72
6
73
3
74
0
42
0.000000001
43
0.0000000001
44
0.0000000001
40
0
40
0
40
0
40
1
40
1
40
1
10
-0.055751695786182554
20
-27.653762793137851
30
0
10
1.5101473260976439
20
-27.418470552755654
30
0
10
2.3609335438424002
20
-26.935959038161236
30
0
0
LINE
5
643
100
AcDbEntity
8
0
100
AcDbLine
10
2.3609335438424002
20
-26.935959038161236
30
0
11
2.5860105682858237
21
-27.459344969280686
31
0
0
SPLINE
5
644
100
AcDbEntity
8
0
100
AcDbSpline
70
0
71
2
72
6
73
3
74
0
42
0.000000001
43
0.0000000001
44
0.0000000001
40
0
40
0
40
0
40
1
40
1
40
1
10
2.5860105682858237
20
-27.459344969280686
30
0
10
1.4735313849813414
20
-28.054394996096818
30
0
10
0.11823540012763645
20
-28.210498909782167
30
0
0
LINE
5
645
100
AcDbEntity
8
0
100
AcDbLine
10
0.11823540012763645
20
-28.210498909782167
30
0
11
-0.055751695786182311
21
-27.653762793137851
31
0
0
ENDSEC
0
SECTION
2
OBJECTS
0
DICTIONARY
5
C
100
AcDbDictionary
3
ACAD_GROUP
350
D
3
ACAD_MLINESTYLE
350
17
0
DICTIONARY
5
D
100
AcDbDictionary
0
DICTIONARY
5
1A
330
C
100
AcDbDictionary
0
DICTIONARY
5
17
100
AcDbDictionary
0
ENDSEC
0
EOF
