0
SECTION
2
HEADER
9
$INSUNITS
70
4
9
$ACADVER
1
AC1014
9
$HANDSEED
5
FFFF
0
ENDSEC
0
SECTION
2
TABLES
0
TABLE
2
VPORT
5
8
100
AcDbSymbolTable
0
ENDTAB
0
TABLE
2
LTYPE
5
5
100
AcDbSymbolTable
0
LTYPE
5
14
100
AcDbSymbolTableRecord
100
AcDbLinetypeTableRecord
2
BYBLOCK
70
0
0
LTYPE
5
15
100
AcDbSymbolTableRecord
100
AcDbLinetypeTableRecord
2
BYLAYER
70
0
0
ENDTAB
0
TABLE
2
LAYER
5
2
100
AcDbSymbolTable
70
2
0
LAYER
5
50
100
AcDbSymbolTableRecord
100
AcDbLayerTableRecord
2
0
70
0
6
CONTINUOUS
0
ENDTAB
0
TABLE
2
STYLE
5
3
100
AcDbSymbolTable
70
1
0
STYLE
5
11
100
AcDbSymbolTableRecord
100
AcDbTextStyleTableRecord
2
STANDARD
70
0
0
ENDTAB
0
TABLE
2
VIEW
5
6
100
AcDbSymbolTable
70
0
0
ENDTAB
0
TABLE
2
UCS
5
7
100
AcDbSymbolTable
70
0
0
ENDTAB
0
TABLE
2
APPID
5
9
100
AcDbSymbolTable
70
2
0
APPID
5
12
100
AcDbSymbolTableRecord
100
AcDbRegAppTableRecord
2
ACAD
70
0
0
ENDTAB
0
TABLE
2
DIMSTYLE
5
A
100
AcDbSymbolTable
70
1
0
ENDTAB
0
TABLE
2
BLOCK_RECORD
5
1
100
AcDbSymbolTable
70
1
0
BLOCK_RECORD
5
1F
100
AcDbSymbolTableRecord
100
AcDbBlockTableRecord
2
*MODEL_SPACE
0
BLOCK_RECORD
5
1B
100
AcDbSymbolTableRecord
100
AcDbBlockTableRecord
2
*PAPER_SPACE
0
ENDTAB
0
ENDSEC
0
SECTION
2
BLOCKS
0
BLOCK
5
20
100
AcDbEntity
100
AcDbBlockBegin
2
*MODEL_SPACE
0
ENDBLK
5
21
100
AcDbEntity
100
AcDbBlockEnd
0
BLOCK
5
1C
100
AcDbEntity
100
AcDbBlockBegin
2
*PAPER_SPACE
0
ENDBLK
5
1D
100
AcDbEntity
100
AcDbBlockEnd
0
ENDSEC
0
SECTION
2
ENTITIES
0
LWPOLYLINE
5
100
100
AcDbEntity
8
0
100
AcDbPolyline
90
4
70
1
43
0.0
10
88.298342715615405
20
-10.715557479888053
10
-39.30415660962715
20
-11.419017100095958
10
-39.640320472134718
20
49.55868198324508
10
87.962178853107787
20
50.262141603452989
0
LINE
5
101
100
AcDbEntity
8
0
100
AcDbLine
10
-31.012007851296023
20
48.146472106753215
30
0
11
-28.623742651419729
21
48.159638370261732
31
0
0
LINE
5
102
100
AcDbEntity
8
0
100
AcDbLine
10
-28.623742651419732
20
48.159638370261732
30
0
11
-28.323943811156479
21
48.376165564121614
31
0
0
LINE
5
103
100
AcDbEntity
8
0
100
AcDbLine
10
-28.323943811156475
20
48.376165564121614
30
0
11
-27.369296116610634
21
47.356514575017641
31
0
0
LINE
5
104
100
AcDbEntity
8
0
100
AcDbLine
10
-27.369296116610634
20
47.356514575017641
30
0
11
-27.641151146624953
21
47.175102472149113
31
0
0
SPLINE
5
105
100
AcDbEntity
8
0
100
AcDbSpline
70
0
71
2
72
6
73
3
74
0
42
0.000000001
43
0.0000000001
44
0.0000000001
40
0
40
0
40
0
40
1
40
1
40
1
10
-27.641151146624949
20
47.175102472149113
30
0
10
-28.477174989535506
20
46.010858631363718
30
0
10
-29.336488545625361
20
45.204607273290947
30
0
0
SPLINE
5
106
100
AcDbEntity
8
0
100
AcDbSpline
70
0
71
2
72
6
73
3
74
0
42
0.000000001
43
0.0000000001
44
0.0000000001
40
0
40
0
40
0
40
1
40
1
40
1
10
-29.336488545625361
20
45.204607273290947
30
0
10
-28.280428367245367
20
44.504415785204131
30
0
10
-26.226375690975271
20
43.892436578478915
30
0
0
LINE
5
107
100
AcDbEntity
8
0
100
AcDbLine
10
-26.226375690975271
20
43.892436578478915
30
0
11
-26.837437891923869
21
42.599824831157946
31
0
0
SPLINE
5
108
100
AcDbEntity
8
0
100
AcDbSpline
70
0
71
2
72
6
73
3
74
0
42
0.000000001
43
0.0000000001
44
0.0000000001
40
0
40
0
40
0
40
1
40
1
40
1
10
-26.837437891923869
20
42.599824831157932
30
0
10
-29.097230339866616
20
43.411049370939054
30
0
10
-30.251232257864995
20
44.399756841307941
30
0
0
SPLINE
5
109
100
AcDbEntity
8
0
100
AcDbSpline
70
0
71
2
72
6
73
3
74
0
42
0.000000001
43
0.0000000001
44
0.0000000001
40
0
40
0
40
0
40
1
40
1
40
1
10
-30.251232257864995
20
44.399756841307941
30
0
10
-31.983050681602492
20
43.014848379353843
30
0
10
-34.335551815629437
20
42.237030988151609
30
0
0
LINE
5
110
100
AcDbEntity
8
0
100
AcDbLine
10
-34.335551815629437
20
42.237030988151609
30
0
11
-34.844257175561722
21
43.41262172437601
31
0
0
SPLINE
5
111
100
AcDbEntity
8
0
100
AcDbSpline
70
0
71
2
72
6
73
3
74
0
42
0.000000001
43
0.0000000001
44
0.0000000001
40
0
40
0
40
0
40
1
40
1
40
1
10
-34.844257175561729
20
43.41262172437601
30
0
10
-32.590771188038659
20
44.209503481252767
30
0
10
-31.162047349213118
20
45.202217367629693
30
0
0
SPLINE
5
112
100
AcDbEntity
8
0
100
AcDbSpline
70
0
71
2
72
6
73
3
74
0
42
0.000000001
43
0.0000000001
44
0.0000000001
40
0
40
0
40
0
40
1
40
1
40
1
10
-31.162047349213118
20
45.202217367629693
30
0
10
-31.774400578226427
20
45.845167756941677
30
0
10
-32.036506761921096
20
46.369823435131224
30
0
0
SPLINE
5
113
100
AcDbEntity
8
0
100
AcDbSpline
70
0
71
2
72
6
73
3
74
0
42
0.000000001
43
0.0000000001
44
0.0000000001
40
0
40
0
40
0
40
1
40
1
40
1
10
-32.036506761921096
20
46.369823435131224
30
0
10
-32.704734219997889
20
45.39323929167282
30
0
10
-33.918504007286728
20
44.540695071527061
30
0
0
LINE
5
114
100
AcDbEntity
8
0
100
AcDbLine
10
-33.918504007286728
20
44.540695071527061
30
0
11
-34.695796070912316
21
45.560470252729601
31
0
0
SPLINE
5
115
100
AcDbEntity
8
0
100
AcDbSpline
70
0
71
2
72
6
73
3
74
0
42
0.000000001
43
0.0000000001
44
0.0000000001
40
0
40
0
40
0
40
1
40
1
40
1
10
-34.695796070912309
20
45.560470252729601
30
0
10
-32.973968909899504
20
46.90183900053902
30
0
10
-31.926803432420201
20
49.052084916715401
30
0
0
LINE
5
116
100
AcDbEntity
8
0
100
AcDbLine
10
-31.926803432420201
20
49.052084916715401
30
0
11
-30.793803207960529
21
48.779506995548331
31
0
0
SPLINE
5
117
100
AcDbEntity
8
0
100
AcDbSpline
70
0
71
2
72
6
73
3
74
0
42
0.000000001
43
0.0000000001
44
0.0000000001
40
0
40
0
40
0
40
1
40
1
40
1
10
-30.793803207960529
20
48.779506995548331
30
0
10
-30.425061238361639
20
48.554728791732501
30
0
10
-30.849047021820258
20
48.282946894252433
30
0
0
LINE
5
118
100
AcDbEntity
8
0
100
AcDbLine
10
-30.849047021820258
20
48.282946894252433
30
0
11
-31.012007851296023
21
48.146472106753215
31
0
0
SPLINE
5
119
100
AcDbEntity
8
0
100
AcDbSpline
70
0
71
2
72
6
73
3
74
0
42
0.000000001
43
0.0000000001
44
0.0000000001
40
0
40
0
40
0
40
1
40
1
40
1
10
-34.232898033980412
20
40.475120980690697
30
0
10
-34.22185642598977
20
38.47225296142507
30
0
10
-35.669650916563199
20
38.464271417428179
30
0
0
LINE
5
120
100
AcDbEntity
8
0
100
AcDbLine
10
-35.669650916563199
20
38.464271417428179
30
0
11
-36.728638892652732
21
38.458433324260696
31
0
0
LINE
5
121
100
AcDbEntity
8
0
100
AcDbLine
10
-36.728638892652725
20
38.458433324260696
30
0
11
-36.858084069921155
21
39.821144221454055
31
0
0
LINE
5
122
100
AcDbEntity
8
0
100
AcDbLine
10
-36.858084069921155
20
39.821144221454055
30
0
11
-36.105195863982921
21
39.825294817674418
31
0
0
SPLINE
5
123
100
AcDbEntity
8
0
100
AcDbSpline
70
0
71
2
72
6
73
3
74
0
42
0.000000001
43
0.0000000001
44
0.0000000001
40
0
40
0
40
0
40
1
40
1
40
1
10
-36.105195863982921
20
39.825294817674418
30
0
10
-35.626860957233021
20
39.827931829438398
30
0
10
-35.630978648514883
20
40.57485131694893
30
0
0
SPLINE
5
124
100
AcDbEntity
8
0
100
AcDbSpline
70
0
71
2
72
6
73
3
74
0
42
0.000000001
43
0.0000000001
44
0.0000000001
40
0
40
0
40
0
40
1
40
1
40
1
10
-35.630978648514883
20
40.57485131694893
30
0
10
-35.637230389684589
20
41.708872055969351
30
0
10
-36.772925465870834
20
43.862431916796027
30
0
0
LINE
5
125
100
AcDbEntity
8
0
100
AcDbLine
10
-36.772925465870834
20
43.862431916796027
30
0
11
-35.667737007061582
21
47.242552329001697
31
0
0
LINE
5
126
100
AcDbEntity
8
0
100
AcDbLine
10
-35.667737007061582
20
47.242552329001704
30
0
11
-37.052436171559513
21
47.234918623129872
31
0
0
LINE
5
127
100
AcDbEntity
8
0
100
AcDbLine
10
-37.052436171559513
20
47.234918623129872
30
0
11
-36.992945909059955
21
36.443814255077946
31
0
0
LINE
5
128
100
AcDbEntity
8
0
100
AcDbLine
10
-36.992945909059955
20
36.443814255077939
30
0
11
-38.465468053840546
21
36.4356963900346
31
0
0
LINE
5
129
100
AcDbEntity
8
0
100
AcDbLine
10
-38.465468053840546
20
36.4356963900346
30
0
11
-38.531572005261999
21
48.426476207736926
31
0
0
LINE
5
130
100
AcDbEntity
8
0
100
AcDbLine
10
-38.531572005261999
20
48.426476207736926
30
0
11
-35.253995326387049
21
48.444545155115826
31
0
0
LINE
5
131
100
AcDbEntity
8
0
100
AcDbLine
10
-35.253995326387049
20
48.444545155115819
30
0
11
-35.094326267426197
21
48.714017541963734
31
0
0
LINE
5
132
100
AcDbEntity
8
0
100
AcDbLine
10
-35.094326267426197
20
48.714017541963734
30
0
11
-33.952642827365523
21
47.794308304577996
31
0
0
LINE
5
133
100
AcDbEntity
8
0
100
AcDbLine
10
-33.952642827365523
20
47.79430830457801
30
0
11
-34.19145269279884
21
47.496262226321598
31
0
0
LINE
5
134
100
AcDbEntity
8
0
100
AcDbLine
10
-34.19145269279884
20
47.496262226321598
30
0
11
-35.535889649276299
21
43.897390157917201
31
0
0
SPLINE
5
135
100
AcDbEntity
8
0
100
AcDbSpline
70
0
71
2
72
6
73
3
74
0
42
0.000000001
43
0.0000000001
44
0.0000000001
40
0
40
0
40
0
40
1
40
1
40
1
10
-35.535889649276299
20
43.897390157917201
30
0
10
-34.243027740778253
20
42.312576703365885
30
0
10
-34.232898033980412
20
40.475120980690697
30
0
0
SPLINE
5
136
100
AcDbEntity
8
0
100
AcDbSpline
70
0
71
2
72
6
73
3
74
0
42
0.000000001
43
0.0000000001
44
0.0000000001
40
0
40
0
40
0
40
1
40
1
40
1
10
-31.219409142463679
20
46.945618006362722
30
0
10
-31.071657722706398
20
46.747760092378641
30
0
10
-30.254708494535993
20
45.958424611489185
30
0
0
SPLINE
5
137
100
AcDbEntity
8
0
100
AcDbSpline
70
0
71
2
72
6
73
3
74
0
42
0.000000001
43
0.0000000001
44
0.0000000001
40
0
40
0
40
0
40
1
40
1
40
1
10
-30.254708494535993
20
45.958424611489185
30
0
10
-29.588161160256632
20
46.62121560875989
30
0
10
-29.192666249487242
20
46.956791234107413
30
0
0
LINE
5
138
100
AcDbEntity
8
0
100
AcDbLine
10
-29.192666249487242
20
46.956791234107413
30
0
11
-31.219409142463679
21
46.945618006362722
31
0
0
LINE
5
139
100
AcDbEntity
8
0
100
AcDbLine
10
-33.821729535050608
20
42.298698488957527
30
0
11
-30.526248339995362
21
42.316866142115842
31
0
0
LINE
5
140
100
AcDbEntity
8
0
100
AcDbLine
10
-30.526248339995359
20
42.316866142115842
30
0
11
-30.533035947979783
21
43.548089254803983
31
0
0
LINE
5
141
100
AcDbEntity
8
0
100
AcDbLine
10
-30.533035947979783
20
43.548089254803983
30
0
11
-29.266001120762812
21
43.555074289133699
31
0
0
SPLINE
5
142
100
AcDbEntity
8
0
100
AcDbSpline
70
0
71
2
72
6
73
3
74
0
42
0.000000001
43
0.0000000001
44
0.0000000001
40
0
40
0
40
0
40
1
40
1
40
1
10
-29.266001120762812
20
43.555074289133699
30
0
10
-28.738478350884566
20
43.451398207370175
30
0
10
-29.05794714455898
20
43.090660792167832
30
0
0
LINE
5
143
100
AcDbEntity
8
0
100
AcDbLine
10
-29.05794714455898
20
43.090660792167832
30
0
11
-29.053726046205419
21
42.32498400798066
31
0
0
LINE
5
144
100
AcDbEntity
8
0
100
AcDbLine
10
-29.053726046205419
20
42.32498400798066
30
0
11
-27.448190856293714
21
42.333835160433779
31
0
0
LINE
5
145
100
AcDbEntity
8
0
100
AcDbLine
10
-27.448190856293717
20
42.333835160433765
30
0
11
-27.441577170657716
21
41.13416030682076
31
0
0
LINE
5
146
100
AcDbEntity
8
0
100
AcDbLine
10
-27.441577170657716
20
41.13416030682076
30
0
11
-29.047112360569422
21
41.125309154367649
31
0
0
LINE
5
147
100
AcDbEntity
8
0
100
AcDbLine
10
-29.047112360569418
20
41.125309154367656
30
0
11
-29.040160234464061
21
39.864243641615779
31
0
0
LINE
5
148
100
AcDbEntity
8
0
100
AcDbLine
10
-29.040160234464064
20
39.864243641615779
30
0
11
-26.418270430925066
21
39.878697853838716
31
0
0
LINE
5
149
100
AcDbEntity
8
0
100
AcDbLine
10
-26.418270430925066
20
39.878697853838716
30
0
11
-26.411656742003174
21
38.679022404188323
31
0
0
LINE
5
150
100
AcDbEntity
8
0
100
AcDbLine
10
-26.411656742003174
20
38.679022404188323
30
0
11
-29.033546545542173
21
38.664568191965387
31
0
0
LINE
5
151
100
AcDbEntity
8
0
100
AcDbLine
10
-29.033546545542173
20
38.664568191965387
30
0
11
-29.021842159668168
21
36.541477046901711
31
0
0
LINE
5
152
100
AcDbEntity
8
0
100
AcDbLine
10
-29.021842159668164
20
36.541477046901711
30
0
11
-30.494364453458104
21
36.5333591810369
31
0
0
LINE
5
153
100
AcDbEntity
8
0
100
AcDbLine
10
-30.494364453458111
20
36.5333591810369
30
0
11
-30.506068839332112
21
38.656450326100575
31
0
0
LINE
5
154
100
AcDbEntity
8
0
100
AcDbLine
10
-30.506068839332112
20
38.656450326100575
30
0
11
-34.283296659160044
21
38.635626852723284
31
0
0
LINE
5
155
100
AcDbEntity
8
0
100
AcDbLine
10
-34.283296659160044
20
38.635626852723284
30
0
11
-34.289910348081932
21
39.835302302373677
31
0
0
LINE
5
156
100
AcDbEntity
8
0
100
AcDbLine
10
-34.289910348081932
20
39.835302302373677
30
0
11
-32.70313364692165
21
39.844050041183309
31
0
0
LINE
5
157
100
AcDbEntity
8
0
100
AcDbLine
10
-32.70313364692165
20
39.844050041183301
30
0
11
-32.710085773027004
21
41.105115553935185
31
0
0
LINE
5
158
100
AcDbEntity
8
0
100
AcDbLine
10
-32.710085773027004
20
41.105115553935185
30
0
11
-33.815115849414603
21
41.099023635344523
31
0
0
LINE
5
159
100
AcDbEntity
8
0
100
AcDbLine
10
-33.815115849414603
20
41.099023635344523
30
0
11
-33.821729535050608
21
42.298698488957527
31
0
0
LINE
5
160
100
AcDbEntity
8
0
100
AcDbLine
10
-31.394319578822913
20
39.851265400225138
30
0
11
-30.512682528254004
21
39.856125775750961
31
0
0
LINE
5
161
100
AcDbEntity
8
0
100
AcDbLine
10
-30.512682528254004
20
39.856125775750968
30
0
11
-30.519634654359361
21
41.117191288502852
31
0
0
LINE
5
162
100
AcDbEntity
8
0
100
AcDbLine
10
-30.519634654359361
20
41.117191288502838
30
0
11
-31.40127170492827
21
41.112330912977015
31
0
0
LINE
5
163
100
AcDbEntity
8
0
100
AcDbLine
10
-31.40127170492827
20
41.112330912977022
30
0
11
-31.394319578822913
21
39.851265400225145
31
0
0
SPLINE
5
164
100
AcDbEntity
8
0
100
AcDbSpline
70
0
71
2
72
6
73
3
74
0
42
0.000000001
43
0.0000000001
44
0.0000000001
40
0
40
0
40
0
40
1
40
1
40
1
10
-18.19420085739463
20
42.811187320291779
30
0
10
-18.214159434287353
20
46.4315291583993
30
0
10
-18.439790079128372
20
48.53724016109048
30
0
0
LINE
5
165
100
AcDbEntity
8
0
100
AcDbLine
10
-18.439790079128372
20
48.53724016109048
30
0
11
-17.211976896350848
21
48.544008970477527
31
0
0
SPLINE
5
166
100
AcDbEntity
8
0
100
AcDbSpline
70
0
71
2
72
6
73
3
74
0
42
0.000000001
43
0.0000000001
44
0.0000000001
40
0
40
0
40
0
40
1
40
1
40
1
10
-17.211976896350851
20
48.54400897047752
30
0
10
-16.453488148746128
20
48.460365239553965
30
0
10
-16.93233393606674
20
47.931626556561525
30
0
0
SPLINE
5
167
100
AcDbEntity
8
0
100
AcDbSpline
70
0
71
2
72
6
73
3
74
0
42
0.000000001
43
0.0000000001
44
0.0000000001
40
0
40
0
40
0
40
1
40
1
40
1
10
-16.93233393606674
20
47.931626556561525
30
0
10
-16.762921258182271
20
46.279227115566016
30
0
10
-16.743550251640119
20
42.765466299464528
30
0
0
SPLINE
5
168
100
AcDbEntity
8
0
100
AcDbSpline
70
0
71
2
72
6
73
3
74
0
42
0.000000001
43
0.0000000001
44
0.0000000001
40
0
40
0
40
0
40
1
40
1
40
1
10
-16.743550251640119
20
42.765466299464528
30
0
10
-16.720884167422017
20
38.65400216843296
30
0
10
-20.703117072811857
20
36.533618427151332
30
0
0
LINE
5
169
100
AcDbEntity
8
0
100
AcDbLine
10
-20.703117072811857
20
36.533618427151332
30
0
11
-21.751040933966284
21
37.614147719148185
31
0
0
SPLINE
5
170
100
AcDbEntity
8
0
100
AcDbSpline
70
0
71
2
72
6
73
3
74
0
42
0.000000001
43
0.0000000001
44
0.0000000001
40
0
40
0
40
0
40
1
40
1
40
1
10
-21.751040933966284
20
37.614147719148185
30
0
10
-18.175318719530999
20
39.386103755062777
30
0
10
-18.19420085739463
20
42.811187320291779
30
0
0
SPLINE
5
171
100
AcDbEntity
8
0
100
AcDbSpline
70
0
71
2
72
6
73
3
74
0
42
0.000000001
43
0.0000000001
44
0.0000000001
40
0
40
0
40
0
40
1
40
1
40
1
10
-21.5585248292318
20
40.8962955145889
30
0
10
-22.080656163881642
20
40.485839667594625
30
0
10
-22.726111014345534
20
40.482281340552682
30
0
0
SPLINE
5
172
100
AcDbEntity
8
0
100
AcDbSpline
70
0
71
2
72
6
73
3
74
0
42
0.000000001
43
0.0000000001
44
0.0000000001
40
0
40
0
40
0
40
1
40
1
40
1
10
-22.726111014345534
20
40.482281340552682
30
0
10
-23.172897065982912
20
40.479818254423009
30
0
10
-23.541557592468195
20
40.844435105084472
30
0
0
SPLINE
5
173
100
AcDbEntity
8
0
100
AcDbSpline
70
0
71
2
72
6
73
3
74
0
42
0.000000001
43
0.0000000001
44
0.0000000001
40
0
40
0
40
0
40
1
40
1
40
1
10
-23.541557592468195
20
40.844435105084472
30
0
10
-23.964235037356225
20
41.26332543168548
30
0
10
-23.980259236399423
20
44.169999516219427
30
0
0
SPLINE
5
174
100
AcDbEntity
8
0
100
AcDbSpline
70
0
71
2
72
6
73
3
74
0
42
0.000000001
43
0.0000000001
44
0.0000000001
40
0
40
0
40
0
40
1
40
1
40
1
10
-23.980259236399423
20
44.169999516219427
30
0
10
-23.992123444852403
20
46.322081323915931
30
0
10
-23.776442348152557
20
48.186361044569843
30
0
0
LINE
5
175
100
AcDbEntity
8
0
100
AcDbLine
10
-23.776442348152557
20
48.186361044569843
30
0
11
-22.414763935784961
21
48.193867839373034
31
0
0
SPLINE
5
176
100
AcDbEntity
8
0
100
AcDbSpline
70
0
71
2
72
6
73
3
74
0
42
0.000000001
43
0.0000000001
44
0.0000000001
40
0
40
0
40
0
40
1
40
1
40
1
10
-22.414763935784961
20
48.193867839373041
30
0
10
-21.854743395300602
20
47.918131139396714
30
0
10
-22.302340223496088
20
47.598469070101508
30
0
0
SPLINE
5
177
100
AcDbEntity
8
0
100
AcDbSpline
70
0
71
2
72
6
73
3
74
0
42
0.000000001
43
0.0000000001
44
0.0000000001
40
0
40
0
40
0
40
1
40
1
40
1
10
-22.302340223496088
20
47.598469070101508
30
0
10
-22.542230825043816
20
46.413637244129752
30
0
10
-22.529905957308909
20
44.177995166557558
30
0
0
SPLINE
5
178
100
AcDbEntity
8
0
100
AcDbSpline
70
0
71
2
72
6
73
3
74
0
42
0.000000001
43
0.0000000001
44
0.0000000001
40
0
40
0
40
0
40
1
40
1
40
1
10
-22.529905957308909
20
44.177995166557558
30
0
10
-22.51782552391326
20
41.986691714421617
30
0
10
-22.467518776086706
20
41.986969050413521
30
0
0
SPLINE
5
179
100
AcDbEntity
8
0
100
AcDbSpline
70
0
71
2
72
6
73
3
74
0
42
0.000000001
43
0.0000000001
44
0.0000000001
40
0
40
0
40
0
40
1
40
1
40
1
10
-22.467518776086706
20
41.986969050413521
30
0
10
-22.379696242832093
20
41.987453207120602
30
0
10
-22.147952801063717
20
42.175466630189398
30
0
0
SPLINE
5
180
100
AcDbEntity
8
0
100
AcDbSpline
70
0
71
2
72
6
73
3
74
0
42
0.000000001
43
0.0000000001
44
0.0000000001
40
0
40
0
40
0
40
1
40
1
40
1
10
-22.147952801063717
20
42.175466630189398
30
0
10
-21.803414846415954
20
42.474096172720017
30
0
10
-20.836468226069389
20
43.708982068521685
30
0
0
LINE
5
181
100
AcDbEntity
8
0
100
AcDbLine
10
-20.836468226069389
20
43.708982068521685
30
0
11
-19.84627972894608
21
42.738129378148777
31
0
0
SPLINE
5
182
100
AcDbEntity
8
0
100
AcDbSpline
70
0
71
2
72
6
73
3
74
0
42
0.000000001
43
0.0000000001
44
0.0000000001
40
0
40
0
40
0
40
1
40
1
40
1
10
-19.84627972894608
20
42.738129378148777
30
0
10
-20.798710729285457
20
41.499913471940715
30
0
10
-21.5585248292318
20
40.8962955145889
30
0
0
SPLINE
5
183
100
AcDbEntity
8
0
100
AcDbSpline
70
0
71
2
72
6
73
3
74
0
42
0.000000001
43
0.0000000001
44
0.0000000001
40
0
40
0
40
0
40
1
40
1
40
1
10
-7.8601211992430509
20
40.858407306191367
30
0
10
-5.7558025475594787
20
40.408713097003108
30
0
10
-3.5713420574991783
20
39.342123034595538
30
0
0
LINE
5
184
100
AcDbEntity
8
0
100
AcDbLine
10
-3.5713420574991783
20
39.342123034595538
30
0
11
-4.2501377168217811
21
37.962167420830291
31
0
0
SPLINE
5
185
100
AcDbEntity
8
0
100
AcDbSpline
70
0
71
2
72
6
73
3
74
0
42
0.000000001
43
0.0000000001
44
0.0000000001
40
0
40
0
40
0
40
1
40
1
40
1
10
-4.2501377168217847
20
37.962167420830291
30
0
10
-6.3664154733114353
20
39.189434151076064
30
0
10
-7.853187875020895
20
39.600752319387496
30
0
0
SPLINE
5
186
100
AcDbEntity
8
0
100
AcDbSpline
70
0
71
2
72
6
73
3
74
0
42
0.000000001
43
0.0000000001
44
0.0000000001
40
0
40
0
40
0
40
1
40
1
40
1
10
-7.853187875020895
20
39.600752319387496
30
0
10
-7.8460430279698068
20
38.304728617649872
30
0
10
-8.5862995492711214
20
37.556264933039131
30
0
0
SPLINE
5
187
100
AcDbEntity
8
0
100
AcDbSpline
70
0
71
2
72
6
73
3
74
0
42
0.000000001
43
0.0000000001
44
0.0000000001
40
0
40
0
40
0
40
1
40
1
40
1
10
-8.5862995492711214
20
37.556264933039131
30
0
10
-9.2705956004041781
20
36.864384545176392
30
0
10
-10.784044205570185
20
36.856041056713202
30
0
0
SPLINE
5
188
100
AcDbEntity
8
0
100
AcDbSpline
70
0
71
2
72
6
73
3
74
0
42
0.000000001
43
0.0000000001
44
0.0000000001
40
0
40
0
40
0
40
1
40
1
40
1
10
-10.784044205570185
20
36.856041056713202
30
0
10
-11.979454411654702
20
36.849450881646007
30
0
10
-12.72534819145179
20
37.587164492454221
30
0
0
SPLINE
5
189
100
AcDbEntity
8
0
100
AcDbSpline
70
0
71
2
72
6
73
3
74
0
42
0.000000001
43
0.0000000001
44
0.0000000001
40
0
40
0
40
0
40
1
40
1
40
1
10
-12.72534819145179
20
37.587164492454221
30
0
10
-13.255193036621646
20
38.112048277282483
30
0
10
-13.260307240856593
20
39.03972802418685
30
0
0
SPLINE
5
190
100
AcDbEntity
8
0
100
AcDbSpline
70
0
71
2
72
6
73
3
74
0
42
0.000000001
43
0.0000000001
44
0.0000000001
40
0
40
0
40
0
40
1
40
1
40
1
10
-13.260307240856593
20
39.03972802418685
30
0
10
-13.264603556600632
20
39.819048700278216
30
0
10
-12.687156863529786
20
40.403755181203749
30
0
0
SPLINE
5
191
100
AcDbEntity
8
0
100
AcDbSpline
70
0
71
2
72
6
73
3
74
0
42
0.000000001
43
0.0000000001
44
0.0000000001
40
0
40
0
40
0
40
1
40
1
40
1
10
-12.687156863529786
20
40.403755181203749
30
0
10
-11.963006632370092
20
41.135077521523712
30
0
10
-10.433355346782808
20
41.143510333718616
30
0
0
SPLINE
5
192
100
AcDbEntity
8
0
100
AcDbSpline
70
0
71
2
72
6
73
3
74
0
42
0.000000001
43
0.0000000001
44
0.0000000001
40
0
40
0
40
0
40
1
40
1
40
1
10
-10.433355346782808
20
41.143510333718616
30
0
10
-10.048813479827391
20
41.145630273979286
30
0
10
-9.3343027937271206
20
41.151274613630626
30
0
0
LINE
5
193
100
AcDbEntity
8
0
100
AcDbLine
10
-9.3343027937271206
20
41.151274613630626
30
0
11
-9.3416403650098285
21
42.482257100391394
31
0
0
LINE
5
194
100
AcDbEntity
8
0
100
AcDbLine
10
-9.3416403650098268
20
42.482257100391394
30
0
11
-13.332290889177095
21
42.352820428724883
31
0
0
LINE
5
195
100
AcDbEntity
8
0
100
AcDbLine
10
-13.332290889177095
20
42.352820428724883
30
0
11
-13.339661365398346
21
43.689771633913352
31
0
0
LINE
5
196
100
AcDbEntity
8
0
100
AcDbLine
10
-13.339661365398348
20
43.689771633913359
30
0
11
-9.3490108412310811
21
43.81920830557987
31
0
0
LINE
5
197
100
AcDbEntity
8
0
100
AcDbLine
10
-9.3490108412310811
20
43.81920830557987
30
0
11
-9.3578619903983977
21
45.424742899454181
31
0
0
LINE
5
198
100
AcDbEntity
8
0
100
AcDbLine
10
-9.3578619903983942
20
45.424742899454181
30
0
11
-14.3117131362749
21
45.237130249652665
31
0
0
LINE
5
199
100
AcDbEntity
8
0
100
AcDbLine
10
-14.311713136274902
20
45.237130249652665
30
0
11
-14.319078913668299
21
46.573229121372826
31
0
0
LINE
5
200
100
AcDbEntity
8
0
100
AcDbLine
10
-14.319078913668299
20
46.573229121372826
30
0
11
-9.3652277677917954
21
46.760841771174348
31
0
0
LINE
5
201
100
AcDbEntity
8
0
100
AcDbLine
10
-9.3652277677917972
20
46.760841771174348
30
0
11
-9.3767676322589768
21
48.854089920136886
31
0
0
LINE
5
202
100
AcDbEntity
8
0
100
AcDbLine
10
-9.3767676322589733
20
48.854089920136886
30
0
11
-8.1660082712962581
21
48.860764713536156
31
0
0
SPLINE
5
203
100
AcDbEntity
8
0
100
AcDbSpline
70
0
71
2
72
6
73
3
74
0
42
0.000000001
43
0.0000000001
44
0.0000000001
40
0
40
0
40
0
40
1
40
1
40
1
10
-8.1660082712962598
20
48.860764713536156
30
0
10
-7.4215592024302479
20
48.69433492138495
30
0
10
-7.9007951304701773
20
48.236364949832321
30
0
0
LINE
5
204
100
AcDbEntity
8
0
100
AcDbLine
10
-7.9007951304701773
20
48.236364949832321
30
0
11
-7.8936361836496403
21
46.937783651652381
31
0
0
LINE
5
205
100
AcDbEntity
8
0
100
AcDbLine
10
-7.8936361836496394
20
46.937783651652374
30
0
11
-3.5076489361123282
21
47.122266321506828
31
0
0
LINE
5
206
100
AcDbEntity
8
0
100
AcDbLine
10
-3.5076489361123286
20
47.122266321506828
30
0
11
-3.4999776199022241
21
45.730744913038102
31
0
0
LINE
5
207
100
AcDbEntity
8
0
100
AcDbLine
10
-3.4999776199022214
20
45.730744913038109
30
0
11
-7.8859648707254255
21
45.546262839221043
31
0
0
LINE
5
208
100
AcDbEntity
8
0
100
AcDbLine
10
-7.8859648707254282
20
45.546262839221043
30
0
11
-7.877118423671857
21
43.941581174852416
31
0
0
LINE
5
209
100
AcDbEntity
8
0
100
AcDbLine
10
-7.8771184236718561
20
43.941581174852416
30
0
11
-4.399758680561952
21
44.067335767197335
31
0
0
LINE
5
210
100
AcDbEntity
8
0
100
AcDbLine
10
-4.3997586805619493
20
44.067335767197335
30
0
11
-4.3920826655239917
21
42.674962025260299
31
0
0
LINE
5
211
100
AcDbEntity
8
0
100
AcDbLine
10
-4.3920826655239908
20
42.674962025260299
30
0
11
-7.8694424086338959
21
42.549207432915388
31
0
0
LINE
5
212
100
AcDbEntity
8
0
100
AcDbLine
10
-7.8694424086338977
20
42.549207432915388
30
0
11
-7.86012119924305
21
40.858407306191381
31
0
0
SPLINE
5
213
100
AcDbEntity
8
0
100
AcDbSpline
70
0
71
2
72
6
73
3
74
0
42
0.000000001
43
0.0000000001
44
0.0000000001
40
0
40
0
40
0
40
1
40
1
40
1
10
-9.2988932959084778
20
39.832384088153098
30
0
10
-9.7495435094119678
20
39.911756001823569
30
0
10
-10.319112071401877
20
39.90861602818341
30
0
0
SPLINE
5
214
100
AcDbEntity
8
0
100
AcDbSpline
70
0
71
2
72
6
73
3
74
0
42
0.000000001
43
0.0000000001
44
0.0000000001
40
0
40
0
40
0
40
1
40
1
40
1
10
-10.319112071401877
20
39.90861602818341
30
0
10
-11.320118722225754
20
39.903097580173863
30
0
10
-11.699998933787995
20
39.519006267237067
30
0
0
SPLINE
5
215
100
AcDbEntity
8
0
100
AcDbSpline
70
0
71
2
72
6
73
3
74
0
42
0.000000001
43
0.0000000001
44
0.0000000001
40
0
40
0
40
0
40
1
40
1
40
1
10
-11.699998933787995
20
39.519006267237067
30
0
10
-11.917922842662856
20
39.298667452585846
30
0
10
-11.915943906668463
20
38.93970274212829
30
0
0
SPLINE
5
216
100
AcDbEntity
8
0
100
AcDbSpline
70
0
71
2
72
6
73
3
74
0
42
0.000000001
43
0.0000000001
44
0.0000000001
40
0
40
0
40
0
40
1
40
1
40
1
10
-11.915943906668463
20
38.93970274212829
30
0
10
-11.914331617254117
20
38.647245075769021
30
0
10
-11.693991617099876
20
38.429322365540713
30
0
0
SPLINE
5
217
100
AcDbEntity
8
0
100
AcDbSpline
70
0
71
2
72
6
73
3
74
0
42
0.000000001
43
0.0000000001
44
0.0000000001
40
0
40
0
40
0
40
1
40
1
40
1
10
-11.693991617099876
20
38.429322365540713
30
0
10
-11.350195808450522
20
38.089296396904572
30
0
10
-10.630561720598815
20
38.093263666549021
30
0
0
SPLINE
5
218
100
AcDbEntity
8
0
100
AcDbSpline
70
0
71
2
72
6
73
3
74
0
42
0.000000001
43
0.0000000001
44
0.0000000001
40
0
40
0
40
0
40
1
40
1
40
1
10
-10.630561720598815
20
38.093263666549021
30
0
10
-10.073781736857836
20
38.096333138056025
30
0
10
-9.6803346323222605
20
38.494142358355028
30
0
0
SPLINE
5
219
100
AcDbEntity
8
0
100
AcDbSpline
70
0
71
2
72
6
73
3
74
0
42
0.000000001
43
0.0000000001
44
0.0000000001
40
0
40
0
40
0
40
1
40
1
40
1
10
-9.6803346323222605
20
38.494142358355028
30
0
10
-9.247019178519329
20
38.929688294424388
30
0
10
-9.2988932959084778
20
39.832384088153098
30
0
0
SPLINE
5
220
100
AcDbEntity
8
0
100
AcDbSpline
70
0
71
2
72
6
73
3
74
0
42
0.000000001
43
0.0000000001
44
0.0000000001
40
0
40
0
40
0
40
1
40
1
40
1
10
3.989331966152756
20
40.575842554341143
30
0
10
3.5599550442097971
20
40.199150797529832
30
0
10
2.818155517883012
20
40.195061332074062
30
0
0
SPLINE
5
221
100
AcDbEntity
8
0
100
AcDbSpline
70
0
71
2
72
6
73
3
74
0
42
0.000000001
43
0.0000000001
44
0.0000000001
40
0
40
0
40
0
40
1
40
1
40
1
10
2.818155517883012
20
40.195061332074062
30
0
10
1.8367584972040785
20
40.189650989964072
30
0
10
1.3060601232052527
20
40.714530665430075
30
0
0
SPLINE
5
222
100
AcDbEntity
8
0
100
AcDbSpline
70
0
71
2
72
6
73
3
74
0
42
0.000000001
43
0.0000000001
44
0.0000000001
40
0
40
0
40
0
40
1
40
1
40
1
10
1.3060601232052527
20
40.714530665430075
30
0
10
0.61417736762237496
20
41.398823723232645
30
0
10
0.60935929469074779
20
42.272787388437237
30
0
0
SPLINE
5
223
100
AcDbEntity
8
0
100
AcDbSpline
70
0
71
2
72
6
73
3
74
0
42
0.000000001
43
0.0000000001
44
0.0000000001
40
0
40
0
40
0
40
1
40
1
40
1
10
0.60935929469074779
20
42.272787388437237
30
0
10
0.60447071634007088
20
43.159540227928161
30
0
10
1.28876677075902
20
43.851420019753505
30
0
0
SPLINE
5
224
100
AcDbEntity
8
0
100
AcDbSpline
70
0
71
2
72
6
73
3
74
0
42
0.000000001
43
0.0000000001
44
0.0000000001
40
0
40
0
40
0
40
1
40
1
40
1
10
1.28876677075902
20
43.851420019753505
30
0
10
1.9594911639055201
20
44.529581877929509
30
0
10
3.008245178001463
20
44.535363552303828
30
0
0
SPLINE
5
225
100
AcDbEntity
8
0
100
AcDbSpline
70
0
71
2
72
6
73
3
74
0
42
0.000000001
43
0.0000000001
44
0.0000000001
40
0
40
0
40
0
40
1
40
1
40
1
10
3.008245178001463
20
44.535363552303828
30
0
10
3.6366497828749011
20
44.538827883073353
30
0
10
4.00045783683602
20
44.435102214134865
30
0
0
LINE
5
226
100
AcDbEntity
8
0
100
AcDbLine
10
4.00045783683602
20
44.435102214134865
30
0
11
3.9957760824864179
21
45.284338672160338
31
0
0
LINE
5
227
100
AcDbEntity
8
0
100
AcDbLine
10
3.9957760824864241
20
45.284338672160331
30
0
11
-1.7831079495692581
21
44.878156818026994
31
0
0
LINE
5
228
100
AcDbEntity
8
0
100
AcDbLine
10
-1.783107949569267
20
44.878156818027001
30
0
11
-2.0346137314013193
21
46.264070406820323
31
0
0
LINE
5
229
100
AcDbEntity
8
0
100
AcDbLine
10
-2.0346137314013157
20
46.264070406820323
30
0
11
3.9887158373379386
21
46.565016199206717
31
0
0
LINE
5
230
100
AcDbEntity
8
0
100
AcDbLine
10
3.9887158373379439
20
46.565016199206717
30
0
11
3.97480219075742
21
49.0888512956097
31
0
0
LINE
5
231
100
AcDbEntity
8
0
100
AcDbLine
10
3.9748021907574138
20
49.0888512956097
30
0
11
5.1855639358696903
21
49.09552610215254
31
0
0
SPLINE
5
232
100
AcDbEntity
8
0
100
AcDbSpline
70
0
71
2
72
6
73
3
74
0
42
0.000000001
43
0.0000000001
44
0.0000000001
40
0
40
0
40
0
40
1
40
1
40
1
10
5.1855639358696859
20
49.09552610215254
30
0
10
5.9300200248136292
20
48.92739043784637
30
0
10
5.4507746925462186
20
48.471126325305114
30
0
0
LINE
5
233
100
AcDbEntity
8
0
100
AcDbLine
10
5.4507746925462186
20
48.471126325305114
30
0
11
5.4605941551277137
21
46.689946664921571
31
0
0
LINE
5
234
100
AcDbEntity
8
0
100
AcDbLine
10
5.4605941551277137
20
46.689946664921578
30
0
11
10.006844823506958
21
47.036467185575468
31
0
0
LINE
5
235
100
AcDbEntity
8
0
100
AcDbLine
10
10.006844823506951
20
47.036467185575461
30
0
11
10.014802870078777
21
45.592934958380951
31
0
0
LINE
5
236
100
AcDbEntity
8
0
100
AcDbLine
10
10.014802870078778
20
45.592934958380965
30
0
11
5.4679599358070003
21
45.353847197164029
31
0
0
LINE
5
237
100
AcDbEntity
8
0
100
AcDbLine
10
5.4679599358070075
20
45.353847197164029
30
0
11
5.478315258631441
21
43.47546635518755
31
0
0
SPLINE
5
238
100
AcDbEntity
8
0
100
AcDbSpline
70
0
71
2
72
6
73
3
74
0
42
0.000000001
43
0.0000000001
44
0.0000000001
40
0
40
0
40
0
40
1
40
1
40
1
10
5.4783152586314365
20
43.475466355187542
30
0
10
5.6976330611111958
20
42.514859406791729
30
0
10
5.7032220243975296
20
41.501061793569356
30
0
0
SPLINE
5
239
100
AcDbEntity
8
0
100
AcDbSpline
70
0
71
2
72
6
73
3
74
0
42
0.000000001
43
0.0000000001
44
0.0000000001
40
0
40
0
40
0
40
1
40
1
40
1
10
5.7032220243975296
20
41.501061793569356
30
0
10
5.6617008646711753
20
38.514770646846294
30
0
10
2.5082369637967883
20
36.554996003522518
30
0
0
LINE
5
240
100
AcDbEntity
8
0
100
AcDbLine
10
2.5082369637967883
20
36.554996003522518
30
0
11
1.3317260538766686
21
37.450638833397647
31
0
0
SPLINE
5
241
100
AcDbEntity
8
0
100
AcDbSpline
70
0
71
2
72
6
73
3
74
0
42
0.000000001
43
0.0000000001
44
0.0000000001
40
0
40
0
40
0
40
1
40
1
40
1
10
1.3317260538766718
20
37.450638833397647
30
0
10
3.9976049524828827
20
39.075182527424069
30
0
10
3.989331966152756
20
40.575842554341143
30
0
0
SPLINE
5
242
100
AcDbEntity
8
0
100
AcDbSpline
70
0
71
2
72
6
73
3
74
0
42
0.000000001
43
0.0000000001
44
0.0000000001
40
0
40
0
40
0
40
1
40
1
40
1
10
3.1213506379548406
20
43.353330117143344
30
0
10
2.602087631716703
20
43.350467472923306
30
0
10
2.2756285626257
20
43.020388379561389
30
0
0
SPLINE
5
243
100
AcDbEntity
8
0
100
AcDbSpline
70
0
71
2
72
6
73
3
74
0
42
0.000000001
43
0.0000000001
44
0.0000000001
40
0
40
0
40
0
40
1
40
1
40
1
10
2.2756285626257
20
43.020388379561389
30
0
10
2.0042858954291631
20
42.746037358478844
30
0
10
2.0068524017741307
20
42.280491626015277
30
0
0
SPLINE
5
244
100
AcDbEntity
8
0
100
AcDbSpline
70
0
71
2
72
6
73
3
74
0
42
0.000000001
43
0.0000000001
44
0.0000000001
40
0
40
0
40
0
40
1
40
1
40
1
10
2.0068524017741307
20
42.280491626015277
30
0
10
2.0093531015278998
20
41.826882734369718
30
0
10
2.229688330097126
20
41.608960593891652
30
0
0
SPLINE
5
245
100
AcDbEntity
8
0
100
AcDbSpline
70
0
71
2
72
6
73
3
74
0
42
0.000000001
43
0.0000000001
44
0.0000000001
40
0
40
0
40
0
40
1
40
1
40
1
10
2.229688330097126
20
41.608960593891652
30
0
10
2.4663108475620188
20
41.375780410379271
30
0
10
2.9719317500081388
20
41.378567847066527
30
0
0
SPLINE
5
246
100
AcDbEntity
8
0
100
AcDbSpline
70
0
71
2
72
6
73
3
74
0
42
0.000000001
43
0.0000000001
44
0.0000000001
40
0
40
0
40
0
40
1
40
1
40
1
10
2.9719317500081388
20
41.378567847066527
30
0
10
3.4749920758249964
20
41.381341167554851
30
0
10
3.8150228127602404
20
41.725137002491337
30
0
0
SPLINE
5
247
100
AcDbEntity
8
0
100
AcDbSpline
70
0
71
2
72
6
73
3
74
0
42
0.000000001
43
0.0000000001
44
0.0000000001
40
0
40
0
40
0
40
1
40
1
40
1
10
3.8150228127602404
20
41.725137002491337
30
0
10
4.0889118873453167
20
42.001207376459647
30
0
10
4.0864252873609974
20
42.452258671662904
30
0
0
SPLINE
5
248
100
AcDbEntity
8
0
100
AcDbSpline
70
0
71
2
72
6
73
3
74
0
42
0.000000001
43
0.0000000001
44
0.0000000001
40
0
40
0
40
0
40
1
40
1
40
1
10
4.0864252873609974
20
42.452258671662904
30
0
10
4.0841643165468433
20
42.862382463415315
30
0
10
3.8072480861925495
20
43.135416303674099
30
0
0
SPLINE
5
249
100
AcDbEntity
8
0
100
AcDbSpline
70
0
71
2
72
6
73
3
74
0
42
0.000000001
43
0.0000000001
44
0.0000000001
40
0
40
0
40
0
40
1
40
1
40
1
10
3.8072480861925495
20
43.135416303674099
30
0
10
3.5851869351826782
20
43.355887199545428
30
0
10
3.1213506379548406
20
43.353330117143344
30
0
0
ENDSEC
0
SECTION
2
OBJECTS
0
DICTIONARY
5
C
100
AcDbDictionary
3
ACAD_GROUP
350
D
3
ACAD_MLINESTYLE
350
17
0
DICTIONARY
5
D
100
AcDbDictionary
0
DICTIONARY
5
1A
330
C
100
AcDbDictionary
0
DICTIONARY
5
17
100
AcDbDictionary
0
ENDSEC
0
EOF
