0
SECTION
2
HEADER
9
$INSUNITS
70
4
9
$ACADVER
1
AC1014
9
$HANDSEED
5
FFFF
0
ENDSEC
0
SECTION
2
TABLES
0
TABLE
2
VPORT
5
8
100
AcDbSymbolTable
0
ENDTAB
0
TABLE
2
LTYPE
5
5
100
AcDbSymbolTable
0
LTYPE
5
14
100
AcDbSymbolTableRecord
100
AcDbLinetypeTableRecord
2
BYBLOCK
70
0
0
LTYPE
5
15
100
AcDbSymbolTableRecord
100
AcDbLinetypeTableRecord
2
BYLAYER
70
0
0
ENDTAB
0
TABLE
2
LAYER
5
2
100
AcDbSymbolTable
70
2
0
LAYER
5
50
100
AcDbSymbolTableRecord
100
AcDbLayerTableRecord
2
0
70
0
6
CONTINUOUS
0
ENDTAB
0
TABLE
2
STYLE
5
3
100
AcDbSymbolTable
70
1
0
STYLE
5
11
100
AcDbSymbolTableRecord
100
AcDbTextStyleTableRecord
2
STANDARD
70
0
0
ENDTAB
0
TABLE
2
VIEW
5
6
100
AcDbSymbolTable
70
0
0
ENDTAB
0
TABLE
2
UCS
5
7
100
AcDbSymbolTable
70
0
0
ENDTAB
0
TABLE
2
APPID
5
9
100
AcDbSymbolTable
70
2
0
APPID
5
12
100
AcDbSymbolTableRecord
100
AcDbRegAppTableRecord
2
ACAD
70
0
0
ENDTAB
0
TABLE
2
DIMSTYLE
5
A
100
AcDbSymbolTable
70
1
0
ENDTAB
0
TABLE
2
BLOCK_RECORD
5
1
100
AcDbSymbolTable
70
1
0
BLOCK_RECORD
5
1F
100
AcDbSymbolTableRecord
100
AcDbBlockTableRecord
2
*MODEL_SPACE
0
BLOCK_RECORD
5
1B
100
AcDbSymbolTableRecord
100
AcDbBlockTableRecord
2
*PAPER_SPACE
0
ENDTAB
0
ENDSEC
0
SECTION
2
BLOCKS
0
BLOCK
5
20
100
AcDbEntity
100
AcDbBlockBegin
2
*MODEL_SPACE
0
ENDBLK
5
21
100
AcDbEntity
100
AcDbBlockEnd
0
BLOCK
5
1C
100
AcDbEntity
100
AcDbBlockBegin
2
*PAPER_SPACE
0
ENDBLK
5
1D
100
AcDbEntity
100
AcDbBlockEnd
0
ENDSEC
0
SECTION
2
ENTITIES
0
CIRCLE
5
100
100
AcDbEntity
8
0
100
AcDbCircle
10
-0.073203248069694804
20
6.9535154820786937
30
0
40
0.14927374638832427
210
0
220
0
230
1
0
LINE
5
101
100
AcDbEntity
8
0
100
AcDbLine
10
-0.055718472656864387
20
6.8052692882335597
30
0
11
0.80570333425966922
21
6.3675782612026177
31
0
0
LINE
5
102
100
AcDbEntity
8
0
100
AcDbLine
10
0.80570333425966922
20
6.3675782612026177
30
0
11
-0.0146092047030838
21
5.8988282389381874
31
0
0
LINE
5
103
100
AcDbEntity
8
0
100
AcDbLine
10
-0.0146092047030838
20
5.8988282389381874
30
0
11
-0.0146092047030838
21
5.5472657222398647
31
0
0
ARC
5
104
100
AcDbEntity
8
0
100
AcDbCircle
10
0.085256323622083213
20
4.2425923081972083
30
0
40
1.3084899086570698
210
-0
220
0
230
1
100
AcDbArc
50
-68.193353336098312
51
94.377139464792009
0
ARC
5
105
100
AcDbEntity
8
0
100
AcDbCircle
10
-0.24155651818734744
20
4.2538882438896994
30
0
40
1.2953106711540141
210
0
220
-0
230
1
100
AcDbArc
50
86.869294097858514
51
251.19300153838728
0
LWPOLYLINE
5
106
100
AcDbEntity
8
0
100
AcDbPolyline
90
4
70
1
43
0.0
10
0.020547046966748542
20
5.3128907111076495
42
-0.85530608654413687
10
0.40726581533490347
20
3.262109363700767
10
0.32523456143862822
20
3.5316406265028153
42
0.84802206121504575
10
-0.014609499379367175
20
5.019921775297882
0
LWPOLYLINE
5
107
100
AcDbEntity
8
0
100
AcDbPolyline
90
4
70
1
43
0.0
10
-0.56539048086378985
20
3.2621093637007674
42
-0.84997730022108009
10
-0.14100893571661272
20
5.3128907111076495
10
-0.12772057080334887
20
5.0199217752978811
42
0.88683729988741133
10
-0.48335948890198821
20
3.5550780580396912
0
LWPOLYLINE
5
108
100
AcDbEntity
8
0
100
AcDbPolyline
90
4
70
1
43
0.0
10
0.31351581088202179
20
2.9574218492288851
42
-0.027756377319945482
10
-0.35445297084479577
20
2.969140599785498
10
-1.902290963153261
20
-1.1311504233492742
10
1.8437646484458452
20
-1.1311504233492742
0
LWPOLYLINE
5
109
100
AcDbEntity
8
0
100
AcDbPolyline
90
4
70
1
43
0.0
10
0.18260430542183737
20
3.1878126429632712
42
-0.097416877917774564
10
-0.24761893955739461
20
3.1760049064041453
10
-0.19039046305224516
20
3.4964843748329821
10
0.10257830086302377
20
3.4964843748329821
0
LINE
5
110
100
AcDbEntity
8
0
100
AcDbLine
10
-0.17081449883510069
20
5.5472657222398647
30
0
11
-0.12772057080334887
21
6.8145532106423055
31
0
0
LINE
5
111
100
AcDbEntity
8
0
100
AcDbLine
10
0.57132832312745407
20
3.0277343525685518
30
0
11
5.1416407346154278
21
-9.1597658443188621
31
0
0
LINE
5
112
100
AcDbEntity
8
0
100
AcDbLine
10
5.1416407346154278
20
-9.1597658443188621
30
0
11
4.8486716419178251
21
-9.1597658443188621
31
0
0
LINE
5
113
100
AcDbEntity
8
0
100
AcDbLine
10
-4.933050463904407
20
-9.1597658443188621
30
0
11
-5.1708593841282005
21
-9.1597658443188621
31
0
0
LINE
5
114
100
AcDbEntity
8
0
100
AcDbLine
10
-5.1708593841282005
20
-9.1597658443188621
30
0
11
-4.4677343998442671
21
-7.167577952290265
31
0
0
LINE
5
115
100
AcDbEntity
8
0
100
AcDbLine
10
-4.4677343998442671
20
-7.167577952290265
30
0
11
-0.65914048531667546
21
3.0277343525685518
31
0
0
LWPOLYLINE
5
116
100
AcDbEntity
8
0
100
AcDbPolyline
90
3
70
1
43
0.0
10
-1.7452009279842278
20
-1.3042060442458361
10
1.7247933439192868
20
-1.3042060442458361
10
0.048457247605735165
20
-3.0382112184565035
0
LWPOLYLINE
5
117
100
AcDbEntity
8
0
100
AcDbPolyline
90
3
70
1
43
0.0
10
0.12601580197624529
20
-3.1480471907653174
10
1.9085349753609342
20
-1.3042060442458359
10
4.3659463352620742
20
-7.8700035157249175
0
LWPOLYLINE
5
118
100
AcDbEntity
8
0
100
AcDbPolyline
90
4
70
1
43
0.0
10
-4.1161719077023022
20
-7.5191404444322307
10
-0.029541780843832244
20
-3.1741497800693397
10
-1.9676185370485988
20
-1.3042060442458359
10
-4.4461720638147249
20
-7.8700035157249175
0
LINE
5
119
100
AcDbEntity
8
0
100
AcDbLine
10
0.095720464909412883
20
-3.2655779925300599
30
0
11
4.4630297685393163
21
-8.1293944224064347
31
0
0
LINE
5
120
100
AcDbEntity
8
0
100
AcDbLine
10
0.095720464909412883
20
-3.2655779925300599
30
0
11
-4.5119640835910726
21
-8.0442894742188891
31
0
0
CIRCLE
5
121
100
AcDbEntity
8
0
100
AcDbCircle
10
-0.061033700153670725
20
4.2774565943110954
30
0
40
0.49804687500000006
210
0
220
0
230
1
0
CIRCLE
5
122
100
AcDbEntity
8
0
100
AcDbCircle
10
-0.062521830007367912
20
4.2755088129874688
30
0
40
0.41015624999999994
210
0
220
0
230
1
0
LINE
5
123
100
AcDbEntity
8
0
100
AcDbLine
10
-0.47535604950866139
20
4.5538398074811912
30
0
11
-0.40919959791825078
21
4.4946952054720164
31
0
0
LINE
5
124
100
AcDbEntity
8
0
100
AcDbLine
10
0.28415593790351507
20
4.4946952054720164
30
0
11
0.34623428209197393
21
4.5641332071256517
31
0
0
LINE
5
125
100
AcDbEntity
8
0
100
AcDbLine
10
-0.40919959791825078
20
4.0563224205029202
30
0
11
-0.47535604950866139
21
4.0010733811409978
31
0
0
LINE
5
126
100
AcDbEntity
8
0
100
AcDbLine
10
0.28415593790351507
20
4.0563224205029202
30
0
11
0.34285364840288762
21
3.9860364519509304
31
0
0
LINE
5
127
100
AcDbEntity
8
0
100
AcDbLine
10
4.8486716419178251
20
-9.1597658443188621
30
0
11
4.4630297685393163
21
-8.1293944224064347
31
0
0
LINE
5
128
100
AcDbEntity
8
0
100
AcDbLine
10
-4.5119640835910726
20
-8.0442894742188891
30
0
11
-4.933050463904407
21
-9.1597658443188621
31
0
0
ENDSEC
0
SECTION
2
OBJECTS
0
DICTIONARY
5
C
100
AcDbDictionary
3
ACAD_GROUP
350
D
3
ACAD_MLINESTYLE
350
17
0
DICTIONARY
5
D
100
AcDbDictionary
0
DICTIONARY
5
1A
330
C
100
AcDbDictionary
0
DICTIONARY
5
17
100
AcDbDictionary
0
ENDSEC
0
EOF
