0
SECTION
2
HEADER
9
$INSUNITS
70
4
9
$ACADVER
1
AC1014
9
$HANDSEED
5
FFFF
0
ENDSEC
0
SECTION
2
TABLES
0
TABLE
2
VPORT
5
8
100
AcDbSymbolTable
0
ENDTAB
0
TABLE
2
LTYPE
5
5
100
AcDbSymbolTable
0
LTYPE
5
14
100
AcDbSymbolTableRecord
100
AcDbLinetypeTableRecord
2
BYBLOCK
70
0
0
LTYPE
5
15
100
AcDbSymbolTableRecord
100
AcDbLinetypeTableRecord
2
BYLAYER
70
0
0
ENDTAB
0
TABLE
2
LAYER
5
2
100
AcDbSymbolTable
70
2
0
LAYER
5
50
100
AcDbSymbolTableRecord
100
AcDbLayerTableRecord
2
0
70
0
6
CONTINUOUS
0
ENDTAB
0
TABLE
2
STYLE
5
3
100
AcDbSymbolTable
70
1
0
STYLE
5
11
100
AcDbSymbolTableRecord
100
AcDbTextStyleTableRecord
2
STANDARD
70
0
0
ENDTAB
0
TABLE
2
VIEW
5
6
100
AcDbSymbolTable
70
0
0
ENDTAB
0
TABLE
2
UCS
5
7
100
AcDbSymbolTable
70
0
0
ENDTAB
0
TABLE
2
APPID
5
9
100
AcDbSymbolTable
70
2
0
APPID
5
12
100
AcDbSymbolTableRecord
100
AcDbRegAppTableRecord
2
ACAD
70
0
0
ENDTAB
0
TABLE
2
DIMSTYLE
5
A
100
AcDbSymbolTable
70
1
0
ENDTAB
0
TABLE
2
BLOCK_RECORD
5
1
100
AcDbSymbolTable
70
1
0
BLOCK_RECORD
5
1F
100
AcDbSymbolTableRecord
100
AcDbBlockTableRecord
2
*MODEL_SPACE
0
BLOCK_RECORD
5
1B
100
AcDbSymbolTableRecord
100
AcDbBlockTableRecord
2
*PAPER_SPACE
0
ENDTAB
0
ENDSEC
0
SECTION
2
BLOCKS
0
BLOCK
5
20
100
AcDbEntity
100
AcDbBlockBegin
2
*MODEL_SPACE
0
ENDBLK
5
21
100
AcDbEntity
100
AcDbBlockEnd
0
BLOCK
5
1C
100
AcDbEntity
100
AcDbBlockBegin
2
*PAPER_SPACE
0
ENDBLK
5
1D
100
AcDbEntity
100
AcDbBlockEnd
0
ENDSEC
0
SECTION
2
ENTITIES
0
LINE
5
100
100
AcDbEntity
8
0
100
AcDbLine
10
6.041250244196271
20
-9.0437503879948586
30
-0.87500000000000022
11
6.128750248352298
21
-9.0437503879948586
31
-0.87500000000000022
0
LINE
5
101
100
AcDbEntity
8
0
100
AcDbLine
10
6.128750248352298
20
-9.0437503879948586
30
-0.87500000000000022
11
6.128750248352298
21
-9.3687504034315303
31
-0.87500000000000022
0
LINE
5
102
100
AcDbEntity
8
0
100
AcDbLine
10
6.128750248352298
20
-9.3687504034315303
30
-0.87500000000000022
11
6.4162502620078152
21
-9.3687504034315303
31
-0.87500000000000022
0
LINE
5
103
100
AcDbEntity
8
0
100
AcDbLine
10
6.4162502620078152
20
-9.3687504034315303
30
-0.87500000000000022
11
6.4162502620078152
21
-9.7437504212430746
31
-0.87500000000000022
0
LINE
5
104
100
AcDbEntity
8
0
100
AcDbLine
10
6.4162502620078152
20
-9.7437504212430746
30
-0.87500000000000022
11
6.7912502798193595
21
-9.7437504212430746
31
-0.87500000000000022
0
LINE
5
105
100
AcDbEntity
8
0
100
AcDbLine
10
6.7912502798193595
20
-9.7437504212430746
30
-0.87500000000000022
11
6.7912502798193595
21
-10.068750436679746
31
-0.87500000000000022
0
LINE
5
106
100
AcDbEntity
8
0
100
AcDbLine
10
6.7912502798193595
20
-10.068750436679746
30
-0.87500000000000022
11
7.1662502976309037
21
-10.068750436679746
31
-0.87500000000000022
0
LINE
5
107
100
AcDbEntity
8
0
100
AcDbLine
10
7.1662502976309037
20
-10.068750436679746
30
-0.87500000000000022
11
7.1662502976309037
21
-10.418750453303854
31
-0.87500000000000022
0
LINE
5
108
100
AcDbEntity
8
0
100
AcDbLine
10
7.1662502976309037
20
-10.418750453303854
30
-0.87500000000000022
11
7.6037503184110387
21
-10.418750453303854
31
-0.87500000000000022
0
LINE
5
109
100
AcDbEntity
8
0
100
AcDbLine
10
7.6037503184110387
20
-10.418750453303854
30
-0.87500000000000022
11
7.6037503184110387
21
-10.78125047052168
31
-0.87500000000000022
0
LINE
5
110
100
AcDbEntity
8
0
100
AcDbLine
10
7.6037503184110387
20
-10.78125047052168
30
-0.87500000000000022
11
7.9787503362225829
21
-10.78125047052168
31
-0.87500000000000022
0
LINE
5
111
100
AcDbEntity
8
0
100
AcDbLine
10
7.9787503362225829
20
-10.78125047052168
30
-0.87500000000000022
11
7.9787503362225829
21
-11.106250485958352
31
-0.87500000000000022
0
LINE
5
112
100
AcDbEntity
8
0
100
AcDbLine
10
7.9787503362225829
20
-11.106250485958352
30
-0.87500000000000022
11
8.4162503570027187
21
-11.106250485958352
31
-0.87500000000000022
0
LINE
5
113
100
AcDbEntity
8
0
100
AcDbLine
10
8.4162503570027187
20
-11.106250485958352
30
-0.87500000000000022
11
8.4162503570027187
21
-11.381250499020151
31
-0.87500000000000022
0
LINE
5
114
100
AcDbEntity
8
0
100
AcDbLine
10
8.4162503570027187
20
-11.381250499020151
30
-0.87500000000000022
11
7.4787503124738572
21
-11.381250499020151
31
-0.87500000000000022
0
LINE
5
115
100
AcDbEntity
8
0
100
AcDbLine
10
7.4787503124738572
20
-11.381250499020151
30
-0.87500000000000022
11
6.8850002842722455
21
-11.381250499020151
31
-0.87500000000000022
0
LINE
5
116
100
AcDbEntity
8
0
100
AcDbLine
10
6.8850002842722455
20
-11.381250499020151
30
-0.87500000000000022
11
6.4787502649764059
21
-11.381250499020151
31
-0.87500000000000022
0
LINE
5
117
100
AcDbEntity
8
0
100
AcDbLine
10
6.4787502649764059
20
-11.381250499020151
30
-0.87500000000000022
11
5.7912502323219082
21
-11.381250499020151
31
-0.87500000000000022
0
LINE
5
118
100
AcDbEntity
8
0
100
AcDbLine
10
5.7912502323219082
20
-11.381250499020151
30
-0.87500000000000022
11
4.5412501729500949
21
-11.381250499020151
31
-0.87500000000000022
0
LINE
5
119
100
AcDbEntity
8
0
100
AcDbLine
10
4.5412501729500949
20
-11.381250499020151
30
-0.87500000000000022
11
3.6037501284212343
21
-11.381250499020151
31
-0.87500000000000022
0
LINE
5
120
100
AcDbEntity
8
0
100
AcDbLine
10
3.6037501284212343
20
-11.381250499020151
30
-0.87500000000000022
11
2.1037500571750574
21
-11.381250499020151
31
-0.87500000000000022
0
LINE
5
121
100
AcDbEntity
8
0
100
AcDbLine
10
2.1037500571750574
20
-11.381250499020151
30
-0.87500000000000022
11
0.54124998296028948
21
-11.381250499020151
31
-0.87500000000000022
0
LINE
5
122
100
AcDbEntity
8
0
100
AcDbLine
10
0.54124998296028948
20
-11.381250499020151
30
-0.87500000000000022
11
-0.95875008828588748
21
-11.381250499020151
31
-0.87500000000000022
0
LINE
5
123
100
AcDbEntity
8
0
100
AcDbLine
10
-0.95875008828588748
20
-11.381250499020151
30
-0.87500000000000022
11
-2.3962501565634735
21
-11.381250499020151
31
-0.87500000000000022
0
LINE
5
124
100
AcDbEntity
8
0
100
AcDbLine
10
-2.3962501565634735
20
-11.381250499020151
30
-0.87500000000000022
11
-3.7712502218724691
21
-11.381250499020151
31
-0.87500000000000022
0
LINE
5
125
100
AcDbEntity
8
0
100
AcDbLine
10
-3.7712502218724691
20
-11.381250499020151
30
-0.87500000000000022
11
-5.7087503138987818
21
-11.381250499020151
31
-0.87500000000000022
0
LINE
5
126
100
AcDbEntity
8
0
100
AcDbLine
10
-5.7087503138987818
20
-11.381250499020151
30
-0.87500000000000022
11
-7.8962504177994566
21
-11.381250499020151
31
-0.87500000000000022
0
LINE
5
127
100
AcDbEntity
8
0
100
AcDbLine
10
-7.8962504177994566
20
-11.381250499020151
30
-0.87500000000000022
11
-7.8962504177994566
21
-10.78125047052168
31
-0.87500000000000022
0
LINE
5
128
100
AcDbEntity
8
0
100
AcDbLine
10
-7.8962504177994566
20
-10.78125047052168
30
-0.87500000000000022
11
-7.5212503999879123
21
-10.78125047052168
31
-0.87500000000000022
0
LINE
5
129
100
AcDbEntity
8
0
100
AcDbLine
10
-7.5212503999879123
20
-10.78125047052168
30
-0.87500000000000022
11
-7.5212503999879123
21
-10.456250455085009
31
-0.87500000000000022
0
LINE
5
130
100
AcDbEntity
8
0
100
AcDbLine
10
-7.5212503999879123
20
-10.456250455085009
30
-0.87500000000000022
11
-7.1212503809889318
21
-10.456250455085009
31
-0.87500000000000022
0
LINE
5
131
100
AcDbEntity
8
0
100
AcDbLine
10
-7.1212503809889318
20
-10.456250455085009
30
-0.87500000000000022
11
-7.1212503809889318
21
-10.081250437273464
31
-0.87500000000000022
0
LINE
5
132
100
AcDbEntity
8
0
100
AcDbLine
10
-7.1212503809889318
20
-10.081250437273464
30
-0.87500000000000022
11
-6.7712503643648239
21
-10.081250437273464
31
-0.87500000000000022
0
LINE
5
133
100
AcDbEntity
8
0
100
AcDbLine
10
-6.7712503643648239
20
-10.081250437273464
30
-0.87500000000000022
11
-6.7712503643648239
21
-9.7562504218367927
31
-0.87500000000000022
0
LINE
5
134
100
AcDbEntity
8
0
100
AcDbLine
10
-6.7712503643648239
20
-9.7562504218367927
30
-0.87500000000000022
11
-6.3337503435846889
21
-9.7562504218367927
31
-0.87500000000000022
0
LINE
5
135
100
AcDbEntity
8
0
100
AcDbLine
10
-6.3337503435846889
20
-9.7562504218367927
30
-0.87500000000000022
11
-6.3337503435846889
21
-9.3812504040252485
31
-0.87500000000000022
0
LINE
5
136
100
AcDbEntity
8
0
100
AcDbLine
10
-6.3337503435846889
20
-9.3812504040252485
30
-0.87500000000000022
11
-6.1337503340851987
21
-9.3812504040252485
31
-0.87500000000000022
0
LINE
5
137
100
AcDbEntity
8
0
100
AcDbLine
10
-6.1337503340851987
20
-9.3812504040252485
30
-0.87500000000000022
11
-6.1337503340851987
21
-9.0687503891822949
31
-0.87500000000000022
0
LINE
5
138
100
AcDbEntity
8
0
100
AcDbLine
10
-6.1337503340851987
20
-9.0687503891822949
30
-0.87500000000000022
11
-6.0837503317103261
21
-9.0687503891822949
31
-0.87500000000000022
0
LINE
5
139
100
AcDbEntity
8
0
100
AcDbLine
10
-6.0837503317103261
20
-9.0687503891822949
30
-0.87500000000000022
11
-6.0837503317103261
21
-8.6187503678084418
31
-0.87500000000000022
0
LINE
5
140
100
AcDbEntity
8
0
100
AcDbLine
10
-6.0837503317103261
20
-8.6187503678084418
30
-0.87500000000000022
11
-4.4743753589515105
21
-8.6031254794798393
31
-0.87500000000000022
0
LINE
5
141
100
AcDbEntity
8
0
100
AcDbLine
10
-4.4743753589515105
20
-8.6031254794798393
30
-0.87500000000000022
11
-0.64625002978718826
21
-8.6187503678084418
31
-0.87500000000000022
0
LINE
5
142
100
AcDbEntity
8
0
100
AcDbLine
10
-0.64625002978718826
20
-8.6187503678084418
30
-0.87500000000000022
11
2.7912498933786996
21
-8.6187503678084418
31
-0.87500000000000022
0
LINE
5
143
100
AcDbEntity
8
0
100
AcDbLine
10
2.7912498933786996
20
-8.6187503678084418
30
-0.87500000000000022
11
5.9787502412276803
21
-8.6187503678084418
31
-0.87500000000000022
0
LINE
5
144
100
AcDbEntity
8
0
100
AcDbLine
10
5.9787502412276803
20
-8.6187503678084418
30
-0.87500000000000022
11
6.041250244196271
21
-8.6187503678084418
31
-0.87500000000000022
0
LINE
5
145
100
AcDbEntity
8
0
100
AcDbLine
10
6.041250244196271
20
-8.6187503678084418
30
-0.87500000000000022
11
6.041250244196271
21
-9.0437503879948586
31
-0.87500000000000022
0
LINE
5
146
100
AcDbEntity
8
0
100
AcDbLine
10
5.9412502394465259
20
-9.0437503879948586
30
-0.87500000000000022
11
5.6662502263847268
21
-9.0437503879948586
31
-0.87500000000000022
0
LINE
5
147
100
AcDbEntity
8
0
100
AcDbLine
10
5.9412502394465259
20
-9.0437503879948586
30
-0.87500000000000022
11
5.9412502394465259
21
-8.6812503707770325
31
-0.87500000000000022
0
LINE
5
148
100
AcDbEntity
8
0
100
AcDbLine
10
5.9412502394465259
20
-8.6812503707770325
30
-0.87500000000000022
11
5.6662502263847268
21
-8.6812503707770325
31
-0.87500000000000022
0
LINE
5
149
100
AcDbEntity
8
0
100
AcDbLine
10
5.6662502263847268
20
-8.6812503707770325
30
-0.87500000000000022
11
5.6662502263847268
21
-9.0437503879948586
31
-0.87500000000000022
0
LINE
5
150
100
AcDbEntity
8
0
100
AcDbLine
10
5.603750223416136
20
-8.6812503707770325
30
-0.87500000000000022
11
5.603750223416136
21
-9.0437503879948586
31
-0.87500000000000022
0
LINE
5
151
100
AcDbEntity
8
0
100
AcDbLine
10
5.603750223416136
20
-9.0437503879948586
30
-0.87500000000000022
11
5.3412502109480551
21
-9.0437503879948586
31
-0.87500000000000022
0
LINE
5
152
100
AcDbEntity
8
0
100
AcDbLine
10
5.3412502109480551
20
-9.0437503879948586
30
-0.87500000000000022
11
5.3412502109480551
21
-8.6812503707770325
31
-0.87500000000000022
0
LINE
5
153
100
AcDbEntity
8
0
100
AcDbLine
10
5.3412502109480551
20
-8.6812503707770325
30
-0.87500000000000022
11
5.603750223416136
21
-8.6812503707770325
31
-0.87500000000000022
0
LINE
5
154
100
AcDbEntity
8
0
100
AcDbLine
10
5.2912502085731825
20
-8.6812503707770325
30
-0.87500000000000022
11
5.2912502085731825
21
-9.0437503879948586
31
-0.87500000000000022
0
LINE
5
155
100
AcDbEntity
8
0
100
AcDbLine
10
5.2912502085731825
20
-9.0437503879948586
30
-0.87500000000000022
11
5.0162501955113834
21
-9.0437503879948586
31
-0.87500000000000022
0
LINE
5
156
100
AcDbEntity
8
0
100
AcDbLine
10
5.0162501955113834
20
-9.0437503879948586
30
-0.87500000000000022
11
5.0162501955113834
21
-8.6812503707770325
31
-0.87500000000000022
0
LINE
5
157
100
AcDbEntity
8
0
100
AcDbLine
10
5.0162501955113834
20
-8.6812503707770325
30
-0.87500000000000022
11
5.2912502085731825
21
-8.6812503707770325
31
-0.87500000000000022
0
LINE
5
158
100
AcDbEntity
8
0
100
AcDbLine
10
4.6662501788872763
20
-8.6812503707770325
30
-0.87500000000000022
11
4.3662501646380409
21
-8.6812503707770325
31
-0.87500000000000022
0
LINE
5
159
100
AcDbEntity
8
0
100
AcDbLine
10
4.3662501646380409
20
-8.6812503707770325
30
-0.87500000000000022
11
4.3662501646380409
21
-9.0437503879948586
31
-0.87500000000000022
0
LINE
5
160
100
AcDbEntity
8
0
100
AcDbLine
10
4.3662501646380409
20
-9.0437503879948586
30
-0.87500000000000022
11
4.6662501788872763
21
-9.0437503879948586
31
-0.87500000000000022
0
LINE
5
161
100
AcDbEntity
8
0
100
AcDbLine
10
4.6662501788872763
20
-9.0437503879948586
30
-0.87500000000000022
11
4.6662501788872763
21
-8.6812503707770325
31
-0.87500000000000022
0
LINE
5
162
100
AcDbEntity
8
0
100
AcDbLine
10
4.3412501634506047
20
-8.6812503707770325
30
-0.87500000000000022
11
4.3412501634506047
21
-9.0437503879948586
31
-0.87500000000000022
0
LINE
5
163
100
AcDbEntity
8
0
100
AcDbLine
10
4.3412501634506047
20
-9.0437503879948586
30
-0.87500000000000022
11
4.0412501492013693
21
-9.0437503879948586
31
-0.87500000000000022
0
LINE
5
164
100
AcDbEntity
8
0
100
AcDbLine
10
4.0412501492013693
20
-9.0437503879948586
30
-0.87500000000000022
11
4.0412501492013693
21
-8.6812503707770325
31
-0.87500000000000022
0
LINE
5
165
100
AcDbEntity
8
0
100
AcDbLine
10
4.0412501492013693
20
-8.6812503707770325
30
-0.87500000000000022
11
4.3412501634506047
21
-8.6812503707770325
31
-0.87500000000000022
0
LINE
5
166
100
AcDbEntity
8
0
100
AcDbLine
10
3.9787501462327786
20
-9.0437503879948586
30
-0.87500000000000022
11
3.7162501337646976
21
-9.0437503879948586
31
-0.87500000000000022
0
LINE
5
167
100
AcDbEntity
8
0
100
AcDbLine
10
3.9787501462327786
20
-9.0437503879948586
30
-0.87500000000000022
11
3.9787501462327786
21
-8.6812503707770325
31
-0.87500000000000022
0
LINE
5
168
100
AcDbEntity
8
0
100
AcDbLine
10
3.7162501337646976
20
-9.0437503879948586
30
-0.87500000000000022
11
3.7162501337646976
21
-8.6812503707770325
31
-0.87500000000000022
0
LINE
5
169
100
AcDbEntity
8
0
100
AcDbLine
10
3.7162501337646976
20
-8.6812503707770325
30
-0.87500000000000022
11
3.9787501462327786
21
-8.6812503707770325
31
-0.87500000000000022
0
LINE
5
170
100
AcDbEntity
8
0
100
AcDbLine
10
3.666250131389825
20
-8.6812503707770325
30
-0.87500000000000022
11
3.666250131389825
21
-9.0437503879948586
31
-0.87500000000000022
0
LINE
5
171
100
AcDbEntity
8
0
100
AcDbLine
10
3.666250131389825
20
-9.0437503879948586
30
-0.87500000000000022
11
3.4037501189217441
21
-9.0437503879948586
31
-0.87500000000000022
0
LINE
5
172
100
AcDbEntity
8
0
100
AcDbLine
10
3.4037501189217441
20
-9.0437503879948586
30
-0.87500000000000022
11
3.4037501189217441
21
-8.6812503707770325
31
-0.87500000000000022
0
LINE
5
173
100
AcDbEntity
8
0
100
AcDbLine
10
3.4037501189217441
20
-8.6812503707770325
30
-0.87500000000000022
11
3.666250131389825
21
-8.6812503707770325
31
-0.87500000000000022
0
LINE
5
174
100
AcDbEntity
8
0
100
AcDbLine
10
3.3537501165468715
20
-8.6812503707770325
30
-0.87500000000000022
11
3.3537501165468715
21
-9.0437503879948586
31
-0.87500000000000022
0
LINE
5
175
100
AcDbEntity
8
0
100
AcDbLine
10
3.3537501165468715
20
-9.0437503879948586
30
-0.87500000000000022
11
3.0912501040787905
21
-9.0437503879948586
31
-0.87500000000000022
0
LINE
5
176
100
AcDbEntity
8
0
100
AcDbLine
10
3.0912501040787905
20
-9.0437503879948586
30
-0.87500000000000022
11
3.0912501040787905
21
-8.6812503707770325
31
-0.87500000000000022
0
LINE
5
177
100
AcDbEntity
8
0
100
AcDbLine
10
3.0912501040787905
20
-8.6812503707770325
30
-0.87500000000000022
11
3.3537501165468715
21
-8.6812503707770325
31
-0.87500000000000022
0
LINE
5
178
100
AcDbEntity
8
0
100
AcDbLine
10
3.0537501022976361
20
-8.6812503707770325
30
-0.87500000000000022
11
3.0537501022976361
21
-9.0437503879948586
31
-0.87500000000000022
0
LINE
5
179
100
AcDbEntity
8
0
100
AcDbLine
10
3.0537501022976361
20
-9.0437503879948586
30
-0.87500000000000022
11
2.7537500880484007
21
-9.0437503879948586
31
-0.87500000000000022
0
LINE
5
180
100
AcDbEntity
8
0
100
AcDbLine
10
2.7537500880484007
20
-9.0437503879948586
30
-0.87500000000000022
11
2.7537500880484007
21
-8.6812503707770325
31
-0.87500000000000022
0
LINE
5
181
100
AcDbEntity
8
0
100
AcDbLine
10
2.7537500880484007
20
-8.6812503707770325
30
-0.87500000000000022
11
3.0537501022976361
21
-8.6812503707770325
31
-0.87500000000000022
0
LINE
5
182
100
AcDbEntity
8
0
100
AcDbLine
10
2.7162500862672463
20
-8.6812503707770325
30
-0.87500000000000022
11
2.7162500862672463
21
-9.0437503879948586
31
-0.87500000000000022
0
LINE
5
183
100
AcDbEntity
8
0
100
AcDbLine
10
2.7162500862672463
20
-9.0437503879948586
30
-0.87500000000000022
11
2.4412500732054472
21
-9.0437503879948586
31
-0.87500000000000022
0
LINE
5
184
100
AcDbEntity
8
0
100
AcDbLine
10
2.4412500732054472
20
-9.0437503879948586
30
-0.87500000000000022
11
2.4412500732054472
21
-8.6812503707770325
31
-0.87500000000000022
0
LINE
5
185
100
AcDbEntity
8
0
100
AcDbLine
10
2.4412500732054472
20
-8.6812503707770325
30
-0.87500000000000022
11
2.7162500862672463
21
-8.6812503707770325
31
-0.87500000000000022
0
LINE
5
186
100
AcDbEntity
8
0
100
AcDbLine
10
2.4037500714242928
20
-8.6812503707770325
30
-0.87500000000000022
11
2.4037500714242928
21
-9.0437503879948586
31
-0.87500000000000022
0
LINE
5
187
100
AcDbEntity
8
0
100
AcDbLine
10
2.4037500714242928
20
-9.0437503879948586
30
-0.87500000000000022
11
2.1162500577687755
21
-9.0437503879948586
31
-0.87500000000000022
0
LINE
5
188
100
AcDbEntity
8
0
100
AcDbLine
10
2.1162500577687755
20
-9.0437503879948586
30
-0.87500000000000022
11
2.1162500577687755
21
-8.6812503707770325
31
-0.87500000000000022
0
LINE
5
189
100
AcDbEntity
8
0
100
AcDbLine
10
2.1162500577687755
20
-8.6812503707770325
30
-0.87500000000000022
11
2.4037500714242928
21
-8.6812503707770325
31
-0.87500000000000022
0
LINE
5
190
100
AcDbEntity
8
0
100
AcDbLine
10
2.0787500559876211
20
-8.6812503707770325
30
-0.87500000000000022
11
2.0787500559876211
21
-9.0437503879948586
31
-0.87500000000000022
0
LINE
5
191
100
AcDbEntity
8
0
100
AcDbLine
10
2.0787500559876211
20
-9.0437503879948586
30
-0.87500000000000022
11
1.7912500423321038
21
-9.0437503879948586
31
-0.87500000000000022
0
LINE
5
192
100
AcDbEntity
8
0
100
AcDbLine
10
1.7912500423321038
20
-9.0437503879948586
30
-0.87500000000000022
11
1.7912500423321038
21
-8.6812503707770325
31
-0.87500000000000022
0
LINE
5
193
100
AcDbEntity
8
0
100
AcDbLine
10
1.7912500423321038
20
-8.6812503707770325
30
-0.87500000000000022
11
2.0787500559876211
21
-8.6812503707770325
31
-0.87500000000000022
0
LINE
5
194
100
AcDbEntity
8
0
100
AcDbLine
10
1.7412500399572313
20
-8.6812503707770325
30
-0.87500000000000022
11
1.7412500399572313
21
-9.0437503879948586
31
-0.87500000000000022
0
LINE
5
195
100
AcDbEntity
8
0
100
AcDbLine
10
1.7412500399572313
20
-9.0437503879948586
30
-0.87500000000000022
11
1.453750026301714
21
-9.0437503879948586
31
-0.87500000000000022
0
LINE
5
196
100
AcDbEntity
8
0
100
AcDbLine
10
1.453750026301714
20
-9.0437503879948586
30
-0.87500000000000022
11
1.453750026301714
21
-8.6812503707770325
31
-0.87500000000000022
0
LINE
5
197
100
AcDbEntity
8
0
100
AcDbLine
10
1.453750026301714
20
-8.6812503707770325
30
-0.87500000000000022
11
1.7412500399572313
21
-8.6812503707770325
31
-0.87500000000000022
0
LINE
5
198
100
AcDbEntity
8
0
100
AcDbLine
10
1.4162500245205596
20
-8.6812503707770325
30
-0.87500000000000022
11
1.1412500114587603
21
-8.6812503707770325
31
-0.87500000000000022
0
LINE
5
199
100
AcDbEntity
8
0
100
AcDbLine
10
1.1412500114587603
20
-8.6812503707770325
30
-0.87500000000000022
11
1.1412500114587603
21
-9.0437503879948586
31
-0.87500000000000022
0
LINE
5
200
100
AcDbEntity
8
0
100
AcDbLine
10
1.1412500114587603
20
-9.0437503879948586
30
-0.87500000000000022
11
1.4162500245205596
21
-9.0437503879948586
31
-0.87500000000000022
0
LINE
5
201
100
AcDbEntity
8
0
100
AcDbLine
10
1.4162500245205596
20
-9.0437503879948586
30
-0.87500000000000022
11
1.4162500245205596
21
-8.6812503707770325
31
-0.87500000000000022
0
LINE
5
202
100
AcDbEntity
8
0
100
AcDbLine
10
1.1037500096776058
20
-8.6812503707770325
30
-0.87500000000000022
11
1.1037500096776058
21
-9.0437503879948586
31
-0.87500000000000022
0
LINE
5
203
100
AcDbEntity
8
0
100
AcDbLine
10
1.1037500096776058
20
-9.0437503879948586
30
-0.87500000000000022
11
0.81624999602208859
21
-9.0437503879948586
31
-0.87500000000000022
0
LINE
5
204
100
AcDbEntity
8
0
100
AcDbLine
10
0.81624999602208859
20
-9.0437503879948586
30
-0.87500000000000022
11
0.81624999602208859
21
-8.6812503707770325
31
-0.87500000000000022
0
LINE
5
205
100
AcDbEntity
8
0
100
AcDbLine
10
0.81624999602208859
20
-8.6812503707770325
30
-0.87500000000000022
11
1.1037500096776058
21
-8.6812503707770325
31
-0.87500000000000022
0
LINE
5
206
100
AcDbEntity
8
0
100
AcDbLine
10
0.77874999424093416
20
-8.6812503707770325
30
-0.87500000000000022
11
0.77874999424093416
21
-9.0437503879948586
31
-0.87500000000000022
0
LINE
5
207
100
AcDbEntity
8
0
100
AcDbLine
10
0.77874999424093416
20
-9.0437503879948586
30
-0.87500000000000022
11
0.49124998058541691
21
-9.0437503879948586
31
-0.87500000000000022
0
LINE
5
208
100
AcDbEntity
8
0
100
AcDbLine
10
0.49124998058541691
20
-9.0437503879948586
30
-0.87500000000000022
11
0.49124998058541691
21
-8.6812503707770325
31
-0.87500000000000022
0
LINE
5
209
100
AcDbEntity
8
0
100
AcDbLine
10
0.49124998058541691
20
-8.6812503707770325
30
-0.87500000000000022
11
0.77874999424093416
21
-8.6812503707770325
31
-0.87500000000000022
0
LINE
5
210
100
AcDbEntity
8
0
100
AcDbLine
10
0.44124997821054435
20
-8.6812503707770325
30
-0.87500000000000022
11
0.44124997821054435
21
-9.0437503879948586
31
-0.87500000000000022
0
LINE
5
211
100
AcDbEntity
8
0
100
AcDbLine
10
0.44124997821054435
20
-9.0437503879948586
30
-0.87500000000000022
11
0.16624996514874521
21
-9.0437503879948586
31
-0.87500000000000022
0
LINE
5
212
100
AcDbEntity
8
0
100
AcDbLine
10
0.16624996514874521
20
-9.0437503879948586
30
-0.87500000000000022
11
0.16624996514874521
21
-8.6812503707770325
31
-0.87500000000000022
0
LINE
5
213
100
AcDbEntity
8
0
100
AcDbLine
10
0.16624996514874521
20
-8.6812503707770325
30
-0.87500000000000022
11
0.44124997821054435
21
-8.6812503707770325
31
-0.87500000000000022
0
LINE
5
214
100
AcDbEntity
8
0
100
AcDbLine
10
0.11624996277387264
20
-8.6812503707770325
30
-0.87500000000000022
11
-0.15875005028792646
21
-8.6812503707770325
31
-0.87500000000000022
0
LINE
5
215
100
AcDbEntity
8
0
100
AcDbLine
10
-0.15875005028792646
20
-8.6812503707770325
30
-0.87500000000000022
11
-0.15875005028792646
21
-9.0437503879948586
31
-0.87500000000000022
0
LINE
5
216
100
AcDbEntity
8
0
100
AcDbLine
10
-0.15875005028792646
20
-9.0437503879948586
30
-0.87500000000000022
11
0.12874996336759079
21
-9.0437503879948586
31
-0.87500000000000022
0
LINE
5
217
100
AcDbEntity
8
0
100
AcDbLine
10
0.12874996336759079
20
-9.0437503879948586
30
-0.87500000000000022
11
0.12874996336759079
21
-8.6812503707770325
31
-0.87500000000000022
0
LINE
5
218
100
AcDbEntity
8
0
100
AcDbLine
10
0.12874996336759079
20
-8.6812503707770325
30
-0.87500000000000022
11
0.11624996277387264
21
-8.6812503707770325
31
-0.87500000000000022
0
LINE
5
219
100
AcDbEntity
8
0
100
AcDbLine
10
-0.20875005266279903
20
-8.6812503707770325
30
-0.87500000000000022
11
-0.45875006453716183
21
-8.6812503707770325
31
-0.87500000000000022
0
LINE
5
220
100
AcDbEntity
8
0
100
AcDbLine
10
-0.45875006453716183
20
-8.6812503707770325
30
-0.87500000000000022
11
-0.45875006453716183
21
-9.0437503879948586
31
-0.87500000000000022
0
LINE
5
221
100
AcDbEntity
8
0
100
AcDbLine
10
-0.45875006453716183
20
-9.0437503879948586
30
-0.87500000000000022
11
-0.20875005266279903
21
-9.0437503879948586
31
-0.87500000000000022
0
LINE
5
222
100
AcDbEntity
8
0
100
AcDbLine
10
-0.20875005266279903
20
-9.0437503879948586
30
-0.87500000000000022
11
-0.20875005266279903
21
-8.6812503707770325
31
-0.87500000000000022
0
LINE
5
223
100
AcDbEntity
8
0
100
AcDbLine
10
-0.52125006750575253
20
-8.6812503707770325
30
-0.87500000000000022
11
-0.80875008116126978
21
-8.6812503707770325
31
-0.87500000000000022
0
LINE
5
224
100
AcDbEntity
8
0
100
AcDbLine
10
-0.80875008116126978
20
-8.6812503707770325
30
-0.87500000000000022
11
-0.80875008116126978
21
-9.0437503879948586
31
-0.87500000000000022
0
LINE
5
225
100
AcDbEntity
8
0
100
AcDbLine
10
-0.80875008116126978
20
-9.0437503879948586
30
-0.87500000000000022
11
-0.52125006750575253
21
-9.0437503879948586
31
-0.87500000000000022
0
LINE
5
226
100
AcDbEntity
8
0
100
AcDbLine
10
-0.52125006750575253
20
-9.0437503879948586
30
-0.87500000000000022
11
-0.52125006750575253
21
-8.6812503707770325
31
-0.87500000000000022
0
LINE
5
227
100
AcDbEntity
8
0
100
AcDbLine
10
-0.88375008472357863
20
-8.6812503707770325
30
-0.87500000000000022
11
-0.88375008472357863
21
-9.0437503879948586
31
-0.87500000000000022
0
LINE
5
228
100
AcDbEntity
8
0
100
AcDbLine
10
-0.88375008472357863
20
-9.0437503879948586
30
-0.87500000000000022
11
-1.1212500960042233
21
-9.0437503879948586
31
-0.87500000000000022
0
LINE
5
229
100
AcDbEntity
8
0
100
AcDbLine
10
-1.1212500960042233
20
-9.0437503879948586
30
-0.87500000000000022
11
-1.1212500960042233
21
-8.6812503707770325
31
-0.87500000000000022
0
LINE
5
230
100
AcDbEntity
8
0
100
AcDbLine
10
-1.1212500960042233
20
-8.6812503707770325
30
-0.87500000000000022
11
-0.88375008472357863
21
-8.6812503707770325
31
-0.87500000000000022
0
LINE
5
231
100
AcDbEntity
8
0
100
AcDbLine
10
4.7277092512910484
20
-8.6812503707770325
30
-0.87500000000000022
11
4.9610135136646365
21
-8.6812503707770325
31
-0.87500000000000022
0
LINE
5
232
100
AcDbEntity
8
0
100
AcDbLine
10
4.9610135136646365
20
-8.6812503707770325
30
-0.87500000000000022
11
4.9610135136646365
21
-9.0437503879948586
31
-0.87500000000000022
0
LINE
5
233
100
AcDbEntity
8
0
100
AcDbLine
10
4.9610135136646365
20
-9.0437503879948586
30
-0.87500000000000022
11
4.7277092512910484
21
-9.0437503879948586
31
-0.87500000000000022
0
LINE
5
234
100
AcDbEntity
8
0
100
AcDbLine
10
4.7277092512910484
20
-9.0437503879948586
30
-0.87500000000000022
11
4.7277092512910484
21
-8.6812503707770325
31
-0.87500000000000022
0
LWPOLYLINE
5
235
100
AcDbEntity
8
0
100
AcDbPolyline
90
4
70
1
43
0.0
10
-1.2499999720603228
20
-8.6800004122778773
10
-1.500000071246177
20
-8.6800004122778773
10
-1.500000071246177
20
-9.0499997977167368
10
-1.2499999720603228
20
-9.0499997977167368
0
LWPOLYLINE
5
236
100
AcDbEntity
8
0
100
AcDbPolyline
90
4
70
1
43
0.0
10
-1.649999963119626
20
-8.6800004122778773
10
-1.890000089770183
20
-8.6800004122778773
10
-1.890000089770183
20
-9.0499997977167368
10
-1.649999963119626
20
-9.0499997977167368
0
LWPOLYLINE
5
237
100
AcDbEntity
8
0
100
AcDbPolyline
90
4
70
1
43
0.0
10
-2.2718450549233276
20
-9.0499997977167368
10
-2.0499999541789293
20
-9.0499997977167368
10
-2.0499999541789293
20
-8.6800004122778773
10
-2.2718450549233276
20
-8.6800004122778773
0
LWPOLYLINE
5
238
100
AcDbEntity
8
0
100
AcDbPolyline
90
4
70
1
43
0.0
10
-2.5940781505334023
20
-9.0499997977167368
10
-2.3799490611925136
20
-9.0499997977167368
10
-2.3799490611925136
20
-8.6800004122778773
10
-2.5940781505334023
20
-8.6800004122778773
0
LWPOLYLINE
5
239
100
AcDbEntity
8
0
100
AcDbPolyline
90
4
70
1
43
0.0
10
-2.9038377069585697
20
-9.0499997977167368
10
-2.6999999396502972
20
-9.0499997977167368
10
-2.6999999396502972
20
-8.6800004122778773
10
-2.9038377069585697
20
-8.6800004122778773
0
LWPOLYLINE
5
240
100
AcDbEntity
8
0
100
AcDbPolyline
90
4
70
1
43
0.0
10
-3.1990448010013477
20
-9.0499997977167368
10
-2.9999999329447746
20
-9.0499997977167368
10
-2.9999999329447746
20
-8.6800004122778773
10
-3.1990448010013477
20
-8.6800004122778773
0
LWPOLYLINE
5
241
100
AcDbEntity
8
0
100
AcDbPolyline
90
4
70
1
43
0.0
10
-3.5732509765485307
20
-9.0499997977167368
10
-3.349999925121665
20
-9.0499997977167368
10
-3.349999925121665
20
-8.6800004122778773
10
-3.5732509765485307
20
-8.6800004122778773
0
LWPOLYLINE
5
242
100
AcDbEntity
8
0
100
AcDbPolyline
90
4
70
1
43
0.0
10
-3.9183522273309324
20
-9.0499997977167368
10
-3.6999999172985554
20
-9.0499997977167368
10
-3.6999999172985554
20
-8.6800004122778773
10
-3.9183522273309324
20
-8.6800004122778773
0
LWPOLYLINE
5
243
100
AcDbEntity
8
0
100
AcDbPolyline
90
4
70
1
43
0.0
10
-4.2884005564831469
20
-9.0499997977167368
10
-4.0499999094754457
20
-9.0499997977167368
10
-4.0499999094754457
20
-8.6800004122778773
10
-4.2884005564831469
20
-8.6800004122778773
0
LWPOLYLINE
5
244
100
AcDbEntity
8
0
100
AcDbPolyline
90
4
70
1
43
0.0
10
-4.637659653660517
20
-9.0499997977167368
10
-4.3999999016523361
20
-9.0499997977167368
10
-4.3999999016523361
20
-8.6800004122778773
10
-4.637659653660517
20
-8.6800004122778773
0
LWPOLYLINE
5
245
100
AcDbEntity
8
0
100
AcDbPolyline
90
4
70
1
43
0.0
10
-5.0368129075775103
20
-9.0499997977167368
10
-4.7999998927116394
20
-9.0499997977167368
10
-4.7999998927116394
20
-8.6800004122778773
10
-5.0368129075775103
20
-8.6800004122778773
0
LWPOLYLINE
5
246
100
AcDbEntity
8
0
100
AcDbPolyline
90
4
70
1
43
0.0
10
-5.4546764702718642
20
-9.0499997977167368
10
-5.1999998837709427
20
-9.0499997977167368
10
-5.1999998837709427
20
-8.6800004122778773
10
-5.4546764702718642
20
-8.6800004122778773
0
LWPOLYLINE
5
247
100
AcDbEntity
8
0
100
AcDbPolyline
90
4
70
1
43
0.0
10
-5.839277261806469
20
-9.0499997977167368
10
-5.599999874830246
20
-9.0499997977167368
10
-5.599999874830246
20
-8.6800004122778773
10
-5.839277261806469
20
-8.6800004122778773
0
ENDSEC
0
SECTION
2
OBJECTS
0
DICTIONARY
5
C
100
AcDbDictionary
3
ACAD_GROUP
350
D
3
ACAD_MLINESTYLE
350
17
0
DICTIONARY
5
D
100
AcDbDictionary
0
DICTIONARY
5
1A
330
C
100
AcDbDictionary
0
DICTIONARY
5
17
100
AcDbDictionary
0
ENDSEC
0
EOF
